solid PineBoxEdges
facet normal -1.0 -2.0440025511085784e-15 3.694345351633309e-15
  outer loop
    vertex -91.00000000000006 37.723085048047764 5.00000000000021
    vertex -91.00000000000011 57.72308504804757 3.6166070138676784e-13
    vertex -91.00000000000007 37.72308504804762 3.408634485779778e-13
  endloop
endfacet
facet normal -1.0 -2.0440025511085784e-15 3.694345351633309e-15
  outer loop
    vertex -91.00000000000011 57.72308504804757 3.6166070138676784e-13
    vertex -91.00000000000006 37.723085048047764 5.00000000000021
    vertex -91.0000000000001 53.72308504804758 2.500000000000353
  endloop
endfacet
facet normal -1.0 -2.0440025511085784e-15 3.694345351633309e-15
  outer loop
    vertex -91.0000000000001 53.72308504804758 2.500000000000353
    vertex -91.00000000000006 37.723085048047764 5.00000000000021
    vertex -91.00000000000009 53.72308504804758 5.0000000000003535
  endloop
endfacet
facet normal -1.0 -2.0440025511085784e-15 3.694345351633309e-15
  outer loop
    vertex -91.00000000000011 57.72308504804757 3.6166070138676784e-13
    vertex -91.0000000000001 53.72308504804758 2.500000000000353
    vertex -91.0000000000001 57.72308504804757 2.5000000000003544
  endloop
endfacet
facet normal -1.8646932838528082e-15 1.0 3.1918911957973956e-16
  outer loop
    vertex -91.00000000000004 25.99999999999983 3.517908186978502e-13
    vertex -2.255973186038318e-14 25.999999999999996 5.000000000000005
    vertex -4.511946372076636e-14 25.999999999999996 6.3449245857327695e-15
  endloop
endfacet
facet normal -1.8646932838528082e-15 1.0 3.1918911957973956e-16
  outer loop
    vertex -2.255973186038318e-14 25.999999999999996 5.000000000000005
    vertex -91.00000000000004 25.99999999999983 3.517908186978502e-13
    vertex -91.00000000000004 25.99999999999983 5.000000000000351
  endloop
endfacet
facet normal 3.790524052422095e-15 -3.191891195797325e-16 1.0
  outer loop
    vertex -90.99999999999999 -1.6919798895287386e-13 2.500000000000339
    vertex -4.511946372076636e-14 7.999999999999985 2.499999999999996
    vertex -91.00000000000001 7.999999999999816 2.500000000000341
  endloop
endfacet
facet normal 3.790524052422095e-15 -3.191891195797325e-16 1.0
  outer loop
    vertex -4.511946372076636e-14 7.999999999999985 2.499999999999996
    vertex -90.99999999999999 -1.6919798895287386e-13 2.500000000000339
    vertex -2.255973186038318e-14 0.0 2.499999999999994
  endloop
endfacet
facet normal -3.790524052422095e-15 3.191891195797325e-16 -1.0
  outer loop
    vertex -4.511946372076636e-14 25.999999999999996 6.3449245857327695e-15
    vertex -91.0 -1.6919798895287386e-13 3.433309192502065e-13
    vertex -91.00000000000004 25.99999999999983 3.517908186978502e-13
  endloop
endfacet
facet normal -3.790524052422095e-15 3.191891195797325e-16 -1.0
  outer loop
    vertex -91.0 -1.6919798895287386e-13 3.433309192502065e-13
    vertex -4.511946372076636e-14 25.999999999999996 6.3449245857327695e-15
    vertex 1.127986593019159e-14 0.0 -1.4099832412739487e-15
  endloop
endfacet
facet normal -1.8646932838528082e-15 1.0 3.1918911957973956e-16
  outer loop
    vertex -91.00000000000011 57.72308504804757 3.6166070138676784e-13
    vertex -9.023892744153272e-14 57.72308504804774 2.5000000000000093
    vertex -1.0151879337172431e-13 57.72308504804774 1.6919798895287383e-14
  endloop
endfacet
facet normal -1.8646932838528082e-15 1.0 3.1918911957973956e-16
  outer loop
    vertex -9.023892744153272e-14 57.72308504804774 2.5000000000000093
    vertex -91.00000000000011 57.72308504804757 3.6166070138676784e-13
    vertex -91.0000000000001 57.72308504804757 2.5000000000003544
  endloop
endfacet
facet normal 1.8646932838528082e-15 -1.0 -3.1918911957973956e-16
  outer loop
    vertex 1.127986593019159e-14 7.999999999999985 5.0
    vertex -91.00000000000001 7.999999999999816 2.500000000000341
    vertex -4.511946372076636e-14 7.999999999999985 2.499999999999996
  endloop
endfacet
facet normal 1.8646932838528082e-15 -1.0 -3.1918911957973956e-16
  outer loop
    vertex -91.00000000000001 7.999999999999816 2.500000000000341
    vertex 1.127986593019159e-14 7.999999999999985 5.0
    vertex -91.0 7.999999999999816 5.00000000000034
  endloop
endfacet
facet normal 3.790524052422095e-15 -3.191891195797325e-16 1.0
  outer loop
    vertex -91.0000000000001 53.72308504804758 2.500000000000353
    vertex -9.023892744153272e-14 57.72308504804774 2.5000000000000093
    vertex -91.0000000000001 57.72308504804757 2.5000000000003544
  endloop
endfacet
facet normal 3.790524052422095e-15 -3.191891195797325e-16 1.0
  outer loop
    vertex -9.023892744153272e-14 57.72308504804774 2.5000000000000093
    vertex -91.0000000000001 53.72308504804758 2.500000000000353
    vertex -7.895906151134113e-14 53.72308504804775 2.500000000000008
  endloop
endfacet
facet normal 2.847081544880093e-15 -5.7104321271594906e-15 1.0
  outer loop
    vertex -91.00000000000006 37.723085048047764 5.00000000000021
    vertex -6.767919558114953e-14 53.72308504804775 5.000000000000008
    vertex -91.00000000000009 53.72308504804758 5.0000000000003535
  endloop
endfacet
facet normal 2.847081544880093e-15 -5.7104321271594906e-15 1.0
  outer loop
    vertex -6.767919558114953e-14 53.72308504804775 5.000000000000008
    vertex -91.00000000000006 37.723085048047764 5.00000000000021
    vertex -3.3839597790574766e-14 37.723085048047764 5.000000000000037
  endloop
endfacet
facet normal -1.0 -1.8646932838528094e-15 3.790524052422094e-15
  outer loop
    vertex -91.00000000000004 25.99999999999983 5.000000000000351
    vertex -91.00000000000001 7.999999999999816 2.500000000000341
    vertex -91.0 7.999999999999816 5.00000000000034
  endloop
endfacet
facet normal -1.0 -1.8646932838528094e-15 3.790524052422094e-15
  outer loop
    vertex -91.00000000000001 7.999999999999816 2.500000000000341
    vertex -91.0 -1.6919798895287386e-13 3.433309192502065e-13
    vertex -90.99999999999999 -1.6919798895287386e-13 2.500000000000339
  endloop
endfacet
facet normal -1.0 -1.8646932838528094e-15 3.790524052422094e-15
  outer loop
    vertex -91.0 -1.6919798895287386e-13 3.433309192502065e-13
    vertex -91.00000000000001 7.999999999999816 2.500000000000341
    vertex -91.00000000000004 25.99999999999983 3.517908186978502e-13
  endloop
endfacet
facet normal -1.0 -1.8646932838528094e-15 3.790524052422094e-15
  outer loop
    vertex -91.00000000000004 25.99999999999983 3.517908186978502e-13
    vertex -91.00000000000001 7.999999999999816 2.500000000000341
    vertex -91.00000000000004 25.99999999999983 5.000000000000351
  endloop
endfacet
facet normal 3.764578008855791e-15 -4.376824821120925e-16 1.0
  outer loop
    vertex -91.0 7.999999999999816 5.00000000000034
    vertex -2.255973186038318e-14 25.999999999999996 5.000000000000005
    vertex -91.00000000000004 25.99999999999983 5.000000000000351
  endloop
endfacet
facet normal 3.764578008855791e-15 -4.376824821120925e-16 1.0
  outer loop
    vertex -2.255973186038318e-14 25.999999999999996 5.000000000000005
    vertex -91.0 7.999999999999816 5.00000000000034
    vertex 1.127986593019159e-14 7.999999999999985 5.0
  endloop
endfacet
facet normal 1.0 9.323466419264041e-16 -1.8952620262110482e-15
  outer loop
    vertex -4.511946372076636e-14 25.999999999999996 6.3449245857327695e-15
    vertex -2.255973186038318e-14 0.0 2.499999999999994
    vertex 1.127986593019159e-14 0.0 -1.4099832412739487e-15
  endloop
endfacet
facet normal 1.0 9.323466419264041e-16 -1.8952620262110482e-15
  outer loop
    vertex -2.255973186038318e-14 0.0 2.499999999999994
    vertex -4.511946372076636e-14 25.999999999999996 6.3449245857327695e-15
    vertex -4.511946372076636e-14 7.999999999999985 2.499999999999996
  endloop
endfacet
facet normal 1.0 9.323466419264041e-16 -1.8952620262110482e-15
  outer loop
    vertex -4.511946372076636e-14 7.999999999999985 2.499999999999996
    vertex -4.511946372076636e-14 25.999999999999996 6.3449245857327695e-15
    vertex 1.127986593019159e-14 7.999999999999985 5.0
  endloop
endfacet
facet normal 1.0 9.323466419264041e-16 -1.8952620262110482e-15
  outer loop
    vertex 1.127986593019159e-14 7.999999999999985 5.0
    vertex -4.511946372076636e-14 25.999999999999996 6.3449245857327695e-15
    vertex -2.255973186038318e-14 25.999999999999996 5.000000000000005
  endloop
endfacet
facet normal -1.8646932838528082e-15 1.0 3.1918911957973956e-16
  outer loop
    vertex -91.0000000000001 53.72308504804758 2.500000000000353
    vertex -6.767919558114953e-14 53.72308504804775 5.000000000000008
    vertex -7.895906151134113e-14 53.72308504804775 2.500000000000008
  endloop
endfacet
facet normal -1.8646932838528082e-15 1.0 3.1918911957973956e-16
  outer loop
    vertex -6.767919558114953e-14 53.72308504804775 5.000000000000008
    vertex -91.0000000000001 53.72308504804758 2.500000000000353
    vertex -91.00000000000009 53.72308504804758 5.0000000000003535
  endloop
endfacet
facet normal -3.155676778089313e-15 -4.936592378699469e-16 -1.0
  outer loop
    vertex -1.0151879337172431e-13 57.72308504804774 1.6919798895287383e-14
    vertex -91.00000000000007 37.72308504804762 3.408634485779778e-13
    vertex -91.00000000000011 57.72308504804757 3.6166070138676784e-13
  endloop
endfacet
facet normal -3.155676778089313e-15 -4.936592378699469e-16 -1.0
  outer loop
    vertex -91.00000000000007 37.72308504804762 3.408634485779778e-13
    vertex -1.0151879337172431e-13 57.72308504804774 1.6919798895287383e-14
    vertex -5.639932965095795e-14 37.72308504804762 1.688454931425561e-13
  endloop
endfacet
facet normal 1.0 2.2752052524206676e-15 -3.893544870196133e-15
  outer loop
    vertex -1.0151879337172431e-13 57.72308504804774 1.6919798895287383e-14
    vertex -3.3839597790574766e-14 37.723085048047764 5.000000000000037
    vertex -5.639932965095795e-14 37.72308504804762 1.688454931425561e-13
  endloop
endfacet
facet normal 1.0 2.2752052524206676e-15 -3.893544870196133e-15
  outer loop
    vertex -3.3839597790574766e-14 37.723085048047764 5.000000000000037
    vertex -1.0151879337172431e-13 57.72308504804774 1.6919798895287383e-14
    vertex -7.895906151134113e-14 53.72308504804775 2.500000000000008
  endloop
endfacet
facet normal 1.0 2.2752052524206676e-15 -3.893544870196133e-15
  outer loop
    vertex -7.895906151134113e-14 53.72308504804775 2.500000000000008
    vertex -1.0151879337172431e-13 57.72308504804774 1.6919798895287383e-14
    vertex -9.023892744153272e-14 57.72308504804774 2.5000000000000093
  endloop
endfacet
facet normal 1.0 2.2752052524206676e-15 -3.893544870196133e-15
  outer loop
    vertex -6.767919558114953e-14 53.72308504804775 5.000000000000008
    vertex -3.3839597790574766e-14 37.723085048047764 5.000000000000037
    vertex -7.895906151134113e-14 53.72308504804775 2.500000000000008
  endloop
endfacet
facet normal 1.8646932838528082e-15 -1.0 -3.1918911957973956e-16
  outer loop
    vertex -2.255973186038318e-14 0.0 2.499999999999994
    vertex -91.0 -1.6919798895287386e-13 3.433309192502065e-13
    vertex 1.127986593019159e-14 0.0 -1.4099832412739487e-15
  endloop
endfacet
facet normal 1.8646932838528082e-15 -1.0 -3.1918911957973956e-16
  outer loop
    vertex -91.0 -1.6919798895287386e-13 3.433309192502065e-13
    vertex -2.255973186038318e-14 0.0 2.499999999999994
    vertex -90.99999999999999 -1.6919798895287386e-13 2.500000000000339
  endloop
endfacet
facet normal 5.335260388489573e-29 -1.0 2.819966482547971e-14
  outer loop
    vertex -3.3839597790574766e-14 37.723085048047764 5.000000000000037
    vertex -91.00000000000007 37.72308504804762 3.408634485779778e-13
    vertex -5.639932965095795e-14 37.72308504804762 1.688454931425561e-13
  endloop
endfacet
facet normal 5.335260388489573e-29 -1.0 2.819966482547971e-14
  outer loop
    vertex -91.00000000000007 37.72308504804762 3.408634485779778e-13
    vertex -3.3839597790574766e-14 37.723085048047764 5.000000000000037
    vertex -91.00000000000006 37.723085048047764 5.00000000000021
  endloop
endfacet
endsolid PineBoxEdges
