solid BeagleBoxBottomB
facet normal 1.0 3.096375854131634e-12 5.656045671113889e-13
  outer loop
    vertex 1.5791812302268225e-13 0.010670250000002922 -55.46179999999972
    vertex 4.0607517348689725e-13 0.17026900000001513 -56.83750000000001
    vertex 2.255973186038318e-14 0.0 -55.00000000000008
  endloop
endfacet
facet normal 1.0 3.096375854131634e-12 5.656045671113889e-13
  outer loop
    vertex 4.0607517348689725e-13 0.17026900000001513 -56.83750000000001
    vertex 1.5791812302268225e-13 0.010670250000002922 -55.46179999999972
    vertex 2.7071678232459813e-13 0.042658240000019804 -55.922699999999864
  endloop
endfacet
facet normal 1.0 3.096375854131634e-12 5.656045671113889e-13
  outer loop
    vertex 4.0607517348689725e-13 0.17026900000001513 -56.83750000000001
    vertex 2.7071678232459813e-13 0.042658240000019804 -55.922699999999864
    vertex 6.31672492090729e-13 0.09589569000000732 -56.381600000000134
  endloop
endfacet
facet normal -5.0310399419195074e-15 -1.2218295055188513e-14 1.0
  outer loop
    vertex -108.0 0.0 2.255973186038318e-14
    vertex -114.026346 2.019827999999996 2.255973186038318e-14
    vertex -113.65136399999996 1.7500249999999935 2.255973186038318e-14
  endloop
endfacet
facet normal 1.0 -2.6634435054864646e-12 -3.3856375967972853e-13
  outer loop
    vertex 1.127986593019159e-13 0.38174359999998425 -57.73659999999979
    vertex 2.255973186038318e-14 0.0 -55.00000000000008
    vertex -4.511946372076636e-14 0.2656195000000055 -57.28950000000005
  endloop
endfacet
facet normal 1.0 8.697663397205684e-13 1.5430339148041903e-13
  outer loop
    vertex 4.511946372076636e-14 0.518393500000017 -58.17790000000005
    vertex 2.255973186038318e-14 0.0 -55.00000000000008
    vertex 1.127986593019159e-13 0.38174359999998425 -57.73659999999979
  endloop
endfacet
facet normal 1.0 -3.8668173513542e-13 -3.50022170862298e-13
  outer loop
    vertex 3.8351544162651403e-13 10.00000000000005 -65.00000000000016
    vertex 2.255973186038318e-14 0.0 -55.00000000000008
    vertex 2.0303758674344862e-13 9.538165000000049 -64.98929999999993
  endloop
endfacet
facet normal 2.071694522927772e-14 7.092979509725928e-14 1.0
  outer loop
    vertex -108.0 0.0 2.255973186038318e-14
    vertex -113.65136399999996 1.7500249999999935 2.255973186038318e-14
    vertex -113.26432199999998 1.4978290000000074 2.255973186038318e-14
  endloop
endfacet
facet normal 1.5514436866043922e-14 4.908105913722973e-14 1.0
  outer loop
    vertex -108.0 0.0 2.255973186038318e-14
    vertex -114.38846800000003 2.3066599999999893 1.127986593019159e-14
    vertex -114.026346 2.019827999999996 2.255973186038318e-14
  endloop
endfacet
facet normal 1.0 1.059756195223701e-11 1.1999300770435315e-12
  outer loop
    vertex -4.511946372076636e-14 0.2656195000000055 -57.28950000000005
    vertex 2.255973186038318e-14 0.0 -55.00000000000008
    vertex 4.0607517348689725e-13 0.17026900000001513 -56.83750000000001
  endloop
endfacet
facet normal -1.2252807613659976e-14 -4.494684718008856e-14 1.0
  outer loop
    vertex -108.0 0.0 2.255973186038318e-14
    vertex -113.26432199999998 1.4978290000000074 2.255973186038318e-14
    vertex -112.86604499999999 1.2637760000000051 2.255973186038318e-14
  endloop
endfacet
facet normal -8.616772894363403e-14 -4.2337259255629156e-13 1.0
  outer loop
    vertex -108.0 0.0 2.255973186038318e-14
    vertex -112.03921000000004 0.8520613000000008 3.3839597790574766e-14
    vertex -111.61241700000001 0.6752776999999888 0.0
  endloop
endfacet
facet normal 4.9561819234379336e-15 0.0 -1.0
  outer loop
    vertex 0.0 68.99999999999997 -9.999999999999993
    vertex -4.999999999999855 5.000000000000002 -10.000000000000027
    vertex -4.999999999999855 68.99999999999997 -10.000000000000027
  endloop
endfacet
facet normal 4.9561819234379336e-15 0.0 -1.0
  outer loop
    vertex -4.999999999999855 5.000000000000002 -10.000000000000027
    vertex 0.0 68.99999999999997 -9.999999999999993
    vertex 0.0 5.000000000000002 -9.999999999999993
  endloop
endfacet
facet normal -4.9561819234379336e-15 0.0 1.0
  outer loop
    vertex 9.023892744153272e-14 5.000000000000002 -27.000000000000007
    vertex -4.9999999999997655 68.99999999999997 -27.00000000000004
    vertex -4.9999999999997655 5.000000000000002 -27.00000000000004
  endloop
endfacet
facet normal -4.9561819234379336e-15 0.0 1.0
  outer loop
    vertex -4.9999999999997655 68.99999999999997 -27.00000000000004
    vertex 9.023892744153272e-14 5.000000000000002 -27.000000000000007
    vertex 9.023892744153272e-14 68.99999999999997 -27.000000000000007
  endloop
endfacet
facet normal 3.797466851401942e-18 -1.0 5.962650347131559e-18
  outer loop
    vertex 0.0 0.0 0.0
    vertex -4.99999999999981 0.0 -54.999999999999865
    vertex 2.255973186038318e-14 0.0 -55.00000000000008
  endloop
endfacet
facet normal 3.797466851401942e-18 -1.0 5.962650347131559e-18
  outer loop
    vertex -4.99999999999981 0.0 -54.999999999999865
    vertex 0.0 0.0 0.0
    vertex -4.999999999999788 0.0 -5.0000000000000355
  endloop
endfacet
facet normal 3.797466851401942e-18 -1.0 5.962650347131559e-18
  outer loop
    vertex -4.999999999999788 0.0 -5.0000000000000355
    vertex 0.0 0.0 0.0
    vertex -98.50978770889299 0.0 -5.000000000000002
  endloop
endfacet
facet normal 3.797466851401942e-18 -1.0 5.962650347131559e-18
  outer loop
    vertex -98.50978770889299 0.0 -5.000000000000002
    vertex 0.0 0.0 0.0
    vertex -108.0 0.0 -4.999999999999968
  endloop
endfacet
facet normal 3.797466851401942e-18 -1.0 5.962650347131559e-18
  outer loop
    vertex -108.0 0.0 -4.999999999999968
    vertex 0.0 0.0 0.0
    vertex -108.0 0.0 2.255973186038318e-14
  endloop
endfacet
facet normal -6.436859945705611e-14 -7.544328837952566e-14 1.0
  outer loop
    vertex -108.0 0.0 2.255973186038318e-14
    vertex -117.90410399999992 8.618435999999994 3.3839597790574766e-14
    vertex -117.829731 8.162505000000017 1.127986593019159e-14
  endloop
endfacet
facet normal 1.0873273102390587e-13 1.5608136758511032e-13 1.0
  outer loop
    vertex -108.0 0.0 2.255973186038318e-14
    vertex -117.48160600000008 6.822086000000027 -1.127986593019159e-14
    vertex -117.32472199999997 6.387582999999995 4.511946372076636e-14
  endloop
endfacet
facet normal 2.8308266136713856e-14 4.5973813189198664e-14 1.0
  outer loop
    vertex -108.0 0.0 2.255973186038318e-14
    vertex -116.95163300000002 5.542616000000026 2.255973186038318e-14
    vertex -116.73622399999996 5.13395500000003 3.3839597790574766e-14
  endloop
endfacet
facet normal 6.555414392867808e-14 3.882678226918197e-13 1.0
  outer loop
    vertex -108.0 0.0 2.255973186038318e-14
    vertex -111.61241700000001 0.6752776999999888 0.0
    vertex -111.17791399999999 0.5183934999999945 3.3839597790574766e-14
  endloop
endfacet
facet normal -3.8483370230171206e-14 -6.18983930444297e-14 1.0
  outer loop
    vertex -108.0 0.0 2.255973186038318e-14
    vertex -117.14793899999998 5.960790000000019 4.511946372076636e-14
    vertex -116.95163300000002 5.542616000000026 2.255973186038318e-14
  endloop
endfacet
facet normal -2.376628006157827e-14 -1.5929426264407355e-13 1.0
  outer loop
    vertex -108.0 0.0 2.255973186038318e-14
    vertex -111.17791399999999 0.5183934999999945 3.3839597790574766e-14
    vertex -110.73663 0.3817436000000068 2.255973186038318e-14
  endloop
endfacet
facet normal -0.06924424519700376 -0.9975997366214054 -6.241222157404609e-16
  outer loop
    vertex -108.92268000000006 0.042658239999997245 3.3839597790574766e-14
    vertex -108.46182999999996 0.010670250000002922 -4.99999999999998
    vertex -108.46183 0.010670250000002922 3.3839597790574766e-14
  endloop
endfacet
facet normal -1.6446258709602103e-14 -2.893121900955443e-14 1.0
  outer loop
    vertex -108.0 0.0 2.255973186038318e-14
    vertex -116.50217100000002 4.735677999999991 2.255973186038318e-14
    vertex -116.24997500000006 4.348635999999999 1.127986593019159e-14
  endloop
endfacet
facet normal 4.3991957212683804e-15 3.583044855044645e-15 1.0
  outer loop
    vertex -108.0 0.0 2.255973186038318e-14
    vertex -117.95734199999994 9.077316000000001 3.3839597790574766e-14
    vertex -117.90410399999992 8.618435999999994 3.3839597790574766e-14
  endloop
endfacet
facet normal 2.566655442391089e-14 1.010579211064668e-13 1.0
  outer loop
    vertex -108.0 0.0 2.255973186038318e-14
    vertex -112.86604499999999 1.2637760000000051 2.255973186038318e-14
    vertex -112.45738399999993 1.0483670000000098 3.3839597790574766e-14
  endloop
endfacet
facet normal 8.965086468998012e-17 2.096913276457119e-16 1.0
  outer loop
    vertex -108.0 0.0 2.255973186038318e-14
    vertex -118.00000000000003 89.49999999999991 -1.127986593019159e-14
    vertex -118.00000000000003 10.000000000000004 1.127986593019159e-14
  endloop
endfacet
facet normal 8.965086468998012e-17 2.096913276457119e-16 1.0
  outer loop
    vertex -118.00000000000003 89.49999999999991 -1.127986593019159e-14
    vertex -108.0 0.0 2.255973186038318e-14
    vertex 0.0 89.49999999999974 0.0
  endloop
endfacet
facet normal 8.965086468998012e-17 2.096913276457119e-16 1.0
  outer loop
    vertex 0.0 89.49999999999974 0.0
    vertex -108.0 0.0 2.255973186038318e-14
    vertex 0.0 0.0 0.0
  endloop
endfacet
facet normal -1.2077142996258277e-14 -1.600932388559385e-13 1.0
  outer loop
    vertex -109.38156000000002 0.09589569000000732 1.127986593019159e-14
    vertex -108.0 0.0 2.255973186038318e-14
    vertex -109.83749999999999 0.17026899999999257 3.3839597790574766e-14
  endloop
endfacet
facet normal -1.2077142996258277e-14 -1.600932388559385e-13 1.0
  outer loop
    vertex -108.0 0.0 2.255973186038318e-14
    vertex -109.38156000000002 0.09589569000000732 1.127986593019159e-14
    vertex -108.92268000000006 0.042658239999997245 3.3839597790574766e-14
  endloop
endfacet
facet normal -1.2077142996258277e-14 -1.600932388559385e-13 1.0
  outer loop
    vertex -108.0 0.0 2.255973186038318e-14
    vertex -108.92268000000006 0.042658239999997245 3.3839597790574766e-14
    vertex -108.46183 0.010670250000002922 3.3839597790574766e-14
  endloop
endfacet
facet normal -5.4878520434594596e-14 -7.131204602715351e-14 1.0
  outer loop
    vertex -108.0 0.0 2.255973186038318e-14
    vertex -117.618256 7.263370000000001 1.127986593019159e-14
    vertex -117.48160600000008 6.822086000000027 -1.127986593019159e-14
  endloop
endfacet
facet normal 2.2249601771298213e-16 -1.7551619067040574e-15 -1.0
  outer loop
    vertex -4.999999999999878 89.49999999999991 -5.0000000000000355
    vertex -117.99999999999994 10.000000000000004 -4.999999999999957
    vertex -118.00000000000003 89.49999999999991 -5.000000000000227
  endloop
endfacet
facet normal 2.2249601771298213e-16 -1.7551619067040574e-15 -1.0
  outer loop
    vertex -117.99999999999994 10.000000000000004 -4.999999999999957
    vertex -4.999999999999878 89.49999999999991 -5.0000000000000355
    vertex -117.98932999999998 9.538165000000005 -4.99999999999998
  endloop
endfacet
facet normal 2.2249601771298213e-16 -1.7551619067040574e-15 -1.0
  outer loop
    vertex -117.98932999999998 9.538165000000005 -4.99999999999998
    vertex -4.999999999999878 89.49999999999991 -5.0000000000000355
    vertex -117.95734200000003 9.077316000000001 -5.000000000000002
  endloop
endfacet
facet normal 2.2249601771298213e-16 -1.7551619067040574e-15 -1.0
  outer loop
    vertex -117.95734200000003 9.077316000000001 -5.000000000000002
    vertex -4.999999999999878 89.49999999999991 -5.0000000000000355
    vertex -117.904104 8.618435999999994 -4.99999999999998
  endloop
endfacet
facet normal 2.2249601771298213e-16 -1.7551619067040574e-15 -1.0
  outer loop
    vertex -117.904104 8.618435999999994 -4.99999999999998
    vertex -4.999999999999878 89.49999999999991 -5.0000000000000355
    vertex -117.82973100000004 8.162505000000017 -4.999999999999991
  endloop
endfacet
facet normal 2.2249601771298213e-16 -1.7551619067040574e-15 -1.0
  outer loop
    vertex -117.82973100000004 8.162505000000017 -4.999999999999991
    vertex -4.999999999999878 89.49999999999991 -5.0000000000000355
    vertex -117.734381 7.710495000000024 -5.000000000000025
  endloop
endfacet
facet normal 2.2249601771298213e-16 -1.7551619067040574e-15 -1.0
  outer loop
    vertex -117.734381 7.710495000000024 -5.000000000000025
    vertex -4.999999999999878 89.49999999999991 -5.0000000000000355
    vertex -117.618256 7.263370000000001 -4.999999999999968
  endloop
endfacet
facet normal 2.2249601771298213e-16 -1.7551619067040574e-15 -1.0
  outer loop
    vertex -117.618256 7.263370000000001 -4.999999999999968
    vertex -4.999999999999878 89.49999999999991 -5.0000000000000355
    vertex -111.17791399999999 0.5183934999999945 -4.999999999999991
  endloop
endfacet
facet normal 2.2249601771298213e-16 -1.7551619067040574e-15 -1.0
  outer loop
    vertex -111.17791399999999 0.5183934999999945 -4.999999999999991
    vertex -4.999999999999878 89.49999999999991 -5.0000000000000355
    vertex -110.73662999999996 0.3817436000000068 -4.99999999999998
  endloop
endfacet
facet normal 2.2249601771298213e-16 -1.7551619067040574e-15 -1.0
  outer loop
    vertex -110.73662999999996 0.3817436000000068 -4.99999999999998
    vertex -4.999999999999878 89.49999999999991 -5.0000000000000355
    vertex -110.28950999999999 0.2656195000000055 -4.999999999999957
  endloop
endfacet
facet normal 2.2249601771298213e-16 -1.7551619067040574e-15 -1.0
  outer loop
    vertex -110.28950999999999 0.2656195000000055 -4.999999999999957
    vertex -4.999999999999878 89.49999999999991 -5.0000000000000355
    vertex -109.83749999999999 0.17026899999999257 -4.999999999999968
  endloop
endfacet
facet normal 2.2249601771298213e-16 -1.7551619067040574e-15 -1.0
  outer loop
    vertex -109.83749999999999 0.17026899999999257 -4.999999999999968
    vertex -4.999999999999878 89.49999999999991 -5.0000000000000355
    vertex -109.38155999999996 0.09589569000000732 -4.999999999999968
  endloop
endfacet
facet normal 2.2249601771298213e-16 -1.7551619067040574e-15 -1.0
  outer loop
    vertex -109.38155999999996 0.09589569000000732 -4.999999999999968
    vertex -4.999999999999878 89.49999999999991 -5.0000000000000355
    vertex -108.92268 0.042658239999997245 -4.999999999999968
  endloop
endfacet
facet normal 2.2249601771298213e-16 -1.7551619067040574e-15 -1.0
  outer loop
    vertex -108.92268 0.042658239999997245 -4.999999999999968
    vertex -4.999999999999878 89.49999999999991 -5.0000000000000355
    vertex -98.50978770889299 0.0 -5.000000000000002
  endloop
endfacet
facet normal 2.2249601771298213e-16 -1.7551619067040574e-15 -1.0
  outer loop
    vertex -98.50978770889299 0.0 -5.000000000000002
    vertex -4.999999999999878 89.49999999999991 -5.0000000000000355
    vertex -4.999999999999788 0.0 -5.0000000000000355
  endloop
endfacet
facet normal -2.98071877344204e-14 -5.2918682533862773e-14 1.0
  outer loop
    vertex -108.0 0.0 2.255973186038318e-14
    vertex -116.73622399999996 5.13395500000003 3.3839597790574766e-14
    vertex -116.50217100000002 4.735677999999991 2.255973186038318e-14
  endloop
endfacet
facet normal 3.079052282788395e-14 2.494743804421167e-13 1.0
  outer loop
    vertex -108.0 0.0 2.255973186038318e-14
    vertex -110.28950999999999 0.2656195000000055 3.3839597790574766e-14
    vertex -109.83749999999999 0.17026899999999257 3.3839597790574766e-14
  endloop
endfacet
facet normal 1.861487602516886e-14 1.445262681563719e-13 1.0
  outer loop
    vertex -108.0 0.0 2.255973186038318e-14
    vertex -110.73663 0.3817436000000068 2.255973186038318e-14
    vertex -110.28950999999999 0.2656195000000055 3.3839597790574766e-14
  endloop
endfacet
facet normal -1.0 -5.109244127399372e-16 -5.034801633633486e-16
  outer loop
    vertex -4.999999999999788 0.0 -5.0000000000000355
    vertex -4.999999999999855 5.000000000000002 -10.000000000000027
    vertex -4.99999999999981 0.0 -54.999999999999865
  endloop
endfacet
facet normal -1.0 -5.109244127399372e-16 -5.034801633633486e-16
  outer loop
    vertex -4.999999999999855 5.000000000000002 -10.000000000000027
    vertex -4.999999999999788 0.0 -5.0000000000000355
    vertex -4.999999999999878 89.49999999999991 -5.0000000000000355
  endloop
endfacet
facet normal -1.0 -5.109244127399372e-16 -5.034801633633486e-16
  outer loop
    vertex -4.999999999999855 5.000000000000002 -10.000000000000027
    vertex -4.999999999999878 89.49999999999991 -5.0000000000000355
    vertex -4.999999999999855 68.99999999999997 -10.000000000000027
  endloop
endfacet
facet normal -1.0 -5.109244127399372e-16 -5.034801633633486e-16
  outer loop
    vertex -4.999999999999855 68.99999999999997 -10.000000000000027
    vertex -4.999999999999878 89.49999999999991 -5.0000000000000355
    vertex -4.9999999999997655 68.99999999999997 -27.00000000000004
  endloop
endfacet
facet normal -1.0 -5.109244127399372e-16 -5.034801633633486e-16
  outer loop
    vertex -4.99999999999981 0.0 -54.999999999999865
    vertex -4.9999999999997655 5.000000000000002 -27.00000000000004
    vertex -4.99999999999981 10.00000000000005 -64.99999999999996
  endloop
endfacet
facet normal -1.0 -5.109244127399372e-16 -5.034801633633486e-16
  outer loop
    vertex -4.9999999999997655 5.000000000000002 -27.00000000000004
    vertex -4.99999999999981 0.0 -54.999999999999865
    vertex -4.999999999999855 5.000000000000002 -10.000000000000027
  endloop
endfacet
facet normal -1.0 -5.109244127399372e-16 -5.034801633633486e-16
  outer loop
    vertex -4.99999999999981 10.00000000000005 -64.99999999999996
    vertex -4.9999999999997655 5.000000000000002 -27.00000000000004
    vertex -4.9999999999997655 68.99999999999997 -27.00000000000004
  endloop
endfacet
facet normal -1.0 -5.109244127399372e-16 -5.034801633633486e-16
  outer loop
    vertex -4.99999999999981 10.00000000000005 -64.99999999999996
    vertex -4.9999999999997655 68.99999999999997 -27.00000000000004
    vertex -4.99999999999981 89.49999999999991 -65.00000000000016
  endloop
endfacet
facet normal -1.0 -5.109244127399372e-16 -5.034801633633486e-16
  outer loop
    vertex -4.99999999999981 89.49999999999991 -65.00000000000016
    vertex -4.9999999999997655 68.99999999999997 -27.00000000000004
    vertex -4.999999999999878 89.49999999999991 -5.0000000000000355
  endloop
endfacet
facet normal 1.403752080719529e-14 2.890080439251732e-14 1.0
  outer loop
    vertex -108.0 0.0 2.255973186038318e-14
    vertex -116.24997500000006 4.348635999999999 1.127986593019159e-14
    vertex -115.98017199999992 3.973654 2.255973186038318e-14
  endloop
endfacet
facet normal -2.3397534727433778e-15 -3.48155559287603e-14 -1.0
  outer loop
    vertex -98.50978770889299 0.0 -5.000000000000002
    vertex -108.46182999999996 0.010670250000002922 -4.99999999999998
    vertex -108.92268 0.042658239999997245 -4.999999999999968
  endloop
endfacet
facet normal -2.3397534727433778e-15 -3.48155559287603e-14 -1.0
  outer loop
    vertex -108.46182999999996 0.010670250000002922 -4.99999999999998
    vertex -98.50978770889299 0.0 -5.000000000000002
    vertex -108.0 0.0 -4.999999999999968
  endloop
endfacet
facet normal 0.0 1.0 0.0
  outer loop
    vertex -4.999999999999855 5.000000000000002 -10.000000000000027
    vertex 9.023892744153272e-14 5.000000000000002 -27.000000000000007
    vertex -4.9999999999997655 5.000000000000002 -27.00000000000004
  endloop
endfacet
facet normal 0.0 1.0 0.0
  outer loop
    vertex 9.023892744153272e-14 5.000000000000002 -27.000000000000007
    vertex -4.999999999999855 5.000000000000002 -10.000000000000027
    vertex 0.0 5.000000000000002 -9.999999999999993
  endloop
endfacet
facet normal -0.0 -1.0 -0.0
  outer loop
    vertex 9.023892744153272e-14 68.99999999999997 -27.000000000000007
    vertex -4.999999999999855 68.99999999999997 -10.000000000000027
    vertex -4.9999999999997655 68.99999999999997 -27.00000000000004
  endloop
endfacet
facet normal -0.0 -1.0 -0.0
  outer loop
    vertex -4.999999999999855 68.99999999999997 -10.000000000000027
    vertex 9.023892744153272e-14 68.99999999999997 -27.000000000000007
    vertex 0.0 68.99999999999997 -9.999999999999993
  endloop
endfacet
facet normal 4.193925089365169e-15 7.12342036640687e-15 1.0
  outer loop
    vertex -108.0 0.0 2.255973186038318e-14
    vertex -117.829731 8.162505000000017 1.127986593019159e-14
    vertex -117.73438099999996 7.710495000000024 1.127986593019159e-14
  endloop
endfacet
facet normal 7.610595341267627e-15 1.1436913855914972e-14 1.0
  outer loop
    vertex -108.0 0.0 2.255973186038318e-14
    vertex -117.73438099999996 7.710495000000024 1.127986593019159e-14
    vertex -117.618256 7.263370000000001 1.127986593019159e-14
  endloop
endfacet
facet normal 2.5333192139553983e-15 1.0493325115468645e-15 1.0
  outer loop
    vertex -108.0 0.0 2.255973186038318e-14
    vertex -117.32472199999997 6.387582999999995 4.511946372076636e-14
    vertex -117.14793899999998 5.960790000000019 4.511946372076636e-14
  endloop
endfacet
facet normal 1.3960434450950993e-14 5.1286541551834936e-14 1.0
  outer loop
    vertex -108.0 0.0 2.255973186038318e-14
    vertex -112.45738399999993 1.0483670000000098 3.3839597790574766e-14
    vertex -112.03921000000004 0.8520613000000008 3.3839597790574766e-14
  endloop
endfacet
facet normal -0.11524308298587732 -0.9933373202613051 -1.0384346445245178e-15
  outer loop
    vertex -108.92268000000006 0.042658239999997245 3.3839597790574766e-14
    vertex -109.38156000000002 0.09589569000000732 1.127986593019159e-14
    vertex -108.92268 0.042658239999997245 -4.999999999999968
  endloop
endfacet
facet normal -0.16099300537527703 -0.9869555472361642 -1.4499753534323947e-15
  outer loop
    vertex -109.83749999999999 0.17026899999999257 3.3839597790574766e-14
    vertex -109.38155999999996 0.09589569000000732 -4.999999999999968
    vertex -109.38156000000002 0.09589569000000732 1.127986593019159e-14
  endloop
endfacet
facet normal -2.0303758674344888e-14 -1.276965954361341e-15 -1.0
  outer loop
    vertex 1.8047785488306544e-13 89.49999999999974 -65.00000000000016
    vertex -4.99999999999981 10.00000000000005 -64.99999999999996
    vertex -4.99999999999981 89.49999999999991 -65.00000000000016
  endloop
endfacet
facet normal -2.0303758674344888e-14 -1.276965954361341e-15 -1.0
  outer loop
    vertex -4.99999999999981 10.00000000000005 -64.99999999999996
    vertex 1.8047785488306544e-13 89.49999999999974 -65.00000000000016
    vertex 3.8351544162651403e-13 10.00000000000005 -65.00000000000016
  endloop
endfacet
facet normal 1.0 7.372031978300674e-14 6.613032267631664e-14
  outer loop
    vertex 2.4815705046421497e-13 3.6115320000000217 -62.693299999999724
    vertex 2.255973186038318e-14 0.0 -55.00000000000008
    vertex 2.7071678232459813e-13 3.2630439999999945 -62.39009999999996
  endloop
endfacet
facet normal -0.29580619374803374 -0.9552479760461682 -2.6688000749373198e-15
  outer loop
    vertex -111.17791399999999 0.5183934999999945 3.3839597790574766e-14
    vertex -110.73662999999996 0.3817436000000068 -4.99999999999998
    vertex -110.73663 0.3817436000000068 2.255973186038318e-14
  endloop
endfacet
facet normal -0.5066540688101243 -0.8621494386463092 4.566611731781436e-15
  outer loop
    vertex -113.26432199999998 1.4978290000000074 2.255973186038318e-14
    vertex -112.86604500000003 1.2637760000000051 -4.999999999999991
    vertex -112.86604499999999 1.2637760000000051 2.255973186038318e-14
  endloop
endfacet
facet normal 1.0 -1.1554986753359609e-12 -7.91536853206937e-13
  outer loop
    vertex 3.8351544162651403e-13 6.822086000000027 -64.48159999999969
    vertex 2.255973186038318e-14 0.0 -55.00000000000008
    vertex 2.255973186038318e-14 6.387582999999995 -64.32469999999981
  endloop
endfacet
facet normal -0.6905843716719943 -0.7232518410639526 6.2316755671144655e-15
  outer loop
    vertex -115.07106799999994 2.928931999999996 3.3839597790574766e-14
    vertex -114.73695600000002 2.609911000000005 -4.99999999999998
    vertex -114.73695599999996 2.609911000000005 2.255973186038318e-14
  endloop
endfacet
facet normal -0.811723209524742 -0.5840423196300522 2.1977113055292082e-14
  outer loop
    vertex -116.24997500000006 4.348635999999999 1.127986593019159e-14
    vertex -115.98017200000005 3.973654 -5.000000000000002
    vertex -115.98017199999992 3.973654 2.255973186038318e-14
  endloop
endfacet
facet normal 1.0 -8.552973395093141e-13 -1.2709684087393224e-13
  outer loop
    vertex 1.3535839116229907e-13 0.6752777000000113 -58.61239999999988
    vertex 2.255973186038318e-14 0.0 -55.00000000000008
    vertex 4.511946372076636e-14 0.518393500000017 -58.17790000000005
  endloop
endfacet
facet normal 1.0 4.73958981993564e-12 1.3549635617641808e-12
  outer loop
    vertex 4.511946372076636e-14 1.497828999999985 -60.264299999999864
    vertex 2.255973186038318e-14 0.0 -55.00000000000008
    vertex 6.091127602303458e-13 1.2637760000000051 -59.86599999999991
  endloop
endfacet
facet normal 1.0 -5.883818413291819e-12 -1.4041010422957905e-12
  outer loop
    vertex 6.091127602303458e-13 1.2637760000000051 -59.86599999999991
    vertex 2.255973186038318e-14 0.0 -55.00000000000008
    vertex -6.767919558114953e-14 1.0483669999999874 -59.45739999999988
  endloop
endfacet
facet normal -1.0 -5.675404241605995e-16 -9.023892744152876e-15
  outer loop
    vertex -118.00000000000003 89.49999999999991 -1.127986593019159e-14
    vertex -117.99999999999994 10.000000000000004 -4.999999999999957
    vertex -118.00000000000003 10.000000000000004 1.127986593019159e-14
  endloop
endfacet
facet normal -1.0 -5.675404241605995e-16 -9.023892744152876e-15
  outer loop
    vertex -117.99999999999994 10.000000000000004 -4.999999999999957
    vertex -118.00000000000003 89.49999999999991 -1.127986593019159e-14
    vertex -118.00000000000003 89.49999999999991 -5.000000000000227
  endloop
endfacet
facet normal 1.0 -1.4911655393914634e-12 -4.1784689149757114e-13
  outer loop
    vertex 2.7071678232459813e-13 1.7500249999999935 -60.65139999999996
    vertex 2.255973186038318e-14 0.0 -55.00000000000008
    vertex 4.511946372076636e-14 1.497828999999985 -60.264299999999864
  endloop
endfacet
facet normal 1.0 2.6258330412122537e-13 2.2878431821008065e-13
  outer loop
    vertex 3.158362460453645e-13 7.263370000000045 -64.61830000000006
    vertex 2.255973186038318e-14 0.0 -55.00000000000008
    vertex 3.8351544162651403e-13 6.822086000000027 -64.48159999999969
  endloop
endfacet
facet normal 1.0 2.373563959288313e-13 2.4583326048750076e-13
  outer loop
    vertex 2.0303758674344862e-13 9.538165000000049 -64.98929999999993
    vertex 2.255973186038318e-14 0.0 -55.00000000000008
    vertex 3.158362460453645e-13 9.077316000000048 -64.95729999999966
  endloop
endfacet
facet normal 1.0 3.603270315297011e-13 3.129830602824879e-13
  outer loop
    vertex 0.0 8.618436000000038 -64.90409999999959
    vertex 2.255973186038318e-14 0.0 -55.00000000000008
    vertex 1.5791812302268225e-13 8.162505000000063 -64.82969999999972
  endloop
endfacet
facet normal 1.0 -3.75134364052383e-12 -6.684642102800689e-13
  outer loop
    vertex 5.188738327888131e-13 0.8520613000000008 -59.03919999999977
    vertex 2.255973186038318e-14 0.0 -55.00000000000008
    vertex 1.3535839116229907e-13 0.6752777000000113 -58.61239999999988
  endloop
endfacet
facet normal -0.02309811664116764 -0.9997332029134729 -1.9365837966887594e-19
  outer loop
    vertex -108.46183 0.010670250000002922 3.3839597790574766e-14
    vertex -108.0 0.0 -4.999999999999968
    vertex -108.0 0.0 2.255973186038318e-14
  endloop
endfacet
facet normal 1.0 1.3540289898033776e-12 6.671566353972863e-13
  outer loop
    vertex -4.511946372076636e-14 3.973654 -62.98019999999975
    vertex 2.255973186038318e-14 0.0 -55.00000000000008
    vertex 2.4815705046421497e-13 3.6115320000000217 -62.693299999999724
  endloop
endfacet
facet normal 1.0 2.5287625452196333e-12 8.269729135545658e-13
  outer loop
    vertex -1.127986593019159e-13 2.019827999999996 -61.02629999999994
    vertex 2.255973186038318e-14 0.0 -55.00000000000008
    vertex 2.7071678232459813e-13 1.7500249999999935 -60.65139999999996
  endloop
endfacet
facet normal 1.0 -1.2670299277668928e-12 -1.038361265286332e-12
  outer loop
    vertex 1.5791812302268225e-13 8.162505000000063 -64.82969999999972
    vertex 2.255973186038318e-14 0.0 -55.00000000000008
    vertex -3.158362460453645e-13 7.710495000000068 -64.73439999999964
  endloop
endfacet
facet normal -0.382683711502916 -0.923879416888564 3.4568124970529965e-15
  outer loop
    vertex -112.03921000000004 0.8520613000000008 3.3839597790574766e-14
    vertex -111.61241700000006 0.6752776999999888 -4.999999999999991
    vertex -111.61241700000001 0.6752776999999888 0.0
  endloop
endfacet
facet normal -0.4249425163477028 -0.9052203366032395 -3.832610745457682e-15
  outer loop
    vertex -112.45738399999993 1.0483670000000098 3.3839597790574766e-14
    vertex -112.03921 0.8520613000000008 -4.999999999999968
    vertex -112.03921000000004 0.8520613000000008 3.3839597790574766e-14
  endloop
endfacet
facet normal -0.4662960126118759 -0.8846287518627604 4.215970785079803e-15
  outer loop
    vertex -112.45738399999993 1.0483670000000098 3.3839597790574766e-14
    vertex -112.86604499999999 1.2637760000000051 2.255973186038318e-14
    vertex -112.45738399999998 1.0483670000000098 -4.999999999999991
  endloop
endfacet
facet normal -0.5840423196298129 -0.8117232095249143 0.0
  outer loop
    vertex -114.026346 2.019827999999996 2.255973186038318e-14
    vertex -113.65136399999996 1.7500249999999935 -4.99999999999998
    vertex -113.65136399999996 1.7500249999999935 2.255973186038318e-14
  endloop
endfacet
facet normal -0.620905301213898 -0.7838855828017751 -3.951657520614955e-18
  outer loop
    vertex -114.026346 2.019827999999996 2.255973186038318e-14
    vertex -114.38846800000003 2.3066599999999893 1.127986593019159e-14
    vertex -114.026346 2.019827999999996 -5.000000000000002
  endloop
endfacet
facet normal 1.0 7.380133355038081e-14 5.055520752021557e-14
  outer loop
    vertex 2.255973186038318e-14 6.387582999999995 -64.32469999999981
    vertex 2.255973186038318e-14 0.0 -55.00000000000008
    vertex 4.511946372076636e-14 5.960790000000018 -64.14789999999965
  endloop
endfacet
facet normal -0.2513761284604537 -0.9678894782154797 0.0
  outer loop
    vertex -110.28950999999999 0.2656195000000055 3.3839597790574766e-14
    vertex -110.73663 0.3817436000000068 2.255973186038318e-14
    vertex -110.28950999999999 0.2656195000000055 -4.999999999999957
  endloop
endfacet
facet normal 1.0 6.81729021361585e-13 4.4668210901983056e-13
  outer loop
    vertex 4.511946372076636e-14 5.960790000000018 -64.14789999999965
    vertex 2.255973186038318e-14 0.0 -55.00000000000008
    vertex 2.255973186038318e-13 5.5426160000000255 -63.95159999999987
  endloop
endfacet
facet normal 1.0 -2.257915673504681e-12 -1.1313720179113176e-12
  outer loop
    vertex 4.963141009284299e-13 4.348635999999999 -63.25000000000016
    vertex 2.255973186038318e-14 0.0 -55.00000000000008
    vertex -4.511946372076636e-14 3.973654 -62.98019999999975
  endloop
endfacet
facet normal -0.5459295197807771 -0.8378311043593037 -4.921016107732098e-15
  outer loop
    vertex -113.65136399999996 1.7500249999999935 2.255973186038318e-14
    vertex -113.26432199999992 1.4978290000000074 -4.999999999999991
    vertex -113.26432199999998 1.4978290000000074 2.255973186038318e-14
  endloop
endfacet
facet normal 1.0 5.902076240208789e-12 1.3679057374876892e-12
  outer loop
    vertex -6.767919558114953e-14 1.0483669999999874 -59.45739999999988
    vertex 2.255973186038318e-14 0.0 -55.00000000000008
    vertex 5.188738327888131e-13 0.8520613000000008 -59.03919999999977
  endloop
endfacet
facet normal -0.0230981166411699 -0.9997332029134729 -2.0837641652375036e-16
  outer loop
    vertex -108.46183 0.010670250000002922 3.3839597790574766e-14
    vertex -108.46182999999996 0.010670250000002922 -4.99999999999998
    vertex -108.0 0.0 -4.999999999999968
  endloop
endfacet
facet normal -0.3396068128430253 -0.9405674950106465 3.293372458306894e-18
  outer loop
    vertex -111.17791399999999 0.5183934999999945 3.3839597790574766e-14
    vertex -111.61241700000001 0.6752776999999888 0.0
    vertex -111.17791399999999 0.5183934999999945 -4.999999999999991
  endloop
endfacet
facet normal 1.0 4.4801439259580937e-14 5.21514951234803e-14
  outer loop
    vertex 2.4815705046421497e-13 5.133954999999984 -63.73619999999998
    vertex 2.255973186038318e-14 0.0 -55.00000000000008
    vertex 2.4815705046421497e-13 4.73567799999999 -63.50220000000005
  endloop
endfacet
facet normal -0.656447336098972 -0.7543718545442714 -5.921224440415426e-15
  outer loop
    vertex -114.73695599999996 2.609911000000005 2.255973186038318e-14
    vertex -114.38846799999999 2.3066599999999893 -4.99999999999998
    vertex -114.38846800000003 2.3066599999999893 1.127986593019159e-14
  endloop
endfacet
facet normal 1.0 -2.369278584494813e-14 1.1750372826186922e-14
  outer loop
    vertex 1.5791812302268225e-13 2.609911000000005 -61.7369999999999
    vertex 2.255973186038318e-14 0.0 -55.00000000000008
    vertex 1.3535839116229907e-13 2.3066599999999893 -61.38850000000001
  endloop
endfacet
facet normal 1.0 -1.5992545698920564e-12 -5.986216074861615e-13
  outer loop
    vertex 4.737543690680468e-13 2.9289320000000187 -62.071100000000165
    vertex 2.255973186038318e-14 0.0 -55.00000000000008
    vertex 1.5791812302268225e-13 2.609911000000005 -61.7369999999999
  endloop
endfacet
facet normal 1.0 3.9713358428167456e-14 4.9161410415617963e-14
  outer loop
    vertex 2.255973186038318e-13 5.5426160000000255 -63.95159999999987
    vertex 2.255973186038318e-14 0.0 -55.00000000000008
    vertex 2.4815705046421497e-13 5.133954999999984 -63.73619999999998
  endloop
endfacet
facet normal -0.7543718545443072 -0.6564473360989309 6.808176228990311e-15
  outer loop
    vertex -115.69334000000002 3.6115320000000217 1.127986593019159e-14
    vertex -115.390089 3.2630439999999945 -4.99999999999998
    vertex -115.39008899999996 3.2630439999999945 4.511946372076636e-14
  endloop
endfacet
facet normal 1.0 1.1060208987739906e-12 5.2193500873917e-13
  outer loop
    vertex 2.7071678232459813e-13 3.2630439999999945 -62.39009999999996
    vertex 2.255973186038318e-14 0.0 -55.00000000000008
    vertex 4.737543690680468e-13 2.9289320000000187 -62.071100000000165
  endloop
endfacet
facet normal -0.7838855828018326 -0.6209053012138253 -7.081370276944326e-15
  outer loop
    vertex -115.98017199999992 3.973654 2.255973186038318e-14
    vertex -115.69333999999998 3.6115320000000217 -4.999999999999991
    vertex -115.69334000000002 3.6115320000000217 1.127986593019159e-14
  endloop
endfacet
facet normal 1.0 -7.245683824449078e-13 -6.310806801920805e-13
  outer loop
    vertex 3.158362460453645e-13 9.077316000000048 -64.95729999999966
    vertex 2.255973186038318e-14 0.0 -55.00000000000008
    vertex 0.0 8.618436000000038 -64.90409999999959
  endloop
endfacet
facet normal -0.7232518410639515 -0.6905843716719955 6.522915387432238e-15
  outer loop
    vertex -115.39008899999996 3.2630439999999945 4.511946372076636e-14
    vertex -115.071068 2.928931999999996 -5.000000000000002
    vertex -115.07106799999994 2.928931999999996 3.3839597790574766e-14
  endloop
endfacet
facet normal 1.0 -1.5792083031550582e-12 -5.498909237471179e-13
  outer loop
    vertex 1.3535839116229907e-13 2.3066599999999893 -61.38850000000001
    vertex 2.255973186038318e-14 0.0 -55.00000000000008
    vertex -1.127986593019159e-13 2.019827999999996 -61.02629999999994
  endloop
endfacet
facet normal 1.0 1.0571369643449013e-12 6.160167387974727e-13
  outer loop
    vertex 2.4815705046421497e-13 4.73567799999999 -63.50220000000005
    vertex 2.255973186038318e-14 0.0 -55.00000000000008
    vertex 4.963141009284299e-13 4.348635999999999 -63.25000000000016
  endloop
endfacet
facet normal 1.0 1.7671755032754034e-12 1.364994442823637e-12
  outer loop
    vertex -3.158362460453645e-13 7.710495000000068 -64.73439999999964
    vertex 2.255973186038318e-14 0.0 -55.00000000000008
    vertex 3.158362460453645e-13 7.263370000000045 -64.61830000000006
  endloop
endfacet
facet normal -0.2064053384983835 -0.9784665738998793 -3.1658209598357104e-18
  outer loop
    vertex -110.28950999999999 0.2656195000000055 3.3839597790574766e-14
    vertex -109.83749999999999 0.17026899999999257 -4.999999999999968
    vertex -109.83749999999999 0.17026899999999257 3.3839597790574766e-14
  endloop
endfacet
facet normal -0.9405676333014757 -0.3396064298355683 -1.697075077285042e-14
  outer loop
    vertex -117.48160599999999 6.822086000000027 -4.999999999999968
    vertex -117.32472200000001 6.387582999999995 -4.999999999999991
    vertex -117.48160600000008 6.822086000000027 -1.127986593019159e-14
  endloop
endfacet
facet normal -0.9784667924916773 -0.20640430225905887 8.826310807840703e-15
  outer loop
    vertex -117.82973100000004 8.162505000000017 -4.999999999999991
    vertex -117.734381 7.710495000000024 -5.000000000000025
    vertex -117.829731 8.162505000000017 1.127986593019159e-14
  endloop
endfacet
facet normal -0.6564473360988753 -0.7543718545443555 5.9171181821325456e-15
  outer loop
    vertex -114.73695599999996 2.609911000000005 2.255973186038318e-14
    vertex -114.73695600000002 2.609911000000005 -4.99999999999998
    vertex -114.38846799999999 2.3066599999999893 -4.99999999999998
  endloop
endfacet
facet normal -0.9933371839681346 -0.115244257758277 1.7929366875371702e-14
  outer loop
    vertex -117.95734200000003 9.077316000000001 -5.000000000000002
    vertex -117.904104 8.618435999999994 -4.99999999999998
    vertex -117.95734199999994 9.077316000000001 3.3839597790574766e-14
  endloop
endfacet
facet normal -0.9975997247468359 -0.06924441627335233 -7.76274772251543e-19
  outer loop
    vertex -117.98932999999998 9.538165000000005 -4.99999999999998
    vertex -117.95734200000003 9.077316000000001 -5.000000000000002
    vertex -117.98932999999998 9.538165000000005 2.255973186038318e-14
  endloop
endfacet
facet normal -0.9784667924916773 -0.2064043022590589 8.831059540341235e-15
  outer loop
    vertex -117.829731 8.162505000000017 1.127986593019159e-14
    vertex -117.734381 7.710495000000024 -5.000000000000025
    vertex -117.73438099999996 7.710495000000024 1.127986593019159e-14
  endloop
endfacet
facet normal -0.06924424519700373 -0.9975997366214054 -6.256747585656868e-16
  outer loop
    vertex -108.92268000000006 0.042658239999997245 3.3839597790574766e-14
    vertex -108.92268 0.042658239999997245 -4.999999999999968
    vertex -108.46182999999996 0.010670250000002922 -4.99999999999998
  endloop
endfacet
facet normal -0.9052200867971449 -0.4249430484888175 8.16824939712886e-15
  outer loop
    vertex -117.14793899999998 5.960790000000019 4.511946372076636e-14
    vertex -116.95163300000007 5.542616000000026 -5.000000000000025
    vertex -116.95163300000002 5.542616000000026 2.255973186038318e-14
  endloop
endfacet
facet normal -0.25137612846047747 -0.9678894782154737 -2.2659341006042522e-15
  outer loop
    vertex -110.73663 0.3817436000000068 2.255973186038318e-14
    vertex -110.73662999999996 0.3817436000000068 -4.99999999999998
    vertex -110.28950999999999 0.2656195000000055 -4.999999999999957
  endloop
endfacet
facet normal -0.7838855828016424 -0.6209053012140655 2.12283042007452e-14
  outer loop
    vertex -115.98017200000005 3.973654 -5.000000000000002
    vertex -115.69333999999998 3.6115320000000217 -4.999999999999991
    vertex -115.98017199999992 3.973654 2.255973186038318e-14
  endloop
endfacet
facet normal -0.8117232095249735 -0.5840423196297304 -1.4650136659019276e-14
  outer loop
    vertex -116.24997499999998 4.348635999999999 -4.999999999999957
    vertex -115.98017200000005 3.973654 -5.000000000000002
    vertex -116.24997500000006 4.348635999999999 1.127986593019159e-14
  endloop
endfacet
facet normal -0.9552479148786053 -0.29580639127658637 -1.7241809343633724e-14
  outer loop
    vertex -117.618256 7.263370000000001 1.127986593019159e-14
    vertex -117.48160599999999 6.822086000000027 -4.999999999999968
    vertex -117.48160600000008 6.822086000000027 -1.127986593019159e-14
  endloop
endfacet
facet normal -0.4662960126118761 -0.8846287518627604 4.208967511350459e-15
  outer loop
    vertex -112.86604499999999 1.2637760000000051 2.255973186038318e-14
    vertex -112.86604500000003 1.2637760000000051 -4.999999999999991
    vertex -112.45738399999998 1.0483670000000098 -4.999999999999991
  endloop
endfacet
facet normal -0.9552479148785501 -0.29580639127676456 0.0
  outer loop
    vertex -117.618256 7.263370000000001 -4.999999999999968
    vertex -117.48160599999999 6.822086000000027 -4.999999999999968
    vertex -117.618256 7.263370000000001 1.127986593019159e-14
  endloop
endfacet
facet normal -0.8621494386463555 -0.5066540688100453 3.5929281918022374e-18
  outer loop
    vertex -116.73622399999996 5.13395500000003 -4.99999999999998
    vertex -116.50217099999998 4.735677999999991 -4.999999999999991
    vertex -116.73622399999996 5.13395500000003 3.3839597790574766e-14
  endloop
endfacet
facet normal -0.6905843716719945 -0.7232518410639525 6.22310969004618e-15
  outer loop
    vertex -115.07106799999994 2.928931999999996 3.3839597790574766e-14
    vertex -115.071068 2.928931999999996 -5.000000000000002
    vertex -114.73695600000002 2.609911000000005 -4.99999999999998
  endloop
endfacet
facet normal -0.9052200867971826 -0.42494304848873754 -1.0265918806614057e-17
  outer loop
    vertex -117.14793899999998 5.960790000000019 -4.99999999999998
    vertex -116.95163300000007 5.542616000000026 -5.000000000000025
    vertex -117.14793899999998 5.960790000000019 4.511946372076636e-14
  endloop
endfacet
facet normal -0.9869551489020197 -0.16099544731386706 1.781310972179142e-14
  outer loop
    vertex -117.904104 8.618435999999994 -4.99999999999998
    vertex -117.82973100000004 8.162505000000017 -4.999999999999991
    vertex -117.90410399999992 8.618435999999994 3.3839597790574766e-14
  endloop
endfacet
facet normal -0.8621494386463983 -0.5066540688099727 -7.77868953525223e-15
  outer loop
    vertex -116.73622399999996 5.13395500000003 3.3839597790574766e-14
    vertex -116.50217099999998 4.735677999999991 -4.999999999999991
    vertex -116.50217100000002 4.735677999999991 2.255973186038318e-14
  endloop
endfacet
facet normal -0.8846287518626788 -0.46629601261203096 0.0
  outer loop
    vertex -116.95163300000002 5.542616000000026 2.255973186038318e-14
    vertex -116.73622399999996 5.13395500000003 -4.99999999999998
    vertex -116.73622399999996 5.13395500000003 3.3839597790574766e-14
  endloop
endfacet
facet normal -0.9869551489020353 -0.1609954473137719 8.90420091282236e-15
  outer loop
    vertex -117.90410399999992 8.618435999999994 3.3839597790574766e-14
    vertex -117.82973100000004 8.162505000000017 -4.999999999999991
    vertex -117.829731 8.162505000000017 1.127986593019159e-14
  endloop
endfacet
facet normal -0.9997332211845185 -0.023097325819819967 -1.8042954535873165e-14
  outer loop
    vertex -117.99999999999994 10.000000000000004 -4.999999999999957
    vertex -117.98932999999998 9.538165000000005 -4.99999999999998
    vertex -118.00000000000003 10.000000000000004 1.127986593019159e-14
  endloop
endfacet
facet normal -0.8378311043592813 -0.5459295197808113 -7.557142692865633e-15
  outer loop
    vertex -116.50217099999998 4.735677999999991 -4.999999999999991
    vertex -116.24997499999998 4.348635999999999 -4.999999999999957
    vertex -116.50217100000002 4.735677999999991 2.255973186038318e-14
  endloop
endfacet
facet normal -0.967889688138509 -0.2513753201790902 8.733894353909027e-15
  outer loop
    vertex -117.734381 7.710495000000024 -5.000000000000025
    vertex -117.618256 7.263370000000001 -4.999999999999968
    vertex -117.73438099999996 7.710495000000024 1.127986593019159e-14
  endloop
endfacet
facet normal -0.7232518410639515 -0.6905843716719954 6.518632448898166e-15
  outer loop
    vertex -115.390089 3.2630439999999945 -4.99999999999998
    vertex -115.071068 2.928931999999996 -5.000000000000002
    vertex -115.39008899999996 3.2630439999999945 4.511946372076636e-14
  endloop
endfacet
facet normal -0.8378311043593261 -0.5459295197807424 -1.5125377082443926e-14
  outer loop
    vertex -116.50217100000002 4.735677999999991 2.255973186038318e-14
    vertex -116.24997499999998 4.348635999999999 -4.999999999999957
    vertex -116.24997500000006 4.348635999999999 1.127986593019159e-14
  endloop
endfacet
facet normal -0.11524308298587732 -0.9933373202613051 -1.0431122780584191e-15
  outer loop
    vertex -109.38156000000002 0.09589569000000732 1.127986593019159e-14
    vertex -109.38155999999996 0.09589569000000732 -4.999999999999968
    vertex -108.92268 0.042658239999997245 -4.999999999999968
  endloop
endfacet
facet normal -0.20640533849838347 -0.9784665738998793 0.0
  outer loop
    vertex -110.28950999999999 0.2656195000000055 3.3839597790574766e-14
    vertex -110.28950999999999 0.2656195000000055 -4.999999999999957
    vertex -109.83749999999999 0.17026899999999257 -4.999999999999968
  endloop
endfacet
facet normal -0.2958061937480062 -0.9552479760461768 -3.242770443422563e-18
  outer loop
    vertex -111.17791399999999 0.5183934999999945 3.3839597790574766e-14
    vertex -111.17791399999999 0.5183934999999945 -4.999999999999991
    vertex -110.73662999999996 0.3817436000000068 -4.99999999999998
  endloop
endfacet
facet normal -0.5066540688102095 -0.8621494386462591 -4.573797588166839e-15
  outer loop
    vertex -113.26432199999998 1.4978290000000074 2.255973186038318e-14
    vertex -113.26432199999992 1.4978290000000074 -4.999999999999991
    vertex -112.86604500000003 1.2637760000000051 -4.999999999999991
  endloop
endfacet
facet normal -0.999733221184514 -0.023097325820015207 0.0
  outer loop
    vertex -118.00000000000003 10.000000000000004 1.127986593019159e-14
    vertex -117.98932999999998 9.538165000000005 -4.99999999999998
    vertex -117.98932999999998 9.538165000000005 2.255973186038318e-14
  endloop
endfacet
facet normal -0.9975997247468225 -0.06924441627354674 1.8004140792829477e-14
  outer loop
    vertex -117.98932999999998 9.538165000000005 2.255973186038318e-14
    vertex -117.95734200000003 9.077316000000001 -5.000000000000002
    vertex -117.95734199999994 9.077316000000001 3.3839597790574766e-14
  endloop
endfacet
facet normal -0.9933371839681346 -0.11524425775827694 1.7926248453443827e-14
  outer loop
    vertex -117.95734199999994 9.077316000000001 3.3839597790574766e-14
    vertex -117.904104 8.618435999999994 -4.99999999999998
    vertex -117.90410399999992 8.618435999999994 3.3839597790574766e-14
  endloop
endfacet
facet normal -0.5840423196298128 -0.8117232095249142 3.8161335397276406e-18
  outer loop
    vertex -114.026346 2.019827999999996 2.255973186038318e-14
    vertex -114.026346 2.019827999999996 -5.000000000000002
    vertex -113.65136399999996 1.7500249999999935 -4.99999999999998
  endloop
endfacet
facet normal -0.6209053012139455 -0.7838855828017376 -5.603450364233195e-15
  outer loop
    vertex -114.38846800000003 2.3066599999999893 1.127986593019159e-14
    vertex -114.38846799999999 2.3066599999999893 -4.99999999999998
    vertex -114.026346 2.019827999999996 -5.000000000000002
  endloop
endfacet
facet normal -0.7543718545444039 -0.6564473360988197 -6.81638874555215e-15
  outer loop
    vertex -115.69333999999998 3.6115320000000217 -4.999999999999991
    vertex -115.390089 3.2630439999999945 -4.99999999999998
    vertex -115.69334000000002 3.6115320000000217 1.127986593019159e-14
  endloop
endfacet
facet normal -0.1609930053752615 -0.9869555472361667 0.0
  outer loop
    vertex -109.83749999999999 0.17026899999999257 3.3839597790574766e-14
    vertex -109.83749999999999 0.17026899999999257 -4.999999999999968
    vertex -109.38155999999996 0.09589569000000732 -4.999999999999968
  endloop
endfacet
facet normal -0.8846287518626385 -0.46629601261210746 7.987233688345313e-15
  outer loop
    vertex -116.95163300000007 5.542616000000026 -5.000000000000025
    vertex -116.73622399999996 5.13395500000003 -4.99999999999998
    vertex -116.95163300000002 5.542616000000026 2.255973186038318e-14
  endloop
endfacet
facet normal -0.3396068128429941 -0.9405674950106577 3.0595430137665508e-15
  outer loop
    vertex -111.61241700000001 0.6752776999999888 0.0
    vertex -111.61241700000006 0.6752776999999888 -4.999999999999991
    vertex -111.17791399999999 0.5183934999999945 -4.999999999999991
  endloop
endfacet
facet normal -0.940567633301382 -0.3396064298358275 8.493608818780426e-15
  outer loop
    vertex -117.48160600000008 6.822086000000027 -1.127986593019159e-14
    vertex -117.32472200000001 6.387582999999995 -4.999999999999991
    vertex -117.32472199999997 6.387582999999995 4.511946372076636e-14
  endloop
endfacet
facet normal -0.38268371150298514 -0.9238794168885354 -3.4534596236333265e-15
  outer loop
    vertex -112.03921000000004 0.8520613000000008 3.3839597790574766e-14
    vertex -112.03921 0.8520613000000008 -4.999999999999968
    vertex -111.61241700000006 0.6752776999999888 -4.999999999999991
  endloop
endfacet
facet normal -0.9678896881385326 -0.2513753201789989 3.2004010091276725e-18
  outer loop
    vertex -117.73438099999996 7.710495000000024 1.127986593019159e-14
    vertex -117.618256 7.263370000000001 -4.999999999999968
    vertex -117.618256 7.263370000000001 1.127986593019159e-14
  endloop
endfacet
facet normal -0.5459295197807323 -0.8378311043593327 0.0
  outer loop
    vertex -113.65136399999996 1.7500249999999935 2.255973186038318e-14
    vertex -113.65136399999996 1.7500249999999935 -4.99999999999998
    vertex -113.26432199999992 1.4978290000000074 -4.999999999999991
  endloop
endfacet
facet normal -0.42494251634762775 -0.9052203366032749 3.842876667095765e-15
  outer loop
    vertex -112.45738399999993 1.0483670000000098 3.3839597790574766e-14
    vertex -112.45738399999998 1.0483670000000098 -4.999999999999991
    vertex -112.03921 0.8520613000000008 -4.999999999999968
  endloop
endfacet
facet normal -0.923879876090929 -0.38268260288940464 0.0
  outer loop
    vertex -117.32472199999997 6.387582999999995 4.511946372076636e-14
    vertex -117.14793899999998 5.960790000000019 -4.99999999999998
    vertex -117.14793899999998 5.960790000000019 4.511946372076636e-14
  endloop
endfacet
facet normal -0.9238798760908945 -0.3826826028894881 8.335247467537463e-15
  outer loop
    vertex -117.32472200000001 6.387582999999995 -4.999999999999991
    vertex -117.14793899999998 5.960790000000019 -4.99999999999998
    vertex -117.32472199999997 6.387582999999995 4.511946372076636e-14
  endloop
endfacet
facet normal 1.432367860665561e-13 2.4719684414985695e-13 -1.0
  outer loop
    vertex -111.61241700000006 0.6752776999999888 -4.999999999999991
    vertex -114.026346 2.019827999999996 -5.000000000000002
    vertex -114.38846799999999 2.3066599999999893 -4.99999999999998
  endloop
endfacet
facet normal 1.4088517444485392e-14 3.0007703653747024e-14 -1.0
  outer loop
    vertex -111.61241700000006 0.6752776999999888 -4.999999999999991
    vertex -113.26432199999992 1.4978290000000074 -4.999999999999991
    vertex -113.65136399999996 1.7500249999999935 -4.99999999999998
  endloop
endfacet
facet normal -5.5357518497717805e-14 -1.200936598209475e-13 -1.0
  outer loop
    vertex -111.61241700000006 0.6752776999999888 -4.999999999999991
    vertex -112.86604500000003 1.2637760000000051 -4.999999999999991
    vertex -113.26432199999992 1.4978290000000074 -4.999999999999991
  endloop
endfacet
facet normal -5.5357518497717805e-14 -1.200936598209475e-13 -1.0
  outer loop
    vertex -112.86604500000003 1.2637760000000051 -4.999999999999991
    vertex -111.61241700000006 0.6752776999999888 -4.999999999999991
    vertex -112.45738399999998 1.0483670000000098 -4.999999999999991
  endloop
endfacet
facet normal -5.5357518497717805e-14 -1.200936598209475e-13 -1.0
  outer loop
    vertex -112.45738399999998 1.0483670000000098 -4.999999999999991
    vertex -111.61241700000006 0.6752776999999888 -4.999999999999991
    vertex -112.03921 0.8520613000000008 -4.999999999999968
  endloop
endfacet
facet normal 1.7473852789347708e-13 2.4041012075270135e-13 -1.0
  outer loop
    vertex -111.17791399999999 0.5183934999999945 -4.999999999999991
    vertex -115.98017200000005 3.973654 -5.000000000000002
    vertex -116.24997499999998 4.348635999999999 -4.999999999999957
  endloop
endfacet
facet normal 4.760888654858875e-14 6.160999383709192e-14 -1.0
  outer loop
    vertex -111.17791399999999 0.5183934999999945 -4.999999999999991
    vertex -116.50217099999998 4.735677999999991 -4.999999999999991
    vertex -116.73622399999996 5.13395500000003 -4.99999999999998
  endloop
endfacet
facet normal -1.6681758723560183e-13 -1.966140193191389e-13 -1.0
  outer loop
    vertex -111.17791399999999 0.5183934999999945 -4.999999999999991
    vertex -116.73622399999996 5.13395500000003 -4.99999999999998
    vertex -116.95163300000007 5.542616000000026 -5.000000000000025
  endloop
endfacet
facet normal 1.2627384464920816e-13 1.401997999355915e-13 -1.0
  outer loop
    vertex -111.17791399999999 0.5183934999999945 -4.999999999999991
    vertex -116.95163300000007 5.542616000000026 -5.000000000000025
    vertex -117.14793899999998 5.960790000000019 -4.99999999999998
  endloop
endfacet
facet normal -1.4563705196030195e-14 -1.42916439558656e-14 -1.0
  outer loop
    vertex -111.17791399999999 0.5183934999999945 -4.999999999999991
    vertex -117.14793899999998 5.960790000000019 -4.99999999999998
    vertex -117.32472200000001 6.387582999999995 -4.999999999999991
  endloop
endfacet
facet normal 1.0014450807152161e-13 1.4837237700353715e-13 -1.0
  outer loop
    vertex -111.61241700000006 0.6752776999999888 -4.999999999999991
    vertex -115.071068 2.928931999999996 -5.000000000000002
    vertex -115.390089 3.2630439999999945 -4.99999999999998
  endloop
endfacet
facet normal -1.205789533173373e-13 -1.903687602046067e-13 -1.0
  outer loop
    vertex -111.61241700000006 0.6752776999999888 -4.999999999999991
    vertex -114.73695600000002 2.609911000000005 -4.99999999999998
    vertex -115.071068 2.928931999999996 -5.000000000000002
  endloop
endfacet
facet normal -1.30082568941569e-13 -2.4350515287873395e-13 -1.0
  outer loop
    vertex -111.61241700000006 0.6752776999999888 -4.999999999999991
    vertex -113.65136399999996 1.7500249999999935 -4.99999999999998
    vertex -114.026346 2.019827999999996 -5.000000000000002
  endloop
endfacet
facet normal -1.2173127700076755e-13 -1.5217936544346056e-13 -1.0
  outer loop
    vertex -111.17791399999999 0.5183934999999945 -4.999999999999991
    vertex -116.24997499999998 4.348635999999999 -4.999999999999957
    vertex -116.50217099999998 4.735677999999991 -4.999999999999991
  endloop
endfacet
facet normal 8.371750431147201e-14 8.863836449766812e-14 -1.0
  outer loop
    vertex -111.17791399999999 0.5183934999999945 -4.999999999999991
    vertex -117.32472200000001 6.387582999999995 -4.999999999999991
    vertex -117.48160599999999 6.822086000000027 -4.999999999999968
  endloop
endfacet
facet normal -2.7829966368023864e-14 -4.112760183442574e-14 -1.0
  outer loop
    vertex -111.17791399999999 0.5183934999999945 -4.999999999999991
    vertex -111.61241700000006 0.6752776999999888 -4.999999999999991
    vertex -115.98017200000005 3.973654 -5.000000000000002
  endloop
endfacet
facet normal -6.513841478511473e-14 -9.053195940150863e-14 -1.0
  outer loop
    vertex -111.61241700000006 0.6752776999999888 -4.999999999999991
    vertex -115.69333999999998 3.6115320000000217 -4.999999999999991
    vertex -115.98017200000005 3.973654 -5.000000000000002
  endloop
endfacet
facet normal -3.1144109671191824e-14 -4.3285322211936974e-14 -1.0
  outer loop
    vertex -111.61241700000006 0.6752776999999888 -4.999999999999991
    vertex -115.390089 3.2630439999999945 -4.99999999999998
    vertex -115.69333999999998 3.6115320000000217 -4.999999999999991
  endloop
endfacet
facet normal 1.0574035761314771e-14 2.1450518075578426e-14 -1.0
  outer loop
    vertex -111.61241700000006 0.6752776999999888 -4.999999999999991
    vertex -114.38846799999999 2.3066599999999893 -4.99999999999998
    vertex -114.73695600000002 2.609911000000005 -4.99999999999998
  endloop
endfacet
facet normal -1.0 1.5749918093846241e-12 6.260571730087405e-13
  outer loop
    vertex -4.9999999999999005 2.609911000000005 -61.736999999999526
    vertex -5.000000000000171 2.3066599999999893 -61.38849999999984
    vertex -4.99999999999981 0.0 -54.999999999999865
  endloop
endfacet
facet normal -1.0 -6.447649817124802e-13 2.6195719374951034e-14
  outer loop
    vertex -5.0000000000000355 0.2656195000000055 -57.28949999999972
    vertex -4.999999999999968 0.17026900000001513 -56.8374999999998
    vertex -4.99999999999981 0.0 -54.999999999999865
  endloop
endfacet
facet normal 1.936538991117739e-19 -0.02316223196353199 -0.9997317195180254
  outer loop
    vertex 2.0303758674344862e-13 9.538165000000049 -64.98929999999993
    vertex -4.99999999999972 9.538165000000049 -64.98929999999993
    vertex -4.99999999999981 10.00000000000005 -64.99999999999996
  endloop
endfacet
facet normal 8.167527446121006e-14 -0.20630067481533146 -0.9784886466233214
  outer loop
    vertex 1.5791812302268225e-13 8.162505000000063 -64.82969999999972
    vertex -3.158362460453645e-13 7.710495000000068 -64.73439999999964
    vertex -4.99999999999972 8.162505000000063 -64.82970000000014
  endloop
endfacet
facet normal -3.4264583924084935e-14 -0.6905605914272986 -0.7232745464673698
  outer loop
    vertex 4.737543690680468e-13 2.9289320000000187 -62.071100000000165
    vertex -4.9999999999999005 3.2630439999999945 -62.39009999999972
    vertex 2.7071678232459813e-13 3.2630439999999945 -62.39009999999996
  endloop
endfacet
facet normal -1.0 2.8999642982809997e-12 1.4192698278166984e-12
  outer loop
    vertex -4.999999999999607 3.973654 -62.98020000000009
    vertex -5.000000000000239 3.6115320000000217 -62.69329999999973
    vertex -4.99999999999981 0.0 -54.999999999999865
  endloop
endfacet
facet normal 4.148736260932069e-14 -0.2513246213985885 -0.9679028539470561
  outer loop
    vertex 3.158362460453645e-13 7.263370000000045 -64.61830000000006
    vertex -4.999999999999788 7.710495000000068 -64.73439999999987
    vertex -3.158362460453645e-13 7.710495000000068 -64.73439999999964
  endloop
endfacet
facet normal -4.0596635140291924e-14 -0.02316223196397127 -0.9997317195180152
  outer loop
    vertex 3.8351544162651403e-13 10.00000000000005 -65.00000000000016
    vertex 2.0303758674344862e-13 9.538165000000049 -64.98929999999993
    vertex -4.99999999999981 10.00000000000005 -64.99999999999996
  endloop
endfacet
facet normal 2.084117803187231e-14 -0.38271401296532453 -0.923866865018969
  outer loop
    vertex 4.511946372076636e-14 5.960790000000018 -64.14789999999965
    vertex -4.9999999999999005 6.387582999999995 -64.32469999999992
    vertex 2.255973186038318e-14 6.387582999999995 -64.32469999999981
  endloop
endfacet
facet normal -1.6840350605723474e-14 -0.8846000356477208 -0.46635048722184375
  outer loop
    vertex -6.767919558114953e-14 1.0483669999999874 -59.45739999999988
    vertex -5.000000000000217 1.2637760000000051 -59.86599999999972
    vertex 6.091127602303458e-13 1.2637760000000051 -59.86599999999991
  endloop
endfacet
facet normal 9.587286237470878e-15 -0.9052304990389096 -0.4249208674680107
  outer loop
    vertex 5.188738327888131e-13 0.8520613000000008 -59.03919999999977
    vertex -4.999999999999968 1.0483669999999874 -59.45739999999999
    vertex -6.767919558114953e-14 1.0483669999999874 -59.45739999999988
  endloop
endfacet
facet normal 6.365356348557585e-14 -0.3396370698966516 -0.9405565696713927
  outer loop
    vertex 3.8351544162651403e-13 6.822086000000027 -64.48159999999969
    vertex 2.255973186038318e-14 6.387582999999995 -64.32469999999981
    vertex -5.000000000000059 6.822086000000027 -64.48160000000001
  endloop
endfacet
facet normal -1.0 -7.600073523931128e-13 -6.397105515348214e-13
  outer loop
    vertex -5.000000000000013 8.618436000000038 -64.90409999999969
    vertex -4.99999999999972 8.162505000000063 -64.82970000000014
    vertex -4.99999999999981 0.0 -54.999999999999865
  endloop
endfacet
facet normal -1.0 1.4253953876294003e-13 1.1174500071948658e-13
  outer loop
    vertex -4.999999999999788 7.710495000000068 -64.73439999999987
    vertex -4.999999999999833 7.263370000000045 -64.61830000000003
    vertex -4.99999999999981 0.0 -54.999999999999865
  endloop
endfacet
facet normal -1.0 -2.694494413436845e-13 -8.84786009455172e-14
  outer loop
    vertex -4.999999999999968 2.9289320000000187 -62.07110000000009
    vertex -4.9999999999999005 2.609911000000005 -61.736999999999526
    vertex -4.99999999999981 0.0 -54.999999999999865
  endloop
endfacet
facet normal -1.0 3.858478147751689e-13 1.723749458898726e-13
  outer loop
    vertex -5.000000000000059 2.019827999999996 -61.02629999999965
    vertex -5.000000000000104 1.7500249999999935 -60.651399999999654
    vertex -4.99999999999981 0.0 -54.999999999999865
  endloop
endfacet
facet normal -1.0 -2.106062307008391e-12 -1.433387051266738e-13
  outer loop
    vertex -5.000000000000217 0.38174359999998425 -57.7365999999999
    vertex -5.0000000000000355 0.2656195000000055 -57.28949999999972
    vertex -4.99999999999981 0.0 -54.999999999999865
  endloop
endfacet
facet normal -4.306260978176303e-15 -0.29590515086316904 -0.9552173269432698
  outer loop
    vertex 3.8351544162651403e-13 6.822086000000027 -64.48159999999969
    vertex -4.999999999999833 7.263370000000045 -64.61830000000003
    vertex 3.158362460453645e-13 7.263370000000045 -64.61830000000006
  endloop
endfacet
facet normal -7.325096112229665e-14 -0.5840380406806072 -0.8117262882511306
  outer loop
    vertex 4.963141009284299e-13 4.348635999999999 -63.25000000000016
    vertex -4.511946372076636e-14 3.973654 -62.98019999999975
    vertex -4.99999999999981 4.348635999999999 -63.249999999999716
  endloop
endfacet
facet normal -1.0 1.4099265266345859e-12 3.4712619106370777e-13
  outer loop
    vertex -5.000000000000171 0.518393500000017 -58.17789999999969
    vertex -5.000000000000217 0.38174359999998425 -57.7365999999999
    vertex -4.99999999999981 0.0 -54.999999999999865
  endloop
endfacet
facet normal -2.1013577788516962e-14 -1.6092709295198774e-14 -1.0
  outer loop
    vertex -111.17791399999999 0.5183934999999945 -4.999999999999991
    vertex -117.48160599999999 6.822086000000027 -4.999999999999968
    vertex -117.618256 7.263370000000001 -4.999999999999968
  endloop
endfacet
facet normal 0.0 -0.06927026805016068 -0.9975979300120159
  outer loop
    vertex 3.158362460453645e-13 9.077316000000048 -64.95729999999966
    vertex -4.99999999999972 9.538165000000049 -64.98929999999993
    vertex 2.0303758674344862e-13 9.538165000000049 -64.98929999999993
  endloop
endfacet
facet normal -1.0909241211642533e-14 -0.723239452400911 -0.6905973461365388
  outer loop
    vertex 1.5791812302268225e-13 2.609911000000005 -61.7369999999999
    vertex -4.999999999999968 2.9289320000000187 -62.07110000000009
    vertex 4.737543690680468e-13 2.9289320000000187 -62.071100000000165
  endloop
endfacet
facet normal -3.426222630143633e-14 -0.8116626484048833 -0.5841264804683748
  outer loop
    vertex 2.7071678232459813e-13 1.7500249999999935 -60.65139999999996
    vertex -5.000000000000059 2.019827999999996 -61.02629999999965
    vertex -1.127986593019159e-13 2.019827999999996 -61.02629999999994
  endloop
endfacet
facet normal 3.267317791731504e-14 -0.4249324055790957 -0.9052250828875453
  outer loop
    vertex 2.255973186038318e-13 5.5426160000000255 -63.95159999999987
    vertex -4.999999999999833 5.960790000000018 -64.14789999999984
    vertex 4.511946372076636e-14 5.960790000000018 -64.14789999999965
  endloop
endfacet
facet normal -4.8870045549053876e-14 -0.7543830480443908 -0.6564344726042765
  outer loop
    vertex 1.3535839116229907e-13 2.3066599999999893 -61.38850000000001
    vertex -4.9999999999999005 2.609911000000005 -61.736999999999526
    vertex 1.5791812302268225e-13 2.609911000000005 -61.7369999999999
  endloop
endfacet
facet normal 3.361378850325696e-14 -0.11516309052937819 -0.9933465974068278
  outer loop
    vertex 3.158362460453645e-13 9.077316000000048 -64.95729999999966
    vertex 0.0 8.618436000000038 -64.90409999999959
    vertex -4.999999999999833 9.077316000000048 -64.95729999999983
  endloop
endfacet
facet normal 1.708327243914087e-15 -0.6563845033599205 -0.7544265264086031
  outer loop
    vertex 2.7071678232459813e-13 3.2630439999999945 -62.39009999999996
    vertex -5.000000000000239 3.6115320000000217 -62.69329999999973
    vertex 2.4815705046421497e-13 3.6115320000000217 -62.693299999999724
  endloop
endfacet
facet normal -2.101550907921496e-14 -0.7839506642018154 -0.62082312786939
  outer loop
    vertex -1.127986593019159e-13 2.019827999999996 -61.02629999999994
    vertex -5.000000000000171 2.3066599999999893 -61.38849999999984
    vertex 1.3535839116229907e-13 2.3066599999999893 -61.38850000000001
  endloop
endfacet
facet normal -1.0 2.5466749057454003e-12 7.460217287577919e-13
  outer loop
    vertex -4.999999999999923 1.497828999999985 -60.264299999999814
    vertex -5.000000000000217 1.2637760000000051 -59.86599999999972
    vertex -4.99999999999981 0.0 -54.999999999999865
  endloop
endfacet
facet normal -4.573337161532847e-15 -0.862162218334734 -0.5066323215865036
  outer loop
    vertex 6.091127602303458e-13 1.2637760000000051 -59.86599999999991
    vertex -4.999999999999923 1.497828999999985 -60.264299999999814
    vertex 4.511946372076636e-14 1.497828999999985 -60.264299999999864
  endloop
endfacet
facet normal -7.660484020288168e-15 -0.940566746021994 -0.33960888721822036
  outer loop
    vertex 4.511946372076636e-14 0.518393500000017 -58.17790000000005
    vertex -4.99999999999981 0.6752777000000113 -58.61239999999977
    vertex 1.3535839116229907e-13 0.6752777000000113 -58.61239999999988
  endloop
endfacet
facet normal -2.1348920173468043e-14 -0.9552510065225616 -0.2957964072426051
  outer loop
    vertex 1.127986593019159e-13 0.38174359999998425 -57.73659999999979
    vertex -5.000000000000171 0.518393500000017 -58.17789999999969
    vertex 4.511946372076636e-14 0.518393500000017 -58.17790000000005
  endloop
endfacet
facet normal 5.671727553940358e-15 -0.9678867422725304 -0.25138666259980597
  outer loop
    vertex -4.511946372076636e-14 0.2656195000000055 -57.28950000000005
    vertex -5.000000000000217 0.38174359999998425 -57.7365999999999
    vertex 1.127986593019159e-13 0.38174359999998425 -57.73659999999979
  endloop
endfacet
facet normal -1.0 -1.2517828529497858e-12 -3.3473738190243765e-13
  outer loop
    vertex -5.000000000000104 1.7500249999999935 -60.651399999999654
    vertex -4.999999999999923 1.497828999999985 -60.264299999999814
    vertex -4.99999999999981 0.0 -54.999999999999865
  endloop
endfacet
facet normal -1.0 -4.773813552168388e-13 -3.1552267662908085e-13
  outer loop
    vertex -5.000000000000059 6.822086000000027 -64.48160000000001
    vertex -4.9999999999999005 6.387582999999995 -64.32469999999992
    vertex -4.99999999999981 0.0 -54.999999999999865
  endloop
endfacet
facet normal -1.0 -3.6125510893456865e-12 -3.225386280580969e-13
  outer loop
    vertex -4.999999999999968 0.17026900000001513 -56.8374999999998
    vertex -4.999999999999855 0.010670250000002922 -55.46180000000009
    vertex -4.99999999999981 0.0 -54.999999999999865
  endloop
endfacet
facet normal -1.0 -3.6125510893456865e-12 -3.225386280580969e-13
  outer loop
    vertex -4.999999999999855 0.010670250000002922 -55.46180000000009
    vertex -4.999999999999968 0.17026900000001513 -56.8374999999998
    vertex -4.9999999999997655 0.042658240000019804 -55.92269999999994
  endloop
endfacet
facet normal -1.0 -3.6125510893456865e-12 -3.225386280580969e-13
  outer loop
    vertex -4.9999999999997655 0.042658240000019804 -55.92269999999994
    vertex -4.999999999999968 0.17026900000001513 -56.8374999999998
    vertex -4.999999999999607 0.09589569000000732 -56.38159999999992
  endloop
endfacet
facet normal 2.0041325281922618e-14 -0.16105237856932889 -0.9869458603982093
  outer loop
    vertex 1.5791812302268225e-13 8.162505000000063 -64.82969999999972
    vertex -5.000000000000013 8.618436000000038 -64.90409999999969
    vertex 0.0 8.618436000000038 -64.90409999999959
  endloop
endfacet
facet normal -1.0 1.3809697367652352e-13 9.306690328346029e-14
  outer loop
    vertex -4.999999999999833 5.960790000000018 -64.14789999999984
    vertex -4.999999999999878 5.5426160000000255 -63.95159999999994
    vertex -4.99999999999981 0.0 -54.999999999999865
  endloop
endfacet
facet normal -1.0 3.9953640407825056e-13 1.8862313007275495e-13
  outer loop
    vertex -4.9999999999999005 3.2630439999999945 -62.39009999999972
    vertex -4.999999999999968 2.9289320000000187 -62.07110000000009
    vertex -4.99999999999981 0.0 -54.999999999999865
  endloop
endfacet
facet normal -3.1120159866892256e-14 -0.5065687831218955 -0.8621995522884491
  outer loop
    vertex 2.4815705046421497e-13 4.73567799999999 -63.50220000000005
    vertex -4.999999999999607 5.133954999999984 -63.7361999999998
    vertex 2.4815705046421497e-13 5.133954999999984 -63.73619999999998
  endloop
endfacet
facet normal -1.0 -2.5165798067864125e-13 -1.6089820721957685e-13
  outer loop
    vertex -4.9999999999999005 6.387582999999995 -64.32469999999992
    vertex -4.999999999999833 5.960790000000018 -64.14789999999984
    vertex -4.99999999999981 0.0 -54.999999999999865
  endloop
endfacet
facet normal -1.0 2.7457847290834665e-13 2.531444498219404e-13
  outer loop
    vertex -4.99999999999972 9.538165000000049 -64.98929999999993
    vertex -4.999999999999833 9.077316000000048 -64.95729999999983
    vertex -4.99999999999981 0.0 -54.999999999999865
  endloop
endfacet
facet normal -1.0 4.350816355307889e-13 2.343778473813915e-13
  outer loop
    vertex -4.999999999999607 5.133954999999984 -63.7361999999998
    vertex -4.999999999999742 4.73567799999999 -63.50219999999969
    vertex -4.99999999999981 0.0 -54.999999999999865
  endloop
endfacet
facet normal -1.0 4.723009063272443e-12 8.875712812039641e-13
  outer loop
    vertex -4.99999999999981 0.6752777000000113 -58.61239999999977
    vertex -5.000000000000171 0.518393500000017 -58.17789999999969
    vertex -4.99999999999981 0.0 -54.999999999999865
  endloop
endfacet
facet normal 1.1975706869011639e-14 -0.4662807661739233 -0.8846367882336
  outer loop
    vertex 2.4815705046421497e-13 5.133954999999984 -63.73619999999998
    vertex -4.999999999999878 5.5426160000000255 -63.95159999999994
    vertex 2.255973186038318e-13 5.5426160000000255 -63.95159999999987
  endloop
endfacet
facet normal 5.3058007489753384e-14 -0.6209957395355729 -0.7838139393240384
  outer loop
    vertex 2.4815705046421497e-13 3.6115320000000217 -62.693299999999724
    vertex -4.999999999999607 3.973654 -62.98020000000009
    vertex -4.511946372076636e-14 3.973654 -62.98019999999975
  endloop
endfacet
facet normal 6.048399773473494e-15 -0.9238816359374704 -0.38267835420559615
  outer loop
    vertex 1.3535839116229907e-13 0.6752777000000113 -58.61239999999988
    vertex -4.99999999999981 0.8520613000000008 -59.039199999999845
    vertex 5.188738327888131e-13 0.8520613000000008 -59.03919999999977
  endloop
endfacet
facet normal -1.0 -1.4610247667313868e-12 -3.082003025533144e-13
  outer loop
    vertex -4.999999999999968 1.0483669999999874 -59.45739999999999
    vertex -4.99999999999981 0.8520613000000008 -59.039199999999845
    vertex -4.99999999999981 0.0 -54.999999999999865
  endloop
endfacet
facet normal -6.047903904419291e-14 -0.5459355978864194 -0.8378271438431665
  outer loop
    vertex 4.963141009284299e-13 4.348635999999999 -63.25000000000016
    vertex -4.999999999999742 4.73567799999999 -63.50219999999969
    vertex 2.4815705046421497e-13 4.73567799999999 -63.50220000000005
  endloop
endfacet
facet normal -3.325181984098663e-14 -0.8378685180896439 -0.5458720971017516
  outer loop
    vertex 4.511946372076636e-14 1.497828999999985 -60.264299999999864
    vertex -5.000000000000104 1.7500249999999935 -60.651399999999654
    vertex 2.7071678232459813e-13 1.7500249999999935 -60.65139999999996
  endloop
endfacet
facet normal -1.0 4.5389086070352087e-13 4.166099682587997e-13
  outer loop
    vertex -4.999999999999833 9.077316000000048 -64.95729999999983
    vertex -5.000000000000013 8.618436000000038 -64.90409999999969
    vertex -4.99999999999981 0.0 -54.999999999999865
  endloop
endfacet
facet normal -1.0 -2.125147143944509e-13 -2.1195072109794097e-13
  outer loop
    vertex -4.99999999999981 10.00000000000005 -64.99999999999996
    vertex -4.99999999999972 9.538165000000049 -64.98929999999993
    vertex -4.99999999999981 0.0 -54.999999999999865
  endloop
endfacet
facet normal -1.0 -1.6383659997435142e-12 -7.111976046096327e-13
  outer loop
    vertex -5.000000000000239 3.6115320000000217 -62.69329999999973
    vertex -4.9999999999999005 3.2630439999999945 -62.39009999999972
    vertex -4.99999999999981 0.0 -54.999999999999865
  endloop
endfacet
facet normal -1.0 -2.0059170369635127e-12 -4.3635731665714665e-13
  outer loop
    vertex -5.000000000000217 1.2637760000000051 -59.86599999999972
    vertex -4.999999999999968 1.0483669999999874 -59.45739999999999
    vertex -4.99999999999981 0.0 -54.999999999999865
  endloop
endfacet
facet normal -1.0 -9.160085395453703e-13 -5.596099459135376e-13
  outer loop
    vertex -4.999999999999878 5.5426160000000255 -63.95159999999994
    vertex -4.999999999999607 5.133954999999984 -63.7361999999998
    vertex -4.99999999999981 0.0 -54.999999999999865
  endloop
endfacet
facet normal -1.0 1.9503870843885905e-13 4.114303215060807e-14
  outer loop
    vertex -4.99999999999981 0.8520613000000008 -59.039199999999845
    vertex -4.99999999999981 0.6752777000000113 -58.61239999999977
    vertex -4.99999999999981 0.0 -54.999999999999865
  endloop
endfacet
facet normal -1.0 -5.5348851850287e-13 -1.4246132634555945e-13
  outer loop
    vertex -5.000000000000171 2.3066599999999893 -61.38849999999984
    vertex -5.000000000000059 2.019827999999996 -61.02629999999965
    vertex -4.99999999999981 0.0 -54.999999999999865
  endloop
endfacet
facet normal -1.0 6.690020188858874e-13 5.09309204814863e-13
  outer loop
    vertex -4.999999999999833 7.263370000000045 -64.61830000000003
    vertex -5.000000000000059 6.822086000000027 -64.48160000000001
    vertex -4.99999999999981 0.0 -54.999999999999865
  endloop
endfacet
facet normal -1.0 1.9443298042299386e-13 1.5284913887413928e-13
  outer loop
    vertex -4.99999999999972 8.162505000000063 -64.82970000000014
    vertex -4.999999999999788 7.710495000000068 -64.73439999999987
    vertex -4.99999999999981 0.0 -54.999999999999865
  endloop
endfacet
facet normal -1.0 2.8921662529068267e-13 1.531318498791137e-13
  outer loop
    vertex -4.999999999999742 4.73567799999999 -63.50219999999969
    vertex -4.99999999999981 4.348635999999999 -63.249999999999716
    vertex -4.99999999999981 0.0 -54.999999999999865
  endloop
endfacet
facet normal -1.0 -8.714805014650755e-13 -4.586801877580684e-13
  outer loop
    vertex -4.99999999999981 4.348635999999999 -63.249999999999716
    vertex -4.999999999999607 3.973654 -62.98020000000009
    vertex -4.99999999999981 0.0 -54.999999999999865
  endloop
endfacet
facet normal 1.09352969100955e-15 -0.9976002554976312 -0.06923676935748023
  outer loop
    vertex 1.5791812302268225e-13 0.010670250000002922 -55.46179999999972
    vertex -4.9999999999997655 0.042658240000019804 -55.92269999999994
    vertex 2.7071678232459813e-13 0.042658240000019804 -55.922699999999864
  endloop
endfacet
facet normal -6.902701476695337e-15 -0.9869533027363183 -0.16100676450967277
  outer loop
    vertex 6.31672492090729e-13 0.09589569000000732 -56.381600000000134
    vertex -4.999999999999968 0.17026900000001513 -56.8374999999998
    vertex 4.0607517348689725e-13 0.17026900000001513 -56.83750000000001
  endloop
endfacet
facet normal 2.0167025721362744e-14 -0.1151630905295228 -0.993346597406811
  outer loop
    vertex 0.0 8.618436000000038 -64.90409999999959
    vertex -5.000000000000013 8.618436000000038 -64.90409999999969
    vertex -4.999999999999833 9.077316000000048 -64.95729999999983
  endloop
endfacet
facet normal 1.7622781754848592e-15 -0.6209957395360078 -0.7838139393236936
  outer loop
    vertex 2.4815705046421497e-13 3.6115320000000217 -62.693299999999724
    vertex -5.000000000000239 3.6115320000000217 -62.69329999999973
    vertex -4.999999999999607 3.973654 -62.98020000000009
  endloop
endfacet
facet normal 1.822560048280379e-15 -0.9933378952103332 -0.11523812710689711
  outer loop
    vertex 2.7071678232459813e-13 0.042658240000019804 -55.922699999999864
    vertex -4.9999999999997655 0.042658240000019804 -55.92269999999994
    vertex -4.999999999999607 0.09589569000000732 -56.38159999999992
  endloop
endfacet
facet normal -1.1489713138220768e-14 -3.2071209598692327e-14 1.0
  outer loop
    vertex -108.0 0.0 2.255973186038318e-14
    vertex -115.39008899999996 3.2630439999999945 4.511946372076636e-14
    vertex -115.07106799999994 2.928931999999996 3.3839597790574766e-14
  endloop
endfacet
facet normal -2.91640381937448e-14 -7.474080872960885e-14 1.0
  outer loop
    vertex -108.0 0.0 2.255973186038318e-14
    vertex -115.07106799999994 2.928931999999996 3.3839597790574766e-14
    vertex -114.73695599999996 2.609911000000005 2.255973186038318e-14
  endloop
endfacet
facet normal -7.558955576832318e-14 -0.5459355978865564 -0.8378271438430773
  outer loop
    vertex 4.963141009284299e-13 4.348635999999999 -63.25000000000016
    vertex -4.99999999999981 4.348635999999999 -63.249999999999716
    vertex -4.999999999999742 4.73567799999999 -63.50219999999969
  endloop
endfacet
facet normal -1.3502811116771091e-14 -0.9784656516394092 -0.20640971043501471
  outer loop
    vertex 4.0607517348689725e-13 0.17026900000001513 -56.83750000000001
    vertex -5.0000000000000355 0.2656195000000055 -57.28949999999972
    vertex -4.511946372076636e-14 0.2656195000000055 -57.28950000000005
  endloop
endfacet
facet normal 3.33405203264084e-14 -0.3827140129651996 -0.9238668650190205
  outer loop
    vertex 4.511946372076636e-14 5.960790000000018 -64.14789999999965
    vertex -4.999999999999833 5.960790000000018 -64.14789999999984
    vertex -4.9999999999999005 6.387582999999995 -64.32469999999992
  endloop
endfacet
facet normal -6.223672659673334e-14 -0.5065687831221858 -0.8621995522882785
  outer loop
    vertex 2.4815705046421497e-13 4.73567799999999 -63.50220000000005
    vertex -4.999999999999742 4.73567799999999 -63.50219999999969
    vertex -4.999999999999607 5.133954999999984 -63.7361999999998
  endloop
endfacet
facet normal 2.6539185442595906e-14 2.8090167007997237e-14 1.0
  outer loop
    vertex -108.0 0.0 2.255973186038318e-14
    vertex -118.00000000000003 10.000000000000004 1.127986593019159e-14
    vertex -117.98932999999998 9.538165000000005 2.255973186038318e-14
  endloop
endfacet
facet normal 1.7195224246582899e-15 -0.9997331682622417 -0.023099616367824705
  outer loop
    vertex 2.255973186038318e-14 0.0 -55.00000000000008
    vertex -4.999999999999855 0.010670250000002922 -55.46180000000009
    vertex 1.5791812302268225e-13 0.010670250000002922 -55.46179999999972
  endloop
endfacet
facet normal -3.573935577832004e-14 -0.6563845033602262 -0.754426526408337
  outer loop
    vertex 2.7071678232459813e-13 3.2630439999999945 -62.39009999999996
    vertex -4.9999999999999005 3.2630439999999945 -62.39009999999972
    vertex -5.000000000000239 3.6115320000000217 -62.69329999999973
  endloop
endfacet
facet normal -3.5579270097974174e-14 -0.8116626484048918 -0.5841264804683635
  outer loop
    vertex -5.000000000000104 1.7500249999999935 -60.651399999999654
    vertex -5.000000000000059 2.019827999999996 -61.02629999999965
    vertex 2.7071678232459813e-13 1.7500249999999935 -60.65139999999996
  endloop
endfacet
facet normal -9.899165479169739e-16 -0.9997331682622423 -0.023099616367795384
  outer loop
    vertex -4.99999999999981 0.0 -54.999999999999865
    vertex -4.999999999999855 0.010670250000002922 -55.46180000000009
    vertex 2.255973186038318e-14 0.0 -55.00000000000008
  endloop
endfacet
facet normal -5.141092354267355e-14 -0.7232394524012138 -0.6905973461362218
  outer loop
    vertex -4.9999999999999005 2.609911000000005 -61.736999999999526
    vertex -4.999999999999968 2.9289320000000187 -62.07110000000009
    vertex 1.5791812302268225e-13 2.609911000000005 -61.7369999999999
  endloop
endfacet
facet normal -1.8293348646114202e-14 -0.8621622183348092 -0.5066323215863757
  outer loop
    vertex -5.000000000000217 1.2637760000000051 -59.86599999999972
    vertex -4.999999999999923 1.497828999999985 -60.264299999999814
    vertex 6.091127602303458e-13 1.2637760000000051 -59.86599999999991
  endloop
endfacet
facet normal 5.1556548881374836e-15 -0.9976002554976283 -0.0692367693575241
  outer loop
    vertex 1.5791812302268225e-13 0.010670250000002922 -55.46179999999972
    vertex -4.999999999999855 0.010670250000002922 -55.46180000000009
    vertex -4.9999999999997655 0.042658240000019804 -55.92269999999994
  endloop
endfacet
facet normal 5.493345065677663e-14 -0.584038040679481 -0.8117262882519409
  outer loop
    vertex -4.511946372076636e-14 3.973654 -62.98019999999975
    vertex -4.999999999999607 3.973654 -62.98020000000009
    vertex -4.99999999999981 4.348635999999999 -63.249999999999716
  endloop
endfacet
facet normal 6.713153318312585e-15 -0.9052304990389229 -0.4249208674679824
  outer loop
    vertex 5.188738327888131e-13 0.8520613000000008 -59.03919999999977
    vertex -4.99999999999981 0.8520613000000008 -59.039199999999845
    vertex -4.999999999999968 1.0483669999999874 -59.45739999999999
  endloop
endfacet
facet normal -8.633386594613929e-15 -0.923881635937531 -0.3826783542054493
  outer loop
    vertex -4.99999999999981 0.6752777000000113 -58.61239999999977
    vertex -4.99999999999981 0.8520613000000008 -59.039199999999845
    vertex 1.3535839116229907e-13 0.6752777000000113 -58.61239999999988
  endloop
endfacet
facet normal -1.3389704619494102e-14 -2.6180482601205e-14 1.0
  outer loop
    vertex -108.0 0.0 2.255973186038318e-14
    vertex -115.98017199999992 3.973654 2.255973186038318e-14
    vertex -115.69334000000002 3.6115320000000217 1.127986593019159e-14
  endloop
endfacet
facet normal -2.959679106288817e-14 -7.585787250622539e-14 1.0
  outer loop
    vertex -108.0 0.0 2.255973186038318e-14
    vertex -114.73695599999996 2.609911000000005 2.255973186038318e-14
    vertex -114.38846800000003 2.3066599999999893 1.127986593019159e-14
  endloop
endfacet
facet normal -3.1931716648684396e-14 -0.4662807661743438 -0.8846367882333784
  outer loop
    vertex 2.4815705046421497e-13 5.133954999999984 -63.73619999999998
    vertex -4.999999999999607 5.133954999999984 -63.7361999999998
    vertex -4.999999999999878 5.5426160000000255 -63.95159999999994
  endloop
endfacet
facet normal 1.0518213991071436e-14 -0.8846000356475828 -0.46635048722210576
  outer loop
    vertex -6.767919558114953e-14 1.0483669999999874 -59.45739999999988
    vertex -4.999999999999968 1.0483669999999874 -59.45739999999999
    vertex -5.000000000000217 1.2637760000000051 -59.86599999999972
  endloop
endfacet
facet normal -1.6445449307050776e-14 -0.9678867422725904 -0.25138666259957426
  outer loop
    vertex -5.0000000000000355 0.2656195000000055 -57.28949999999972
    vertex -5.000000000000217 0.38174359999998425 -57.7365999999999
    vertex -4.511946372076636e-14 0.2656195000000055 -57.28950000000005
  endloop
endfacet
facet normal 1.2250730723079665e-14 -0.4249324055792958 -0.9052250828874514
  outer loop
    vertex 2.255973186038318e-13 5.5426160000000255 -63.95159999999987
    vertex -4.999999999999878 5.5426160000000255 -63.95159999999994
    vertex -4.999999999999833 5.960790000000018 -64.14789999999984
  endloop
endfacet
facet normal -3.6413714791752686e-14 -0.7839506642019186 -0.6208231278692592
  outer loop
    vertex -5.000000000000059 2.019827999999996 -61.02629999999965
    vertex -5.000000000000171 2.3066599999999893 -61.38849999999984
    vertex -1.127986593019159e-13 2.019827999999996 -61.02629999999994
  endloop
endfacet
facet normal 3.098476335433962e-14 3.2746025320483845e-14 1.0
  outer loop
    vertex -108.0 0.0 2.255973186038318e-14
    vertex -117.98932999999998 9.538165000000005 2.255973186038318e-14
    vertex -117.95734199999994 9.077316000000001 3.3839597790574766e-14
  endloop
endfacet
facet normal -4.9308501187120805e-15 -0.8378685180894766 -0.5458720971020083
  outer loop
    vertex -4.999999999999923 1.497828999999985 -60.264299999999814
    vertex -5.000000000000104 1.7500249999999935 -60.651399999999654
    vertex 4.511946372076636e-14 1.497828999999985 -60.264299999999864
  endloop
endfacet
facet normal -8.847269792691507e-15 -0.9784656516393988 -0.206409710435064
  outer loop
    vertex -4.999999999999968 0.17026900000001513 -56.8374999999998
    vertex -5.0000000000000355 0.2656195000000055 -57.28949999999972
    vertex 4.0607517348689725e-13 0.17026900000001513 -56.83750000000001
  endloop
endfacet
facet normal 6.465228266783764e-14 -0.29590515086245617 -0.9552173269434906
  outer loop
    vertex 3.8351544162651403e-13 6.822086000000027 -64.48159999999969
    vertex -5.000000000000059 6.822086000000027 -64.48160000000001
    vertex -4.999999999999833 7.263370000000045 -64.61830000000003
  endloop
endfacet
facet normal -2.2205444994916723e-14 -0.7543830480442014 -0.6564344726044941
  outer loop
    vertex -5.000000000000171 2.3066599999999893 -61.38849999999984
    vertex -4.9999999999999005 2.609911000000005 -61.736999999999526
    vertex 1.3535839116229907e-13 2.3066599999999893 -61.38850000000001
  endloop
endfacet
facet normal 6.236194647691929e-14 1.3518682840312145e-13 1.0
  outer loop
    vertex -108.0 0.0 2.255973186038318e-14
    vertex -115.69334000000002 3.6115320000000217 1.127986593019159e-14
    vertex -115.39008899999996 3.2630439999999945 4.511946372076636e-14
  endloop
endfacet
facet normal 4.193857630434812e-14 -0.20630067481575232 -0.9784886466232325
  outer loop
    vertex -3.158362460453645e-13 7.710495000000068 -64.73439999999964
    vertex -4.999999999999788 7.710495000000068 -64.73439999999987
    vertex -4.99999999999972 8.162505000000063 -64.82970000000014
  endloop
endfacet
facet normal 2.1218952273260808e-14 -0.33963706989708353 -0.9405565696712367
  outer loop
    vertex 2.255973186038318e-14 6.387582999999995 -64.32469999999981
    vertex -4.9999999999999005 6.387582999999995 -64.32469999999992
    vertex -5.000000000000059 6.822086000000027 -64.48160000000001
  endloop
endfacet
facet normal 8.237799149239908e-14 -0.16105237856866308 -0.9869458603983181
  outer loop
    vertex 1.5791812302268225e-13 8.162505000000063 -64.82969999999972
    vertex -4.99999999999972 8.162505000000063 -64.82970000000014
    vertex -5.000000000000013 8.618436000000038 -64.90409999999969
  endloop
endfacet
facet normal -1.1422955665693251e-14 -0.6905605914271199 -0.7232745464675406
  outer loop
    vertex 4.737543690680468e-13 2.9289320000000187 -62.071100000000165
    vertex -4.999999999999968 2.9289320000000187 -62.07110000000009
    vertex -4.9999999999999005 3.2630439999999945 -62.39009999999972
  endloop
endfacet
facet normal -2.4522770427772128e-14 -0.940566746022056 -0.3396088872180487
  outer loop
    vertex -5.000000000000171 0.518393500000017 -58.17789999999969
    vertex -4.99999999999981 0.6752777000000113 -58.61239999999977
    vertex 4.511946372076636e-14 0.518393500000017 -58.17790000000005
  endloop
endfacet
facet normal -4.36540635648312e-15 -0.2513246213990689 -0.9679028539469313
  outer loop
    vertex 3.158362460453645e-13 7.263370000000045 -64.61830000000006
    vertex -4.999999999999833 7.263370000000045 -64.61830000000003
    vertex -4.999999999999788 7.710495000000068 -64.73439999999987
  endloop
endfacet
facet normal 3.375857656209488e-14 -0.06927026804979619 -0.9975979300120413
  outer loop
    vertex 3.158362460453645e-13 9.077316000000048 -64.95729999999966
    vertex -4.999999999999833 9.077316000000048 -64.95729999999983
    vertex -4.99999999999972 9.538165000000049 -64.98929999999993
  endloop
endfacet
facet normal -4.939153321594902e-15 -0.9933378952103415 -0.11523812710682443
  outer loop
    vertex 2.7071678232459813e-13 0.042658240000019804 -55.922699999999864
    vertex -4.999999999999607 0.09589569000000732 -56.38159999999992
    vertex 6.31672492090729e-13 0.09589569000000732 -56.381600000000134
  endloop
endfacet
facet normal 6.6699162814265406e-15 -0.9552510065224721 -0.29579640724289474
  outer loop
    vertex 1.127986593019159e-13 0.38174359999998425 -57.73659999999979
    vertex -5.000000000000217 0.38174359999998425 -57.7365999999999
    vertex -5.000000000000171 0.518393500000017 -58.17789999999969
  endloop
endfacet
facet normal -6.9027014766957256e-15 -0.9869533027363183 -0.16100676450967275
  outer loop
    vertex -4.999999999999607 0.09589569000000732 -56.38159999999992
    vertex -4.999999999999968 0.17026900000001513 -56.8374999999998
    vertex 6.31672492090729e-13 0.09589569000000732 -56.381600000000134
  endloop
endfacet
facet normal 5.690483239040062e-16 1.0 -3.347776425076292e-16
  outer loop
    vertex -118.00000000000003 89.49999999999991 -1.127986593019159e-14
    vertex -4.999999999999878 89.49999999999991 -5.0000000000000355
    vertex -118.00000000000003 89.49999999999991 -5.000000000000227
  endloop
endfacet
facet normal 5.690483239040062e-16 1.0 -3.347776425076292e-16
  outer loop
    vertex -4.999999999999878 89.49999999999991 -5.0000000000000355
    vertex 1.8047785488306544e-13 89.49999999999974 -65.00000000000016
    vertex -4.99999999999981 89.49999999999991 -65.00000000000016
  endloop
endfacet
facet normal 5.690483239040062e-16 1.0 -3.347776425076292e-16
  outer loop
    vertex 1.8047785488306544e-13 89.49999999999974 -65.00000000000016
    vertex -4.999999999999878 89.49999999999991 -5.0000000000000355
    vertex 0.0 89.49999999999974 0.0
  endloop
endfacet
facet normal 5.690483239040062e-16 1.0 -3.347776425076292e-16
  outer loop
    vertex 0.0 89.49999999999974 0.0
    vertex -4.999999999999878 89.49999999999991 -5.0000000000000355
    vertex -118.00000000000003 89.49999999999991 -1.127986593019159e-14
  endloop
endfacet
facet normal 1.0 -5.591406443299535e-17 3.541962909730034e-15
  outer loop
    vertex 3.8351544162651403e-13 10.00000000000005 -65.00000000000016
    vertex 0.0 0.0 0.0
    vertex 2.255973186038318e-14 0.0 -55.00000000000008
  endloop
endfacet
facet normal 1.0 -5.591406443299535e-17 3.541962909730034e-15
  outer loop
    vertex 0.0 0.0 0.0
    vertex 3.8351544162651403e-13 10.00000000000005 -65.00000000000016
    vertex 9.023892744153272e-14 5.000000000000002 -27.000000000000007
  endloop
endfacet
facet normal 1.0 -5.591406443299535e-17 3.541962909730034e-15
  outer loop
    vertex 9.023892744153272e-14 5.000000000000002 -27.000000000000007
    vertex 3.8351544162651403e-13 10.00000000000005 -65.00000000000016
    vertex 9.023892744153272e-14 68.99999999999997 -27.000000000000007
  endloop
endfacet
facet normal 1.0 -5.591406443299535e-17 3.541962909730034e-15
  outer loop
    vertex 9.023892744153272e-14 68.99999999999997 -27.000000000000007
    vertex 3.8351544162651403e-13 10.00000000000005 -65.00000000000016
    vertex 1.8047785488306544e-13 89.49999999999974 -65.00000000000016
  endloop
endfacet
facet normal 1.0 -5.591406443299535e-17 3.541962909730034e-15
  outer loop
    vertex 9.023892744153272e-14 68.99999999999997 -27.000000000000007
    vertex 1.8047785488306544e-13 89.49999999999974 -65.00000000000016
    vertex 0.0 68.99999999999997 -9.999999999999993
  endloop
endfacet
facet normal 1.0 -5.591406443299535e-17 3.541962909730034e-15
  outer loop
    vertex 0.0 0.0 0.0
    vertex 0.0 5.000000000000002 -9.999999999999993
    vertex 0.0 89.49999999999974 0.0
  endloop
endfacet
facet normal 1.0 -5.591406443299535e-17 3.541962909730034e-15
  outer loop
    vertex 0.0 5.000000000000002 -9.999999999999993
    vertex 0.0 0.0 0.0
    vertex 9.023892744153272e-14 5.000000000000002 -27.000000000000007
  endloop
endfacet
facet normal 1.0 -5.591406443299535e-17 3.541962909730034e-15
  outer loop
    vertex 0.0 89.49999999999974 0.0
    vertex 0.0 5.000000000000002 -9.999999999999993
    vertex 0.0 68.99999999999997 -9.999999999999993
  endloop
endfacet
facet normal 1.0 -5.591406443299535e-17 3.541962909730034e-15
  outer loop
    vertex 0.0 89.49999999999974 0.0
    vertex 0.0 68.99999999999997 -9.999999999999993
    vertex 1.8047785488306544e-13 89.49999999999974 -65.00000000000016
  endloop
endfacet
endsolid BeagleBoxBottomB
