solid Untitled-55ab1a25
facet normal 0.9999199626381676 0.0 0.012651810846109559
  outer loop
    vertex 25.00000000000002 -12.562071035587753 0.0
    vertex 24.98278590443459 -17.562071035587753 1.3604943991026888
    vertex 25.00000000000002 -17.562071035587753 0.0
  endloop
endfacet
facet normal 0.9999199626381676 0.0 0.012651810846109559
  outer loop
    vertex 24.98278590443459 -17.562071035587753 1.3604943991026888
    vertex 25.00000000000002 -12.562071035587753 0.0
    vertex 24.98278590443459 -12.562071035587753 1.3604943991026888
  endloop
endfacet
facet normal 0.0 0.0 -1.0
  outer loop
    vertex 25.00000000000002 -12.562071035587753 0.0
    vertex 0.0 -17.562071035587753 0.0
    vertex 0.0 -12.562071035587753 0.0
  endloop
endfacet
facet normal 0.0 0.0 -1.0
  outer loop
    vertex 0.0 -17.562071035587753 0.0
    vertex 25.00000000000002 -12.562071035587753 0.0
    vertex 25.00000000000002 -17.562071035587753 0.0
  endloop
endfacet
facet normal -0.9999470432749413 0.0009081922291074385 0.010251138111345799
  outer loop
    vertex 0.017214095565435506 -12.562071035587753 1.3604943991026877
    vertex 0.0 -17.562071035587753 1.1695871538540639
    vertex 0.017214095565435506 -17.562071035587753 1.3604943991026877
  endloop
endfacet
facet normal -0.9999470432749413 0.0009081922291074385 0.010251138111345799
  outer loop
    vertex 0.0 -17.562071035587753 1.1695871538540639
    vertex 0.017214095565435506 -12.562071035587753 1.3604943991026877
    vertex 0.0 -17.562071035587753 0.0
  endloop
endfacet
facet normal -0.9999470432749413 0.0009081922291074385 0.010251138111345799
  outer loop
    vertex 0.0 -17.562071035587753 0.0
    vertex 0.017214095565435506 -12.562071035587753 1.3604943991026877
    vertex 0.0 -12.562071035587753 0.0
  endloop
endfacet
facet normal -0.8075270566182003 0.0 0.589830528906012
  outer loop
    vertex 0.8062008892103601 -12.562071035587753 3.2317072921268077
    vertex 0.44747463699073703 -17.562071035587753 2.651276023378589
    vertex 0.8062008892103601 -17.562071035587753 3.2317072921268077
  endloop
endfacet
facet normal -0.8886975415891224 0.0 0.4584939253397479
  outer loop
    vertex 0.44747463699073703 -17.562071035587753 2.651276023378589
    vertex 0.8062008892103601 -12.562071035587753 3.2317072921268077
    vertex 0.44747463699073703 -12.562071035587753 2.651276023378589
  endloop
endfacet
facet normal 0.8506508083520394 0.0 0.5257311121191345
  outer loop
    vertex 24.552525363009288 -12.562071035587753 2.6512760233785873
    vertex 24.193799110789666 -17.562071035587753 3.231707292126805
    vertex 24.552525363009288 -17.562071035587753 2.6512760233785873
  endloop
endfacet
facet normal 0.8506508083520394 0.0 0.5257311121191345
  outer loop
    vertex 24.193799110789666 -17.562071035587753 3.231707292126805
    vertex 24.552525363009288 -12.562071035587753 2.6512760233785873
    vertex 24.193799110789666 -12.562071035587753 3.231707292126805
  endloop
endfacet
facet normal 0.00012266298870190114 0.0020231497258865264 0.9999979459073793
  outer loop
    vertex 3.8304128461459337 -4.999999999999999 5.0
    vertex 3.6395056008973152 0.0 4.982785904434565
    vertex 3.6395056008973152 -4.999999999999999 4.982785904434565
  endloop
endfacet
facet normal 0.00012266298870190114 0.0020231497258865264 0.9999979459073793
  outer loop
    vertex 3.6395056008973152 0.0 4.982785904434565
    vertex 3.8304128461459337 -4.999999999999999 5.0
    vertex 21.360494399102713 0.0 4.9827859044345635
  endloop
endfacet
facet normal 0.00012266298870190114 0.0020231497258865264 0.9999979459073793
  outer loop
    vertex 21.360494399102713 0.0 4.9827859044345635
    vertex 3.8304128461459337 -4.999999999999999 5.0
    vertex 21.360494399102713 -4.999999999999999 4.9827859044345635
  endloop
endfacet
facet normal 0.0 1.0 0.0
  outer loop
    vertex 0.017214095565435506 0.0 1.3604943991026877
    vertex 25.00000000000002 0.0 0.0
    vertex 0.0 0.0 0.0
  endloop
endfacet
facet normal 0.0 1.0 0.0
  outer loop
    vertex 25.00000000000002 0.0 0.0
    vertex 0.017214095565435506 0.0 1.3604943991026877
    vertex 24.98278590443459 0.0 1.3604943991026888
  endloop
endfacet
facet normal 0.0 1.0 0.0
  outer loop
    vertex 24.98278590443459 0.0 1.3604943991026888
    vertex 0.017214095565435506 0.0 1.3604943991026877
    vertex 0.1823725421878942 0.0 2.0225424859373686
  endloop
endfacet
facet normal 0.0 1.0 0.0
  outer loop
    vertex 24.98278590443459 0.0 1.3604943991026888
    vertex 0.1823725421878942 0.0 2.0225424859373686
    vertex 24.81762745781213 0.0 2.0225424859373686
  endloop
endfacet
facet normal 0.0 1.0 0.0
  outer loop
    vertex 24.81762745781213 0.0 2.0225424859373686
    vertex 0.1823725421878942 0.0 2.0225424859373686
    vertex 24.552525363009288 0.0 2.6512760233785873
  endloop
endfacet
facet normal 0.0 1.0 0.0
  outer loop
    vertex 24.552525363009288 0.0 2.6512760233785873
    vertex 0.1823725421878942 0.0 2.0225424859373686
    vertex 0.44747463699073703 0.0 2.651276023378589
  endloop
endfacet
facet normal 0.0 1.0 0.0
  outer loop
    vertex 24.552525363009288 0.0 2.6512760233785873
    vertex 0.44747463699073703 0.0 2.651276023378589
    vertex 24.193799110789666 0.0 3.231707292126805
  endloop
endfacet
facet normal 0.0 1.0 0.0
  outer loop
    vertex 24.193799110789666 0.0 3.231707292126805
    vertex 0.44747463699073703 0.0 2.651276023378589
    vertex 0.8062008892103601 0.0 3.2317072921268077
  endloop
endfacet
facet normal 0.0 1.0 0.0
  outer loop
    vertex 24.193799110789666 0.0 3.231707292126805
    vertex 0.8062008892103601 0.0 3.2317072921268077
    vertex 23.750000000000025 0.0 3.7499999999999996
  endloop
endfacet
facet normal 0.0 1.0 0.0
  outer loop
    vertex 23.750000000000025 0.0 3.7499999999999996
    vertex 0.8062008892103601 0.0 3.2317072921268077
    vertex 1.2500000000000016 0.0 3.750000000000001
  endloop
endfacet
facet normal 0.0 1.0 0.0
  outer loop
    vertex 23.750000000000025 0.0 3.7499999999999996
    vertex 1.2500000000000016 0.0 3.750000000000001
    vertex 23.23170729212683 0.0 4.193799110789641
  endloop
endfacet
facet normal 0.0 1.0 0.0
  outer loop
    vertex 23.23170729212683 0.0 4.193799110789641
    vertex 1.2500000000000016 0.0 3.750000000000001
    vertex 1.7682927078731958 0.0 4.193799110789643
  endloop
endfacet
facet normal 0.0 1.0 0.0
  outer loop
    vertex 23.23170729212683 0.0 4.193799110789641
    vertex 1.7682927078731958 0.0 4.193799110789643
    vertex 22.651276023378614 0.0 4.5525253630092655
  endloop
endfacet
facet normal 0.0 1.0 0.0
  outer loop
    vertex 22.651276023378614 0.0 4.5525253630092655
    vertex 1.7682927078731958 0.0 4.193799110789643
    vertex 2.348723976621415 0.0 4.5525253630092655
  endloop
endfacet
facet normal 0.0 1.0 0.0
  outer loop
    vertex 22.651276023378614 0.0 4.5525253630092655
    vertex 2.348723976621415 0.0 4.5525253630092655
    vertex 2.977457514062635 0.0 4.817627457812107
  endloop
endfacet
facet normal 0.0 1.0 0.0
  outer loop
    vertex 22.651276023378614 0.0 4.5525253630092655
    vertex 2.977457514062635 0.0 4.817627457812107
    vertex 22.022542485937393 0.0 4.817627457812105
  endloop
endfacet
facet normal 0.0 1.0 0.0
  outer loop
    vertex 22.022542485937393 0.0 4.817627457812105
    vertex 2.977457514062635 0.0 4.817627457812107
    vertex 21.360494399102713 0.0 4.9827859044345635
  endloop
endfacet
facet normal 0.0 1.0 0.0
  outer loop
    vertex 21.360494399102713 0.0 4.9827859044345635
    vertex 2.977457514062635 0.0 4.817627457812107
    vertex 3.6395056008973152 0.0 4.982785904434565
  endloop
endfacet
facet normal -0.24204789385063996 0.0 0.9702643026941007
  outer loop
    vertex 3.6395056008973152 -17.562071035587753 4.982785904434565
    vertex 2.977457514062635 -12.562071035587753 4.817627457812107
    vertex 2.977457514062635 -17.562071035587753 4.817627457812107
  endloop
endfacet
facet normal -0.31622776601683794 0.0 0.9486832980505139
  outer loop
    vertex 2.977457514062635 -12.562071035587753 4.817627457812107
    vertex 3.6395056008973152 -17.562071035587753 4.982785904434565
    vertex 3.6395056008973152 -12.562071035587753 4.982785904434565
  endloop
endfacet
facet normal 0.5257311121191354 0.0 0.8506508083520388
  outer loop
    vertex 23.23170729212683 -17.562071035587753 4.193799110789641
    vertex 22.651276023378614 -12.562071035587753 4.5525253630092655
    vertex 22.651276023378614 -17.562071035587753 4.5525253630092655
  endloop
endfacet
facet normal 0.5257311121191354 0.0 0.8506508083520388
  outer loop
    vertex 22.651276023378614 -12.562071035587753 4.5525253630092655
    vertex 23.23170729212683 -17.562071035587753 4.193799110789641
    vertex 23.23170729212683 -12.562071035587753 4.193799110789641
  endloop
endfacet
facet normal 0.9214401784656658 0.0 0.38852026653594524
  outer loop
    vertex 24.81762745781213 -12.562071035587753 2.0225424859373686
    vertex 24.552525363009288 -17.562071035587753 2.6512760233785873
    vertex 24.81762745781213 -17.562071035587753 2.0225424859373686
  endloop
endfacet
facet normal 0.9214401784656658 0.0 0.38852026653594524
  outer loop
    vertex 24.552525363009288 -17.562071035587753 2.6512760233785873
    vertex 24.81762745781213 -12.562071035587753 2.0225424859373686
    vertex 24.552525363009288 -12.562071035587753 2.6512760233785873
  endloop
endfacet
facet normal -0.9486832980505137 0.0 0.31622776601683866
  outer loop
    vertex 0.1823725421878942 -12.562071035587753 2.0225424859373686
    vertex 0.017214095565435506 -17.562071035587753 1.3604943991026877
    vertex 0.1823725421878942 -17.562071035587753 2.0225424859373686
  endloop
endfacet
facet normal -0.9702643026941005 0.0 0.24204789385064074
  outer loop
    vertex 0.017214095565435506 -17.562071035587753 1.3604943991026877
    vertex 0.1823725421878942 -12.562071035587753 2.0225424859373686
    vertex 0.017214095565435506 -12.562071035587753 1.3604943991026877
  endloop
endfacet
facet normal 0.0 0.0 -1.0
  outer loop
    vertex 25.00000000000002 0.0 0.0
    vertex 0.0 -4.999999999999999 0.0
    vertex 0.0 0.0 0.0
  endloop
endfacet
facet normal 0.0 0.0 -1.0
  outer loop
    vertex 0.0 -4.999999999999999 0.0
    vertex 25.00000000000002 0.0 0.0
    vertex 25.00000000000002 -4.999999999999999 0.0
  endloop
endfacet
facet normal 0.9999199626381676 0.0 0.012651810846109559
  outer loop
    vertex 25.00000000000002 0.0 0.0
    vertex 24.98278590443459 -4.999999999999999 1.3604943991026888
    vertex 25.00000000000002 -4.999999999999999 0.0
  endloop
endfacet
facet normal 0.9999199626381676 0.0 0.012651810846109559
  outer loop
    vertex 24.98278590443459 -4.999999999999999 1.3604943991026888
    vertex 25.00000000000002 0.0 0.0
    vertex 24.98278590443459 0.0 1.3604943991026888
  endloop
endfacet
facet normal -0.9999470432749413 0.0009081922291074385 0.010251138111345799
  outer loop
    vertex 0.017214095565435506 0.0 1.3604943991026877
    vertex 0.0 -4.999999999999999 1.1695871538540639
    vertex 0.017214095565435506 -4.999999999999999 1.3604943991026877
  endloop
endfacet
facet normal -0.9999470432749413 0.0009081922291074385 0.010251138111345799
  outer loop
    vertex 0.0 -4.999999999999999 1.1695871538540639
    vertex 0.017214095565435506 0.0 1.3604943991026877
    vertex 0.0 -4.999999999999999 0.0
  endloop
endfacet
facet normal -0.9999470432749413 0.0009081922291074385 0.010251138111345799
  outer loop
    vertex 0.0 -4.999999999999999 0.0
    vertex 0.017214095565435506 0.0 1.3604943991026877
    vertex 0.0 0.0 0.0
  endloop
endfacet
facet normal 0.2420478938506402 0.0 0.9702643026941007
  outer loop
    vertex 22.022542485937393 -17.562071035587753 4.817627457812105
    vertex 21.360494399102713 -12.562071035587753 4.9827859044345635
    vertex 21.360494399102713 -17.562071035587753 4.9827859044345635
  endloop
endfacet
facet normal 0.2420478938506402 0.0 0.9702643026941007
  outer loop
    vertex 21.360494399102713 -12.562071035587753 4.9827859044345635
    vertex 22.022542485937393 -17.562071035587753 4.817627457812105
    vertex 22.022542485937393 -12.562071035587753 4.817627457812105
  endloop
endfacet
facet normal -0.8075270566182003 0.0 0.589830528906012
  outer loop
    vertex 0.8062008892103601 0.0 3.2317072921268077
    vertex 0.44747463699073703 -4.999999999999999 2.651276023378589
    vertex 0.8062008892103601 -4.999999999999999 3.2317072921268077
  endloop
endfacet
facet normal -0.8886975415891222 0.0 0.45849392533974803
  outer loop
    vertex 0.44747463699073703 -4.999999999999999 2.651276023378589
    vertex 0.8062008892103601 0.0 3.2317072921268077
    vertex 0.44747463699073703 0.0 2.651276023378589
  endloop
endfacet
facet normal 0.8506508083520394 0.0 0.5257311121191345
  outer loop
    vertex 24.552525363009288 0.0 2.6512760233785873
    vertex 24.193799110789666 -4.999999999999999 3.231707292126805
    vertex 24.552525363009288 -4.999999999999999 2.6512760233785873
  endloop
endfacet
facet normal 0.8506508083520394 0.0 0.5257311121191345
  outer loop
    vertex 24.193799110789666 -4.999999999999999 3.231707292126805
    vertex 24.552525363009288 0.0 2.6512760233785873
    vertex 24.193799110789666 0.0 3.231707292126805
  endloop
endfacet
facet normal -0.24204789385063996 0.0 0.9702643026941007
  outer loop
    vertex 3.6395056008973152 -4.999999999999999 4.982785904434565
    vertex 2.977457514062635 0.0 4.817627457812107
    vertex 2.977457514062635 -4.999999999999999 4.817627457812107
  endloop
endfacet
facet normal -0.31622776601683794 0.0 0.9486832980505139
  outer loop
    vertex 2.977457514062635 0.0 4.817627457812107
    vertex 3.6395056008973152 -4.999999999999999 4.982785904434565
    vertex 3.6395056008973152 0.0 4.982785904434565
  endloop
endfacet
facet normal 0.5257311121191355 0.0 0.850650808352039
  outer loop
    vertex 23.23170729212683 -4.999999999999999 4.193799110789641
    vertex 22.651276023378614 0.0 4.5525253630092655
    vertex 22.651276023378614 -4.999999999999999 4.5525253630092655
  endloop
endfacet
facet normal 0.5257311121191355 0.0 0.850650808352039
  outer loop
    vertex 22.651276023378614 0.0 4.5525253630092655
    vertex 23.23170729212683 -4.999999999999999 4.193799110789641
    vertex 23.23170729212683 0.0 4.193799110789641
  endloop
endfacet
facet normal 0.9214401784656658 0.0 0.38852026653594524
  outer loop
    vertex 24.81762745781213 0.0 2.0225424859373686
    vertex 24.552525363009288 -4.999999999999999 2.6512760233785873
    vertex 24.81762745781213 -4.999999999999999 2.0225424859373686
  endloop
endfacet
facet normal 0.9214401784656658 0.0 0.38852026653594524
  outer loop
    vertex 24.552525363009288 -4.999999999999999 2.6512760233785873
    vertex 24.81762745781213 0.0 2.0225424859373686
    vertex 24.552525363009288 0.0 2.6512760233785873
  endloop
endfacet
facet normal -0.45849392533974714 0.0 0.8886975415891228
  outer loop
    vertex 2.348723976621415 -17.562071035587753 4.5525253630092655
    vertex 1.7682927078731958 -12.562071035587753 4.193799110789643
    vertex 1.7682927078731958 -17.562071035587753 4.193799110789643
  endloop
endfacet
facet normal -0.5898305289060114 0.0 0.807527056618201
  outer loop
    vertex 1.7682927078731958 -12.562071035587753 4.193799110789643
    vertex 2.348723976621415 -17.562071035587753 4.5525253630092655
    vertex 2.348723976621415 -12.562071035587753 4.5525253630092655
  endloop
endfacet
facet normal -0.9486832980505137 0.0 0.3162277660168387
  outer loop
    vertex 0.1823725421878942 0.0 2.0225424859373686
    vertex 0.017214095565435506 -4.999999999999999 1.3604943991026877
    vertex 0.1823725421878942 -4.999999999999999 2.0225424859373686
  endloop
endfacet
facet normal -0.9702643026941005 0.0 0.24204789385064074
  outer loop
    vertex 0.017214095565435506 -4.999999999999999 1.3604943991026877
    vertex 0.1823725421878942 0.0 2.0225424859373686
    vertex 0.017214095565435506 0.0 1.3604943991026877
  endloop
endfacet
facet normal 0.2420478938506402 0.0 0.9702643026941007
  outer loop
    vertex 22.022542485937393 -4.999999999999999 4.817627457812105
    vertex 21.360494399102713 0.0 4.9827859044345635
    vertex 21.360494399102713 -4.999999999999999 4.9827859044345635
  endloop
endfacet
facet normal 0.2420478938506402 0.0 0.9702643026941007
  outer loop
    vertex 21.360494399102713 0.0 4.9827859044345635
    vertex 22.022542485937393 -4.999999999999999 4.817627457812105
    vertex 22.022542485937393 0.0 4.817627457812105
  endloop
endfacet
facet normal 0.7595836658940394 0.0 0.6504096051773623
  outer loop
    vertex 24.193799110789666 -12.562071035587753 3.231707292126805
    vertex 23.750000000000025 -17.562071035587753 3.7499999999999996
    vertex 24.193799110789666 -17.562071035587753 3.231707292126805
  endloop
endfacet
facet normal 0.7595836658940394 0.0 0.6504096051773623
  outer loop
    vertex 23.750000000000025 -17.562071035587753 3.7499999999999996
    vertex 24.193799110789666 -12.562071035587753 3.231707292126805
    vertex 23.750000000000025 -12.562071035587753 3.7499999999999996
  endloop
endfacet
facet normal -0.45849392533974714 0.0 0.8886975415891228
  outer loop
    vertex 2.348723976621415 -4.999999999999999 4.5525253630092655
    vertex 1.7682927078731958 0.0 4.193799110789643
    vertex 1.7682927078731958 -4.999999999999999 4.193799110789643
  endloop
endfacet
facet normal -0.5898305289060113 0.0 0.807527056618201
  outer loop
    vertex 1.7682927078731958 0.0 4.193799110789643
    vertex 2.348723976621415 -4.999999999999999 4.5525253630092655
    vertex 2.348723976621415 0.0 4.5525253630092655
  endloop
endfacet
facet normal 0.38852026653594707 0.0 0.9214401784656652
  outer loop
    vertex 22.651276023378614 -17.562071035587753 4.5525253630092655
    vertex 22.022542485937393 -12.562071035587753 4.817627457812105
    vertex 22.022542485937393 -17.562071035587753 4.817627457812105
  endloop
endfacet
facet normal 0.38852026653594707 0.0 0.9214401784656652
  outer loop
    vertex 22.022542485937393 -12.562071035587753 4.817627457812105
    vertex 22.651276023378614 -17.562071035587753 4.5525253630092655
    vertex 22.651276023378614 -12.562071035587753 4.5525253630092655
  endloop
endfacet
facet normal 0.7595836658940394 0.0 0.6504096051773623
  outer loop
    vertex 24.193799110789666 0.0 3.231707292126805
    vertex 23.750000000000025 -4.999999999999999 3.7499999999999996
    vertex 24.193799110789666 -4.999999999999999 3.231707292126805
  endloop
endfacet
facet normal 0.7595836658940394 0.0 0.6504096051773623
  outer loop
    vertex 23.750000000000025 -4.999999999999999 3.7499999999999996
    vertex 24.193799110789666 0.0 3.231707292126805
    vertex 23.750000000000025 0.0 3.7499999999999996
  endloop
endfacet
facet normal 0.38852026653594707 0.0 0.9214401784656652
  outer loop
    vertex 22.651276023378614 -4.999999999999999 4.5525253630092655
    vertex 22.022542485937393 0.0 4.817627457812105
    vertex 22.022542485937393 -4.999999999999999 4.817627457812105
  endloop
endfacet
facet normal 0.38852026653594707 0.0 0.9214401784656652
  outer loop
    vertex 22.022542485937393 0.0 4.817627457812105
    vertex 22.651276023378614 -4.999999999999999 4.5525253630092655
    vertex 22.651276023378614 0.0 4.5525253630092655
  endloop
endfacet
facet normal -0.8886975415891222 0.0 0.45849392533974803
  outer loop
    vertex 0.44747463699073703 0.0 2.651276023378589
    vertex 0.1823725421878942 -4.999999999999999 2.0225424859373686
    vertex 0.44747463699073703 -4.999999999999999 2.651276023378589
  endloop
endfacet
facet normal -0.9486832980505137 0.0 0.3162277660168387
  outer loop
    vertex 0.1823725421878942 -4.999999999999999 2.0225424859373686
    vertex 0.44747463699073703 0.0 2.651276023378589
    vertex 0.1823725421878942 0.0 2.0225424859373686
  endloop
endfacet
facet normal -0.8886975415891224 0.0 0.4584939253397479
  outer loop
    vertex 0.44747463699073703 -12.562071035587753 2.651276023378589
    vertex 0.1823725421878942 -17.562071035587753 2.0225424859373686
    vertex 0.44747463699073703 -17.562071035587753 2.651276023378589
  endloop
endfacet
facet normal -0.9486832980505137 0.0 0.31622776601683866
  outer loop
    vertex 0.1823725421878942 -17.562071035587753 2.0225424859373686
    vertex 0.44747463699073703 -12.562071035587753 2.651276023378589
    vertex 0.1823725421878942 -12.562071035587753 2.0225424859373686
  endloop
endfacet
facet normal 0.6504096051773629 0.0 0.7595836658940389
  outer loop
    vertex 23.750000000000025 -17.562071035587753 3.7499999999999996
    vertex 23.23170729212683 -12.562071035587753 4.193799110789641
    vertex 23.23170729212683 -17.562071035587753 4.193799110789641
  endloop
endfacet
facet normal 0.6504096051773629 0.0 0.7595836658940389
  outer loop
    vertex 23.23170729212683 -12.562071035587753 4.193799110789641
    vertex 23.750000000000025 -17.562071035587753 3.7499999999999996
    vertex 23.750000000000025 -12.562071035587753 3.7499999999999996
  endloop
endfacet
facet normal 0.6504096051773629 0.0 0.7595836658940389
  outer loop
    vertex 23.750000000000025 -4.999999999999999 3.7499999999999996
    vertex 23.23170729212683 0.0 4.193799110789641
    vertex 23.23170729212683 -4.999999999999999 4.193799110789641
  endloop
endfacet
facet normal 0.6504096051773629 0.0 0.7595836658940389
  outer loop
    vertex 23.23170729212683 0.0 4.193799110789641
    vertex 23.750000000000025 -4.999999999999999 3.7499999999999996
    vertex 23.750000000000025 0.0 3.7499999999999996
  endloop
endfacet
facet normal -0.7071067811865474 0.0 0.7071067811865478
  outer loop
    vertex 1.2500000000000016 0.0 3.750000000000001
    vertex 0.8062008892103601 -4.999999999999999 3.2317072921268077
    vertex 1.2500000000000016 -4.999999999999999 3.750000000000001
  endloop
endfacet
facet normal -0.8075270566182003 0.0 0.589830528906012
  outer loop
    vertex 0.8062008892103601 -4.999999999999999 3.2317072921268077
    vertex 1.2500000000000016 0.0 3.750000000000001
    vertex 0.8062008892103601 0.0 3.2317072921268077
  endloop
endfacet
facet normal -0.5898305289060113 0.0 0.807527056618201
  outer loop
    vertex 1.7682927078731958 -4.999999999999999 4.193799110789643
    vertex 1.2500000000000016 0.0 3.750000000000001
    vertex 1.2500000000000016 -4.999999999999999 3.750000000000001
  endloop
endfacet
facet normal -0.7071067811865474 0.0 0.7071067811865478
  outer loop
    vertex 1.2500000000000016 0.0 3.750000000000001
    vertex 1.7682927078731958 -4.999999999999999 4.193799110789643
    vertex 1.7682927078731958 0.0 4.193799110789643
  endloop
endfacet
facet normal -0.31622776601683794 0.0 0.9486832980505139
  outer loop
    vertex 2.977457514062635 -4.999999999999999 4.817627457812107
    vertex 2.348723976621415 0.0 4.5525253630092655
    vertex 2.348723976621415 -4.999999999999999 4.5525253630092655
  endloop
endfacet
facet normal -0.45849392533974714 0.0 0.8886975415891228
  outer loop
    vertex 2.348723976621415 0.0 4.5525253630092655
    vertex 2.977457514062635 -4.999999999999999 4.817627457812107
    vertex 2.977457514062635 0.0 4.817627457812107
  endloop
endfacet
facet normal 0.9702643026941 0.0 0.24204789385064227
  outer loop
    vertex 24.98278590443459 0.0 1.3604943991026888
    vertex 24.81762745781213 -4.999999999999999 2.0225424859373686
    vertex 24.98278590443459 -4.999999999999999 1.3604943991026888
  endloop
endfacet
facet normal 0.9702643026941 0.0 0.24204789385064227
  outer loop
    vertex 24.81762745781213 -4.999999999999999 2.0225424859373686
    vertex 24.98278590443459 0.0 1.3604943991026888
    vertex 24.81762745781213 0.0 2.0225424859373686
  endloop
endfacet
facet normal 0.0 -1.0 0.0
  outer loop
    vertex 24.98278590443459 -4.999999999999999 1.3604943991026888
    vertex 0.0 -4.999999999999999 0.0
    vertex 25.00000000000002 -4.999999999999999 0.0
  endloop
endfacet
facet normal 0.0 -1.0 0.0
  outer loop
    vertex 0.0 -4.999999999999999 0.0
    vertex 24.98278590443459 -4.999999999999999 1.3604943991026888
    vertex 0.0 -4.999999999999999 1.1695871538540639
  endloop
endfacet
facet normal 0.0 -1.0 0.0
  outer loop
    vertex 0.0 -4.999999999999999 1.1695871538540639
    vertex 24.98278590443459 -4.999999999999999 1.3604943991026888
    vertex 0.017214095565435506 -4.999999999999999 1.3604943991026877
  endloop
endfacet
facet normal 0.0 -1.0 0.0
  outer loop
    vertex 0.017214095565435506 -4.999999999999999 1.3604943991026877
    vertex 24.98278590443459 -4.999999999999999 1.3604943991026888
    vertex 0.1823725421878942 -4.999999999999999 2.0225424859373686
  endloop
endfacet
facet normal 0.0 -1.0 0.0
  outer loop
    vertex 0.1823725421878942 -4.999999999999999 2.0225424859373686
    vertex 24.98278590443459 -4.999999999999999 1.3604943991026888
    vertex 24.81762745781213 -4.999999999999999 2.0225424859373686
  endloop
endfacet
facet normal 0.0 -1.0 0.0
  outer loop
    vertex 0.1823725421878942 -4.999999999999999 2.0225424859373686
    vertex 24.81762745781213 -4.999999999999999 2.0225424859373686
    vertex 24.552525363009288 -4.999999999999999 2.6512760233785873
  endloop
endfacet
facet normal 0.0 -1.0 0.0
  outer loop
    vertex 0.1823725421878942 -4.999999999999999 2.0225424859373686
    vertex 24.552525363009288 -4.999999999999999 2.6512760233785873
    vertex 0.44747463699073703 -4.999999999999999 2.651276023378589
  endloop
endfacet
facet normal 0.0 -1.0 0.0
  outer loop
    vertex 0.44747463699073703 -4.999999999999999 2.651276023378589
    vertex 24.552525363009288 -4.999999999999999 2.6512760233785873
    vertex 24.193799110789666 -4.999999999999999 3.231707292126805
  endloop
endfacet
facet normal 0.0 -1.0 0.0
  outer loop
    vertex 0.44747463699073703 -4.999999999999999 2.651276023378589
    vertex 24.193799110789666 -4.999999999999999 3.231707292126805
    vertex 0.8062008892103601 -4.999999999999999 3.2317072921268077
  endloop
endfacet
facet normal 0.0 -1.0 0.0
  outer loop
    vertex 0.8062008892103601 -4.999999999999999 3.2317072921268077
    vertex 24.193799110789666 -4.999999999999999 3.231707292126805
    vertex 23.750000000000025 -4.999999999999999 3.7499999999999996
  endloop
endfacet
facet normal 0.0 -1.0 0.0
  outer loop
    vertex 0.8062008892103601 -4.999999999999999 3.2317072921268077
    vertex 23.750000000000025 -4.999999999999999 3.7499999999999996
    vertex 1.2500000000000016 -4.999999999999999 3.750000000000001
  endloop
endfacet
facet normal 0.0 -1.0 0.0
  outer loop
    vertex 1.2500000000000016 -4.999999999999999 3.750000000000001
    vertex 23.750000000000025 -4.999999999999999 3.7499999999999996
    vertex 23.23170729212683 -4.999999999999999 4.193799110789641
  endloop
endfacet
facet normal 0.0 -1.0 0.0
  outer loop
    vertex 1.2500000000000016 -4.999999999999999 3.750000000000001
    vertex 23.23170729212683 -4.999999999999999 4.193799110789641
    vertex 1.7682927078731958 -4.999999999999999 4.193799110789643
  endloop
endfacet
facet normal 0.0 -1.0 0.0
  outer loop
    vertex 1.7682927078731958 -4.999999999999999 4.193799110789643
    vertex 23.23170729212683 -4.999999999999999 4.193799110789641
    vertex 22.651276023378614 -4.999999999999999 4.5525253630092655
  endloop
endfacet
facet normal 0.0 -1.0 0.0
  outer loop
    vertex 1.7682927078731958 -4.999999999999999 4.193799110789643
    vertex 22.651276023378614 -4.999999999999999 4.5525253630092655
    vertex 2.348723976621415 -4.999999999999999 4.5525253630092655
  endloop
endfacet
facet normal 0.0 -1.0 0.0
  outer loop
    vertex 2.348723976621415 -4.999999999999999 4.5525253630092655
    vertex 22.651276023378614 -4.999999999999999 4.5525253630092655
    vertex 22.022542485937393 -4.999999999999999 4.817627457812105
  endloop
endfacet
facet normal 0.0 -1.0 0.0
  outer loop
    vertex 2.348723976621415 -4.999999999999999 4.5525253630092655
    vertex 22.022542485937393 -4.999999999999999 4.817627457812105
    vertex 2.977457514062635 -4.999999999999999 4.817627457812107
  endloop
endfacet
facet normal 0.0 -1.0 0.0
  outer loop
    vertex 2.977457514062635 -4.999999999999999 4.817627457812107
    vertex 22.022542485937393 -4.999999999999999 4.817627457812105
    vertex 21.360494399102713 -4.999999999999999 4.9827859044345635
  endloop
endfacet
facet normal 0.0 -1.0 0.0
  outer loop
    vertex 2.977457514062635 -4.999999999999999 4.817627457812107
    vertex 21.360494399102713 -4.999999999999999 4.9827859044345635
    vertex 3.6395056008973152 -4.999999999999999 4.982785904434565
  endloop
endfacet
facet normal 0.0 -1.0 0.0
  outer loop
    vertex 3.6395056008973152 -4.999999999999999 4.982785904434565
    vertex 21.360494399102713 -4.999999999999999 4.9827859044345635
    vertex 3.8304128461459337 -4.999999999999999 5.0
  endloop
endfacet
facet normal -0.9999470432749413 0.0009081922291074385 0.010251138111345799
  outer loop
    vertex 0.017214095565435506 -18.870854583405087 1.3604943991026877
    vertex 0.0 -23.870854583405084 1.1695871538540639
    vertex 0.017214095565435506 -23.870854583405084 1.3604943991026877
  endloop
endfacet
facet normal -0.9999470432749413 0.0009081922291074385 0.010251138111345799
  outer loop
    vertex 0.0 -23.870854583405084 1.1695871538540639
    vertex 0.017214095565435506 -18.870854583405087 1.3604943991026877
    vertex 0.0 -23.870854583405084 0.0
  endloop
endfacet
facet normal -0.9999470432749413 0.0009081922291074385 0.010251138111345799
  outer loop
    vertex 0.0 -23.870854583405084 0.0
    vertex 0.017214095565435506 -18.870854583405087 1.3604943991026877
    vertex 0.0 -18.870854583405087 0.0
  endloop
endfacet
facet normal -0.9486832980505137 0.0 0.31622776601683866
  outer loop
    vertex 0.1823725421878942 -18.870854583405087 2.0225424859373686
    vertex 0.017214095565435506 -23.870854583405084 1.3604943991026877
    vertex 0.1823725421878942 -23.870854583405084 2.0225424859373686
  endloop
endfacet
facet normal -0.9702643026941005 0.0 0.24204789385064074
  outer loop
    vertex 0.017214095565435506 -23.870854583405084 1.3604943991026877
    vertex 0.1823725421878942 -18.870854583405087 2.0225424859373686
    vertex 0.017214095565435506 -18.870854583405087 1.3604943991026877
  endloop
endfacet
facet normal 0.9999199626381676 0.0 0.012651810846109559
  outer loop
    vertex 25.00000000000002 -18.870854583405087 0.0
    vertex 24.98278590443459 -23.870854583405084 1.3604943991026888
    vertex 25.00000000000002 -23.870854583405084 0.0
  endloop
endfacet
facet normal 0.9999199626381676 0.0 0.012651810846109559
  outer loop
    vertex 24.98278590443459 -23.870854583405084 1.3604943991026888
    vertex 25.00000000000002 -18.870854583405087 0.0
    vertex 24.98278590443459 -18.870854583405087 1.3604943991026888
  endloop
endfacet
facet normal 0.2420478938506402 0.0 0.9702643026941007
  outer loop
    vertex 22.022542485937393 -23.870854583405084 4.817627457812105
    vertex 21.360494399102713 -18.870854583405087 4.9827859044345635
    vertex 21.360494399102713 -23.870854583405084 4.9827859044345635
  endloop
endfacet
facet normal 0.2420478938506402 0.0 0.9702643026941007
  outer loop
    vertex 21.360494399102713 -18.870854583405087 4.9827859044345635
    vertex 22.022542485937393 -23.870854583405084 4.817627457812105
    vertex 22.022542485937393 -18.870854583405087 4.817627457812105
  endloop
endfacet
facet normal -0.45849392533974714 0.0 0.8886975415891228
  outer loop
    vertex 2.348723976621415 -23.870854583405084 4.5525253630092655
    vertex 1.7682927078731958 -18.870854583405087 4.193799110789643
    vertex 1.7682927078731958 -23.870854583405084 4.193799110789643
  endloop
endfacet
facet normal -0.5898305289060114 0.0 0.807527056618201
  outer loop
    vertex 1.7682927078731958 -18.870854583405087 4.193799110789643
    vertex 2.348723976621415 -23.870854583405084 4.5525253630092655
    vertex 2.348723976621415 -18.870854583405087 4.5525253630092655
  endloop
endfacet
facet normal 0.7595836658940394 0.0 0.6504096051773623
  outer loop
    vertex 24.193799110789666 -18.870854583405087 3.231707292126805
    vertex 23.750000000000025 -23.870854583405084 3.7499999999999996
    vertex 24.193799110789666 -23.870854583405084 3.231707292126805
  endloop
endfacet
facet normal 0.7595836658940394 0.0 0.6504096051773623
  outer loop
    vertex 23.750000000000025 -23.870854583405084 3.7499999999999996
    vertex 24.193799110789666 -18.870854583405087 3.231707292126805
    vertex 23.750000000000025 -18.870854583405087 3.7499999999999996
  endloop
endfacet
facet normal 0.38852026653594707 0.0 0.9214401784656652
  outer loop
    vertex 22.651276023378614 -23.870854583405084 4.5525253630092655
    vertex 22.022542485937393 -18.870854583405087 4.817627457812105
    vertex 22.022542485937393 -23.870854583405084 4.817627457812105
  endloop
endfacet
facet normal 0.38852026653594707 0.0 0.9214401784656652
  outer loop
    vertex 22.022542485937393 -18.870854583405087 4.817627457812105
    vertex 22.651276023378614 -23.870854583405084 4.5525253630092655
    vertex 22.651276023378614 -18.870854583405087 4.5525253630092655
  endloop
endfacet
facet normal 0.0 0.0 -1.0
  outer loop
    vertex 25.00000000000002 -18.870854583405087 0.0
    vertex 0.0 -23.870854583405084 0.0
    vertex 0.0 -18.870854583405087 0.0
  endloop
endfacet
facet normal 0.0 0.0 -1.0
  outer loop
    vertex 0.0 -23.870854583405084 0.0
    vertex 25.00000000000002 -18.870854583405087 0.0
    vertex 25.00000000000002 -23.870854583405084 0.0
  endloop
endfacet
facet normal 0.00012266298870190114 0.0020231497258865264 0.9999979459073793
  outer loop
    vertex 3.8304128461459337 -23.870854583405084 5.0
    vertex 3.6395056008973152 -18.870854583405087 4.982785904434565
    vertex 3.6395056008973152 -23.870854583405084 4.982785904434565
  endloop
endfacet
facet normal 0.00012266298870190114 0.0020231497258865264 0.9999979459073793
  outer loop
    vertex 3.6395056008973152 -18.870854583405087 4.982785904434565
    vertex 3.8304128461459337 -23.870854583405084 5.0
    vertex 21.360494399102713 -18.870854583405087 4.9827859044345635
  endloop
endfacet
facet normal 0.00012266298870190114 0.0020231497258865264 0.9999979459073793
  outer loop
    vertex 21.360494399102713 -18.870854583405087 4.9827859044345635
    vertex 3.8304128461459337 -23.870854583405084 5.0
    vertex 21.360494399102713 -23.870854583405084 4.9827859044345635
  endloop
endfacet
facet normal -0.7071067811865475 0.0 0.7071067811865477
  outer loop
    vertex 1.2500000000000016 -12.562071035587753 3.750000000000001
    vertex 0.8062008892103601 -17.562071035587753 3.2317072921268077
    vertex 1.2500000000000016 -17.562071035587753 3.750000000000001
  endloop
endfacet
facet normal -0.8075270566182003 0.0 0.589830528906012
  outer loop
    vertex 0.8062008892103601 -17.562071035587753 3.2317072921268077
    vertex 1.2500000000000016 -12.562071035587753 3.750000000000001
    vertex 0.8062008892103601 -12.562071035587753 3.2317072921268077
  endloop
endfacet
facet normal -0.5898305289060114 0.0 0.807527056618201
  outer loop
    vertex 1.7682927078731958 -17.562071035587753 4.193799110789643
    vertex 1.2500000000000016 -12.562071035587753 3.750000000000001
    vertex 1.2500000000000016 -17.562071035587753 3.750000000000001
  endloop
endfacet
facet normal -0.7071067811865475 0.0 0.7071067811865477
  outer loop
    vertex 1.2500000000000016 -12.562071035587753 3.750000000000001
    vertex 1.7682927078731958 -17.562071035587753 4.193799110789643
    vertex 1.7682927078731958 -12.562071035587753 4.193799110789643
  endloop
endfacet
facet normal 0.9702643026941 0.0 0.24204789385064227
  outer loop
    vertex 24.98278590443459 -12.562071035587753 1.3604943991026888
    vertex 24.81762745781213 -17.562071035587753 2.0225424859373686
    vertex 24.98278590443459 -17.562071035587753 1.3604943991026888
  endloop
endfacet
facet normal 0.9702643026941 0.0 0.24204789385064227
  outer loop
    vertex 24.81762745781213 -17.562071035587753 2.0225424859373686
    vertex 24.98278590443459 -12.562071035587753 1.3604943991026888
    vertex 24.81762745781213 -12.562071035587753 2.0225424859373686
  endloop
endfacet
facet normal 0.0 1.0 0.0
  outer loop
    vertex 0.017214095565435506 -18.870854583405087 1.3604943991026877
    vertex 25.00000000000002 -18.870854583405087 0.0
    vertex 0.0 -18.870854583405087 0.0
  endloop
endfacet
facet normal 0.0 1.0 0.0
  outer loop
    vertex 25.00000000000002 -18.870854583405087 0.0
    vertex 0.017214095565435506 -18.870854583405087 1.3604943991026877
    vertex 24.98278590443459 -18.870854583405087 1.3604943991026888
  endloop
endfacet
facet normal 0.0 1.0 0.0
  outer loop
    vertex 24.98278590443459 -18.870854583405087 1.3604943991026888
    vertex 0.017214095565435506 -18.870854583405087 1.3604943991026877
    vertex 0.1823725421878942 -18.870854583405087 2.0225424859373686
  endloop
endfacet
facet normal 0.0 1.0 0.0
  outer loop
    vertex 24.98278590443459 -18.870854583405087 1.3604943991026888
    vertex 0.1823725421878942 -18.870854583405087 2.0225424859373686
    vertex 24.81762745781213 -18.870854583405087 2.0225424859373686
  endloop
endfacet
facet normal 0.0 1.0 0.0
  outer loop
    vertex 24.81762745781213 -18.870854583405087 2.0225424859373686
    vertex 0.1823725421878942 -18.870854583405087 2.0225424859373686
    vertex 24.552525363009288 -18.870854583405087 2.6512760233785873
  endloop
endfacet
facet normal 0.0 1.0 0.0
  outer loop
    vertex 24.552525363009288 -18.870854583405087 2.6512760233785873
    vertex 0.1823725421878942 -18.870854583405087 2.0225424859373686
    vertex 0.44747463699073703 -18.870854583405087 2.651276023378589
  endloop
endfacet
facet normal 0.0 1.0 0.0
  outer loop
    vertex 24.552525363009288 -18.870854583405087 2.6512760233785873
    vertex 0.44747463699073703 -18.870854583405087 2.651276023378589
    vertex 24.193799110789666 -18.870854583405087 3.231707292126805
  endloop
endfacet
facet normal 0.0 1.0 0.0
  outer loop
    vertex 24.193799110789666 -18.870854583405087 3.231707292126805
    vertex 0.44747463699073703 -18.870854583405087 2.651276023378589
    vertex 0.8062008892103601 -18.870854583405087 3.2317072921268077
  endloop
endfacet
facet normal 0.0 1.0 0.0
  outer loop
    vertex 24.193799110789666 -18.870854583405087 3.231707292126805
    vertex 0.8062008892103601 -18.870854583405087 3.2317072921268077
    vertex 23.750000000000025 -18.870854583405087 3.7499999999999996
  endloop
endfacet
facet normal 0.0 1.0 0.0
  outer loop
    vertex 23.750000000000025 -18.870854583405087 3.7499999999999996
    vertex 0.8062008892103601 -18.870854583405087 3.2317072921268077
    vertex 1.2500000000000016 -18.870854583405087 3.750000000000001
  endloop
endfacet
facet normal 0.0 1.0 0.0
  outer loop
    vertex 23.750000000000025 -18.870854583405087 3.7499999999999996
    vertex 1.2500000000000016 -18.870854583405087 3.750000000000001
    vertex 23.23170729212683 -18.870854583405087 4.193799110789641
  endloop
endfacet
facet normal 0.0 1.0 0.0
  outer loop
    vertex 23.23170729212683 -18.870854583405087 4.193799110789641
    vertex 1.2500000000000016 -18.870854583405087 3.750000000000001
    vertex 1.7682927078731958 -18.870854583405087 4.193799110789643
  endloop
endfacet
facet normal 0.0 1.0 0.0
  outer loop
    vertex 23.23170729212683 -18.870854583405087 4.193799110789641
    vertex 1.7682927078731958 -18.870854583405087 4.193799110789643
    vertex 22.651276023378614 -18.870854583405087 4.5525253630092655
  endloop
endfacet
facet normal 0.0 1.0 0.0
  outer loop
    vertex 22.651276023378614 -18.870854583405087 4.5525253630092655
    vertex 1.7682927078731958 -18.870854583405087 4.193799110789643
    vertex 2.348723976621415 -18.870854583405087 4.5525253630092655
  endloop
endfacet
facet normal 0.0 1.0 0.0
  outer loop
    vertex 22.651276023378614 -18.870854583405087 4.5525253630092655
    vertex 2.348723976621415 -18.870854583405087 4.5525253630092655
    vertex 2.977457514062635 -18.870854583405087 4.817627457812107
  endloop
endfacet
facet normal 0.0 1.0 0.0
  outer loop
    vertex 22.651276023378614 -18.870854583405087 4.5525253630092655
    vertex 2.977457514062635 -18.870854583405087 4.817627457812107
    vertex 22.022542485937393 -18.870854583405087 4.817627457812105
  endloop
endfacet
facet normal 0.0 1.0 0.0
  outer loop
    vertex 22.022542485937393 -18.870854583405087 4.817627457812105
    vertex 2.977457514062635 -18.870854583405087 4.817627457812107
    vertex 21.360494399102713 -18.870854583405087 4.9827859044345635
  endloop
endfacet
facet normal 0.0 1.0 0.0
  outer loop
    vertex 21.360494399102713 -18.870854583405087 4.9827859044345635
    vertex 2.977457514062635 -18.870854583405087 4.817627457812107
    vertex 3.6395056008973152 -18.870854583405087 4.982785904434565
  endloop
endfacet
facet normal -0.31622776601683794 0.0 0.9486832980505139
  outer loop
    vertex 2.977457514062635 -17.562071035587753 4.817627457812107
    vertex 2.348723976621415 -12.562071035587753 4.5525253630092655
    vertex 2.348723976621415 -17.562071035587753 4.5525253630092655
  endloop
endfacet
facet normal -0.45849392533974714 0.0 0.8886975415891228
  outer loop
    vertex 2.348723976621415 -12.562071035587753 4.5525253630092655
    vertex 2.977457514062635 -17.562071035587753 4.817627457812107
    vertex 2.977457514062635 -12.562071035587753 4.817627457812107
  endloop
endfacet
facet normal 0.0 -1.0 0.0
  outer loop
    vertex 24.98278590443459 -17.562071035587753 1.3604943991026888
    vertex 0.0 -17.562071035587753 0.0
    vertex 25.00000000000002 -17.562071035587753 0.0
  endloop
endfacet
facet normal 0.0 -1.0 0.0
  outer loop
    vertex 0.0 -17.562071035587753 0.0
    vertex 24.98278590443459 -17.562071035587753 1.3604943991026888
    vertex 0.0 -17.562071035587753 1.1695871538540639
  endloop
endfacet
facet normal 0.0 -1.0 0.0
  outer loop
    vertex 0.0 -17.562071035587753 1.1695871538540639
    vertex 24.98278590443459 -17.562071035587753 1.3604943991026888
    vertex 0.017214095565435506 -17.562071035587753 1.3604943991026877
  endloop
endfacet
facet normal 0.0 -1.0 0.0
  outer loop
    vertex 0.017214095565435506 -17.562071035587753 1.3604943991026877
    vertex 24.98278590443459 -17.562071035587753 1.3604943991026888
    vertex 0.1823725421878942 -17.562071035587753 2.0225424859373686
  endloop
endfacet
facet normal 0.0 -1.0 0.0
  outer loop
    vertex 0.1823725421878942 -17.562071035587753 2.0225424859373686
    vertex 24.98278590443459 -17.562071035587753 1.3604943991026888
    vertex 24.81762745781213 -17.562071035587753 2.0225424859373686
  endloop
endfacet
facet normal 0.0 -1.0 0.0
  outer loop
    vertex 0.1823725421878942 -17.562071035587753 2.0225424859373686
    vertex 24.81762745781213 -17.562071035587753 2.0225424859373686
    vertex 24.552525363009288 -17.562071035587753 2.6512760233785873
  endloop
endfacet
facet normal 0.0 -1.0 0.0
  outer loop
    vertex 0.1823725421878942 -17.562071035587753 2.0225424859373686
    vertex 24.552525363009288 -17.562071035587753 2.6512760233785873
    vertex 0.44747463699073703 -17.562071035587753 2.651276023378589
  endloop
endfacet
facet normal 0.0 -1.0 0.0
  outer loop
    vertex 0.44747463699073703 -17.562071035587753 2.651276023378589
    vertex 24.552525363009288 -17.562071035587753 2.6512760233785873
    vertex 24.193799110789666 -17.562071035587753 3.231707292126805
  endloop
endfacet
facet normal 0.0 -1.0 0.0
  outer loop
    vertex 0.44747463699073703 -17.562071035587753 2.651276023378589
    vertex 24.193799110789666 -17.562071035587753 3.231707292126805
    vertex 0.8062008892103601 -17.562071035587753 3.2317072921268077
  endloop
endfacet
facet normal 0.0 -1.0 0.0
  outer loop
    vertex 0.8062008892103601 -17.562071035587753 3.2317072921268077
    vertex 24.193799110789666 -17.562071035587753 3.231707292126805
    vertex 23.750000000000025 -17.562071035587753 3.7499999999999996
  endloop
endfacet
facet normal 0.0 -1.0 0.0
  outer loop
    vertex 0.8062008892103601 -17.562071035587753 3.2317072921268077
    vertex 23.750000000000025 -17.562071035587753 3.7499999999999996
    vertex 1.2500000000000016 -17.562071035587753 3.750000000000001
  endloop
endfacet
facet normal 0.0 -1.0 0.0
  outer loop
    vertex 1.2500000000000016 -17.562071035587753 3.750000000000001
    vertex 23.750000000000025 -17.562071035587753 3.7499999999999996
    vertex 23.23170729212683 -17.562071035587753 4.193799110789641
  endloop
endfacet
facet normal 0.0 -1.0 0.0
  outer loop
    vertex 1.2500000000000016 -17.562071035587753 3.750000000000001
    vertex 23.23170729212683 -17.562071035587753 4.193799110789641
    vertex 1.7682927078731958 -17.562071035587753 4.193799110789643
  endloop
endfacet
facet normal 0.0 -1.0 0.0
  outer loop
    vertex 1.7682927078731958 -17.562071035587753 4.193799110789643
    vertex 23.23170729212683 -17.562071035587753 4.193799110789641
    vertex 22.651276023378614 -17.562071035587753 4.5525253630092655
  endloop
endfacet
facet normal 0.0 -1.0 0.0
  outer loop
    vertex 1.7682927078731958 -17.562071035587753 4.193799110789643
    vertex 22.651276023378614 -17.562071035587753 4.5525253630092655
    vertex 2.348723976621415 -17.562071035587753 4.5525253630092655
  endloop
endfacet
facet normal 0.0 -1.0 0.0
  outer loop
    vertex 2.348723976621415 -17.562071035587753 4.5525253630092655
    vertex 22.651276023378614 -17.562071035587753 4.5525253630092655
    vertex 22.022542485937393 -17.562071035587753 4.817627457812105
  endloop
endfacet
facet normal 0.0 -1.0 0.0
  outer loop
    vertex 2.348723976621415 -17.562071035587753 4.5525253630092655
    vertex 22.022542485937393 -17.562071035587753 4.817627457812105
    vertex 2.977457514062635 -17.562071035587753 4.817627457812107
  endloop
endfacet
facet normal 0.0 -1.0 0.0
  outer loop
    vertex 2.977457514062635 -17.562071035587753 4.817627457812107
    vertex 22.022542485937393 -17.562071035587753 4.817627457812105
    vertex 21.360494399102713 -17.562071035587753 4.9827859044345635
  endloop
endfacet
facet normal 0.0 -1.0 0.0
  outer loop
    vertex 2.977457514062635 -17.562071035587753 4.817627457812107
    vertex 21.360494399102713 -17.562071035587753 4.9827859044345635
    vertex 3.6395056008973152 -17.562071035587753 4.982785904434565
  endloop
endfacet
facet normal 0.0 -1.0 0.0
  outer loop
    vertex 3.6395056008973152 -17.562071035587753 4.982785904434565
    vertex 21.360494399102713 -17.562071035587753 4.9827859044345635
    vertex 3.8304128461459337 -17.562071035587753 5.0
  endloop
endfacet
facet normal -0.8075270566182003 0.0 0.589830528906012
  outer loop
    vertex 0.8062008892103601 -18.870854583405087 3.2317072921268077
    vertex 0.44747463699073703 -23.870854583405084 2.651276023378589
    vertex 0.8062008892103601 -23.870854583405084 3.2317072921268077
  endloop
endfacet
facet normal -0.8886975415891224 0.0 0.4584939253397479
  outer loop
    vertex 0.44747463699073703 -23.870854583405084 2.651276023378589
    vertex 0.8062008892103601 -18.870854583405087 3.2317072921268077
    vertex 0.44747463699073703 -18.870854583405087 2.651276023378589
  endloop
endfacet
facet normal 0.8506508083520394 0.0 0.5257311121191345
  outer loop
    vertex 24.552525363009288 -18.870854583405087 2.6512760233785873
    vertex 24.193799110789666 -23.870854583405084 3.231707292126805
    vertex 24.552525363009288 -23.870854583405084 2.6512760233785873
  endloop
endfacet
facet normal 0.8506508083520394 0.0 0.5257311121191345
  outer loop
    vertex 24.193799110789666 -23.870854583405084 3.231707292126805
    vertex 24.552525363009288 -18.870854583405087 2.6512760233785873
    vertex 24.193799110789666 -18.870854583405087 3.231707292126805
  endloop
endfacet
facet normal -0.24204789385063996 0.0 0.9702643026941007
  outer loop
    vertex 3.6395056008973152 -23.870854583405084 4.982785904434565
    vertex 2.977457514062635 -18.870854583405087 4.817627457812107
    vertex 2.977457514062635 -23.870854583405084 4.817627457812107
  endloop
endfacet
facet normal -0.31622776601683794 0.0 0.9486832980505139
  outer loop
    vertex 2.977457514062635 -18.870854583405087 4.817627457812107
    vertex 3.6395056008973152 -23.870854583405084 4.982785904434565
    vertex 3.6395056008973152 -18.870854583405087 4.982785904434565
  endloop
endfacet
facet normal 0.5257311121191354 0.0 0.8506508083520388
  outer loop
    vertex 23.23170729212683 -23.870854583405084 4.193799110789641
    vertex 22.651276023378614 -18.870854583405087 4.5525253630092655
    vertex 22.651276023378614 -23.870854583405084 4.5525253630092655
  endloop
endfacet
facet normal 0.5257311121191354 0.0 0.8506508083520388
  outer loop
    vertex 22.651276023378614 -18.870854583405087 4.5525253630092655
    vertex 23.23170729212683 -23.870854583405084 4.193799110789641
    vertex 23.23170729212683 -18.870854583405087 4.193799110789641
  endloop
endfacet
facet normal 0.9214401784656658 0.0 0.38852026653594524
  outer loop
    vertex 24.81762745781213 -18.870854583405087 2.0225424859373686
    vertex 24.552525363009288 -23.870854583405084 2.6512760233785873
    vertex 24.81762745781213 -23.870854583405084 2.0225424859373686
  endloop
endfacet
facet normal 0.9214401784656658 0.0 0.38852026653594524
  outer loop
    vertex 24.552525363009288 -23.870854583405084 2.6512760233785873
    vertex 24.81762745781213 -18.870854583405087 2.0225424859373686
    vertex 24.552525363009288 -18.870854583405087 2.6512760233785873
  endloop
endfacet
facet normal -0.7071067811865475 0.0 0.7071067811865477
  outer loop
    vertex 1.2500000000000016 -18.870854583405087 3.750000000000001
    vertex 0.8062008892103601 -23.870854583405084 3.2317072921268077
    vertex 1.2500000000000016 -23.870854583405084 3.750000000000001
  endloop
endfacet
facet normal -0.8075270566182003 0.0 0.589830528906012
  outer loop
    vertex 0.8062008892103601 -23.870854583405084 3.2317072921268077
    vertex 1.2500000000000016 -18.870854583405087 3.750000000000001
    vertex 0.8062008892103601 -18.870854583405087 3.2317072921268077
  endloop
endfacet
facet normal 0.0 -1.0 0.0
  outer loop
    vertex 24.98278590443459 -23.870854583405084 1.3604943991026888
    vertex 0.0 -23.870854583405084 0.0
    vertex 25.00000000000002 -23.870854583405084 0.0
  endloop
endfacet
facet normal 0.0 -1.0 0.0
  outer loop
    vertex 0.0 -23.870854583405084 0.0
    vertex 24.98278590443459 -23.870854583405084 1.3604943991026888
    vertex 0.0 -23.870854583405084 1.1695871538540639
  endloop
endfacet
facet normal 0.0 -1.0 0.0
  outer loop
    vertex 0.0 -23.870854583405084 1.1695871538540639
    vertex 24.98278590443459 -23.870854583405084 1.3604943991026888
    vertex 0.017214095565435506 -23.870854583405084 1.3604943991026877
  endloop
endfacet
facet normal 0.0 -1.0 0.0
  outer loop
    vertex 0.017214095565435506 -23.870854583405084 1.3604943991026877
    vertex 24.98278590443459 -23.870854583405084 1.3604943991026888
    vertex 0.1823725421878942 -23.870854583405084 2.0225424859373686
  endloop
endfacet
facet normal 0.0 -1.0 0.0
  outer loop
    vertex 0.1823725421878942 -23.870854583405084 2.0225424859373686
    vertex 24.98278590443459 -23.870854583405084 1.3604943991026888
    vertex 24.81762745781213 -23.870854583405084 2.0225424859373686
  endloop
endfacet
facet normal 0.0 -1.0 0.0
  outer loop
    vertex 0.1823725421878942 -23.870854583405084 2.0225424859373686
    vertex 24.81762745781213 -23.870854583405084 2.0225424859373686
    vertex 24.552525363009288 -23.870854583405084 2.6512760233785873
  endloop
endfacet
facet normal 0.0 -1.0 0.0
  outer loop
    vertex 0.1823725421878942 -23.870854583405084 2.0225424859373686
    vertex 24.552525363009288 -23.870854583405084 2.6512760233785873
    vertex 0.44747463699073703 -23.870854583405084 2.651276023378589
  endloop
endfacet
facet normal 0.0 -1.0 0.0
  outer loop
    vertex 0.44747463699073703 -23.870854583405084 2.651276023378589
    vertex 24.552525363009288 -23.870854583405084 2.6512760233785873
    vertex 24.193799110789666 -23.870854583405084 3.231707292126805
  endloop
endfacet
facet normal 0.0 -1.0 0.0
  outer loop
    vertex 0.44747463699073703 -23.870854583405084 2.651276023378589
    vertex 24.193799110789666 -23.870854583405084 3.231707292126805
    vertex 0.8062008892103601 -23.870854583405084 3.2317072921268077
  endloop
endfacet
facet normal 0.0 -1.0 0.0
  outer loop
    vertex 0.8062008892103601 -23.870854583405084 3.2317072921268077
    vertex 24.193799110789666 -23.870854583405084 3.231707292126805
    vertex 23.750000000000025 -23.870854583405084 3.7499999999999996
  endloop
endfacet
facet normal 0.0 -1.0 0.0
  outer loop
    vertex 0.8062008892103601 -23.870854583405084 3.2317072921268077
    vertex 23.750000000000025 -23.870854583405084 3.7499999999999996
    vertex 1.2500000000000016 -23.870854583405084 3.750000000000001
  endloop
endfacet
facet normal 0.0 -1.0 0.0
  outer loop
    vertex 1.2500000000000016 -23.870854583405084 3.750000000000001
    vertex 23.750000000000025 -23.870854583405084 3.7499999999999996
    vertex 23.23170729212683 -23.870854583405084 4.193799110789641
  endloop
endfacet
facet normal 0.0 -1.0 0.0
  outer loop
    vertex 1.2500000000000016 -23.870854583405084 3.750000000000001
    vertex 23.23170729212683 -23.870854583405084 4.193799110789641
    vertex 1.7682927078731958 -23.870854583405084 4.193799110789643
  endloop
endfacet
facet normal 0.0 -1.0 0.0
  outer loop
    vertex 1.7682927078731958 -23.870854583405084 4.193799110789643
    vertex 23.23170729212683 -23.870854583405084 4.193799110789641
    vertex 22.651276023378614 -23.870854583405084 4.5525253630092655
  endloop
endfacet
facet normal 0.0 -1.0 0.0
  outer loop
    vertex 1.7682927078731958 -23.870854583405084 4.193799110789643
    vertex 22.651276023378614 -23.870854583405084 4.5525253630092655
    vertex 2.348723976621415 -23.870854583405084 4.5525253630092655
  endloop
endfacet
facet normal 0.0 -1.0 0.0
  outer loop
    vertex 2.348723976621415 -23.870854583405084 4.5525253630092655
    vertex 22.651276023378614 -23.870854583405084 4.5525253630092655
    vertex 22.022542485937393 -23.870854583405084 4.817627457812105
  endloop
endfacet
facet normal 0.0 -1.0 0.0
  outer loop
    vertex 2.348723976621415 -23.870854583405084 4.5525253630092655
    vertex 22.022542485937393 -23.870854583405084 4.817627457812105
    vertex 2.977457514062635 -23.870854583405084 4.817627457812107
  endloop
endfacet
facet normal 0.0 -1.0 0.0
  outer loop
    vertex 2.977457514062635 -23.870854583405084 4.817627457812107
    vertex 22.022542485937393 -23.870854583405084 4.817627457812105
    vertex 21.360494399102713 -23.870854583405084 4.9827859044345635
  endloop
endfacet
facet normal 0.0 -1.0 0.0
  outer loop
    vertex 2.977457514062635 -23.870854583405084 4.817627457812107
    vertex 21.360494399102713 -23.870854583405084 4.9827859044345635
    vertex 3.6395056008973152 -23.870854583405084 4.982785904434565
  endloop
endfacet
facet normal 0.0 -1.0 0.0
  outer loop
    vertex 3.6395056008973152 -23.870854583405084 4.982785904434565
    vertex 21.360494399102713 -23.870854583405084 4.9827859044345635
    vertex 3.8304128461459337 -23.870854583405084 5.0
  endloop
endfacet
facet normal -0.8886975415891224 0.0 0.4584939253397479
  outer loop
    vertex 0.44747463699073703 -18.870854583405087 2.651276023378589
    vertex 0.1823725421878942 -23.870854583405084 2.0225424859373686
    vertex 0.44747463699073703 -23.870854583405084 2.651276023378589
  endloop
endfacet
facet normal -0.9486832980505137 0.0 0.31622776601683866
  outer loop
    vertex 0.1823725421878942 -23.870854583405084 2.0225424859373686
    vertex 0.44747463699073703 -18.870854583405087 2.651276023378589
    vertex 0.1823725421878942 -18.870854583405087 2.0225424859373686
  endloop
endfacet
facet normal -0.31622776601683794 0.0 0.9486832980505139
  outer loop
    vertex 2.977457514062635 -23.870854583405084 4.817627457812107
    vertex 2.348723976621415 -18.870854583405087 4.5525253630092655
    vertex 2.348723976621415 -23.870854583405084 4.5525253630092655
  endloop
endfacet
facet normal -0.45849392533974714 0.0 0.8886975415891228
  outer loop
    vertex 2.348723976621415 -18.870854583405087 4.5525253630092655
    vertex 2.977457514062635 -23.870854583405084 4.817627457812107
    vertex 2.977457514062635 -18.870854583405087 4.817627457812107
  endloop
endfacet
facet normal -0.5898305289060114 0.0 0.807527056618201
  outer loop
    vertex 1.7682927078731958 -23.870854583405084 4.193799110789643
    vertex 1.2500000000000016 -18.870854583405087 3.750000000000001
    vertex 1.2500000000000016 -23.870854583405084 3.750000000000001
  endloop
endfacet
facet normal -0.7071067811865475 0.0 0.7071067811865477
  outer loop
    vertex 1.2500000000000016 -18.870854583405087 3.750000000000001
    vertex 1.7682927078731958 -23.870854583405084 4.193799110789643
    vertex 1.7682927078731958 -18.870854583405087 4.193799110789643
  endloop
endfacet
facet normal 0.9702643026941 0.0 0.24204789385064227
  outer loop
    vertex 24.98278590443459 -18.870854583405087 1.3604943991026888
    vertex 24.81762745781213 -23.870854583405084 2.0225424859373686
    vertex 24.98278590443459 -23.870854583405084 1.3604943991026888
  endloop
endfacet
facet normal 0.9702643026941 0.0 0.24204789385064227
  outer loop
    vertex 24.81762745781213 -23.870854583405084 2.0225424859373686
    vertex 24.98278590443459 -18.870854583405087 1.3604943991026888
    vertex 24.81762745781213 -18.870854583405087 2.0225424859373686
  endloop
endfacet
facet normal 0.6504096051773629 0.0 0.7595836658940389
  outer loop
    vertex 23.750000000000025 -23.870854583405084 3.7499999999999996
    vertex 23.23170729212683 -18.870854583405087 4.193799110789641
    vertex 23.23170729212683 -23.870854583405084 4.193799110789641
  endloop
endfacet
facet normal 0.6504096051773629 0.0 0.7595836658940389
  outer loop
    vertex 23.23170729212683 -18.870854583405087 4.193799110789641
    vertex 23.750000000000025 -23.870854583405084 3.7499999999999996
    vertex 23.750000000000025 -18.870854583405087 3.7499999999999996
  endloop
endfacet
facet normal -0.8886975415891224 0.0 0.4584939253397479
  outer loop
    vertex 0.44747463699073703 -6.625098260247746 2.651276023378589
    vertex 0.1823725421878942 -11.625098260247746 2.0225424859373686
    vertex 0.44747463699073703 -11.625098260247746 2.651276023378589
  endloop
endfacet
facet normal -0.9486832980505137 0.0 0.31622776601683866
  outer loop
    vertex 0.1823725421878942 -11.625098260247746 2.0225424859373686
    vertex 0.44747463699073703 -6.625098260247746 2.651276023378589
    vertex 0.1823725421878942 -6.625098260247746 2.0225424859373686
  endloop
endfacet
facet normal -0.9999470432749413 0.0009081922291074385 0.010251138111345799
  outer loop
    vertex 0.017214095565435506 -6.625098260247746 1.3604943991026877
    vertex 0.0 -11.625098260247746 1.1695871538540639
    vertex 0.017214095565435506 -11.625098260247746 1.3604943991026877
  endloop
endfacet
facet normal -0.9999470432749413 0.0009081922291074385 0.010251138111345799
  outer loop
    vertex 0.0 -11.625098260247746 1.1695871538540639
    vertex 0.017214095565435506 -6.625098260247746 1.3604943991026877
    vertex 0.0 -11.625098260247746 0.0
  endloop
endfacet
facet normal -0.9999470432749413 0.0009081922291074385 0.010251138111345799
  outer loop
    vertex 0.0 -11.625098260247746 0.0
    vertex 0.017214095565435506 -6.625098260247746 1.3604943991026877
    vertex 0.0 -6.625098260247746 0.0
  endloop
endfacet
facet normal -0.8075270566182003 0.0 0.589830528906012
  outer loop
    vertex 0.8062008892103601 -6.625098260247746 3.2317072921268077
    vertex 0.44747463699073703 -11.625098260247746 2.651276023378589
    vertex 0.8062008892103601 -11.625098260247746 3.2317072921268077
  endloop
endfacet
facet normal -0.8886975415891224 0.0 0.4584939253397479
  outer loop
    vertex 0.44747463699073703 -11.625098260247746 2.651276023378589
    vertex 0.8062008892103601 -6.625098260247746 3.2317072921268077
    vertex 0.44747463699073703 -6.625098260247746 2.651276023378589
  endloop
endfacet
facet normal -0.24204789385063996 0.0 0.9702643026941007
  outer loop
    vertex 3.6395056008973152 -11.625098260247746 4.982785904434565
    vertex 2.977457514062635 -6.625098260247746 4.817627457812107
    vertex 2.977457514062635 -11.625098260247746 4.817627457812107
  endloop
endfacet
facet normal -0.31622776601683794 0.0 0.9486832980505139
  outer loop
    vertex 2.977457514062635 -6.625098260247746 4.817627457812107
    vertex 3.6395056008973152 -11.625098260247746 4.982785904434565
    vertex 3.6395056008973152 -6.625098260247746 4.982785904434565
  endloop
endfacet
facet normal -0.45849392533974714 0.0 0.8886975415891228
  outer loop
    vertex 2.348723976621415 -11.625098260247746 4.5525253630092655
    vertex 1.7682927078731958 -6.625098260247746 4.193799110789643
    vertex 1.7682927078731958 -11.625098260247746 4.193799110789643
  endloop
endfacet
facet normal -0.5898305289060114 0.0 0.807527056618201
  outer loop
    vertex 1.7682927078731958 -6.625098260247746 4.193799110789643
    vertex 2.348723976621415 -11.625098260247746 4.5525253630092655
    vertex 2.348723976621415 -6.625098260247746 4.5525253630092655
  endloop
endfacet
facet normal 0.5257311121191354 0.0 0.8506508083520388
  outer loop
    vertex 23.23170729212683 -11.625098260247746 4.193799110789641
    vertex 22.651276023378614 -6.625098260247746 4.5525253630092655
    vertex 22.651276023378614 -11.625098260247746 4.5525253630092655
  endloop
endfacet
facet normal 0.5257311121191354 0.0 0.8506508083520388
  outer loop
    vertex 22.651276023378614 -6.625098260247746 4.5525253630092655
    vertex 23.23170729212683 -11.625098260247746 4.193799110789641
    vertex 23.23170729212683 -6.625098260247746 4.193799110789641
  endloop
endfacet
facet normal -0.7071067811865475 0.0 0.7071067811865477
  outer loop
    vertex 1.2500000000000016 -6.625098260247746 3.750000000000001
    vertex 0.8062008892103601 -11.625098260247746 3.2317072921268077
    vertex 1.2500000000000016 -11.625098260247746 3.750000000000001
  endloop
endfacet
facet normal -0.8075270566182003 0.0 0.589830528906012
  outer loop
    vertex 0.8062008892103601 -11.625098260247746 3.2317072921268077
    vertex 1.2500000000000016 -6.625098260247746 3.750000000000001
    vertex 0.8062008892103601 -6.625098260247746 3.2317072921268077
  endloop
endfacet
facet normal 0.8506508083520394 0.0 0.5257311121191345
  outer loop
    vertex 24.552525363009288 -6.625098260247746 2.6512760233785873
    vertex 24.193799110789666 -11.625098260247746 3.231707292126805
    vertex 24.552525363009288 -11.625098260247746 2.6512760233785873
  endloop
endfacet
facet normal 0.8506508083520394 0.0 0.5257311121191345
  outer loop
    vertex 24.193799110789666 -11.625098260247746 3.231707292126805
    vertex 24.552525363009288 -6.625098260247746 2.6512760233785873
    vertex 24.193799110789666 -6.625098260247746 3.231707292126805
  endloop
endfacet
facet normal 0.9214401784656658 0.0 0.38852026653594524
  outer loop
    vertex 24.81762745781213 -6.625098260247746 2.0225424859373686
    vertex 24.552525363009288 -11.625098260247746 2.6512760233785873
    vertex 24.81762745781213 -11.625098260247746 2.0225424859373686
  endloop
endfacet
facet normal 0.9214401784656658 0.0 0.38852026653594524
  outer loop
    vertex 24.552525363009288 -11.625098260247746 2.6512760233785873
    vertex 24.81762745781213 -6.625098260247746 2.0225424859373686
    vertex 24.552525363009288 -6.625098260247746 2.6512760233785873
  endloop
endfacet
facet normal 0.00012266298870190114 0.0020231497258865264 0.9999979459073793
  outer loop
    vertex 3.8304128461459337 -17.562071035587753 5.0
    vertex 3.6395056008973152 -12.562071035587753 4.982785904434565
    vertex 3.6395056008973152 -17.562071035587753 4.982785904434565
  endloop
endfacet
facet normal 0.00012266298870190114 0.0020231497258865264 0.9999979459073793
  outer loop
    vertex 3.6395056008973152 -12.562071035587753 4.982785904434565
    vertex 3.8304128461459337 -17.562071035587753 5.0
    vertex 21.360494399102713 -12.562071035587753 4.9827859044345635
  endloop
endfacet
facet normal 0.00012266298870190114 0.0020231497258865264 0.9999979459073793
  outer loop
    vertex 21.360494399102713 -12.562071035587753 4.9827859044345635
    vertex 3.8304128461459337 -17.562071035587753 5.0
    vertex 21.360494399102713 -17.562071035587753 4.9827859044345635
  endloop
endfacet
facet normal 0.0 1.0 0.0
  outer loop
    vertex 0.017214095565435506 -12.562071035587753 1.3604943991026877
    vertex 25.00000000000002 -12.562071035587753 0.0
    vertex 0.0 -12.562071035587753 0.0
  endloop
endfacet
facet normal 0.0 1.0 0.0
  outer loop
    vertex 25.00000000000002 -12.562071035587753 0.0
    vertex 0.017214095565435506 -12.562071035587753 1.3604943991026877
    vertex 24.98278590443459 -12.562071035587753 1.3604943991026888
  endloop
endfacet
facet normal 0.0 1.0 0.0
  outer loop
    vertex 24.98278590443459 -12.562071035587753 1.3604943991026888
    vertex 0.017214095565435506 -12.562071035587753 1.3604943991026877
    vertex 0.1823725421878942 -12.562071035587753 2.0225424859373686
  endloop
endfacet
facet normal 0.0 1.0 0.0
  outer loop
    vertex 24.98278590443459 -12.562071035587753 1.3604943991026888
    vertex 0.1823725421878942 -12.562071035587753 2.0225424859373686
    vertex 24.81762745781213 -12.562071035587753 2.0225424859373686
  endloop
endfacet
facet normal 0.0 1.0 0.0
  outer loop
    vertex 24.81762745781213 -12.562071035587753 2.0225424859373686
    vertex 0.1823725421878942 -12.562071035587753 2.0225424859373686
    vertex 24.552525363009288 -12.562071035587753 2.6512760233785873
  endloop
endfacet
facet normal 0.0 1.0 0.0
  outer loop
    vertex 24.552525363009288 -12.562071035587753 2.6512760233785873
    vertex 0.1823725421878942 -12.562071035587753 2.0225424859373686
    vertex 0.44747463699073703 -12.562071035587753 2.651276023378589
  endloop
endfacet
facet normal 0.0 1.0 0.0
  outer loop
    vertex 24.552525363009288 -12.562071035587753 2.6512760233785873
    vertex 0.44747463699073703 -12.562071035587753 2.651276023378589
    vertex 24.193799110789666 -12.562071035587753 3.231707292126805
  endloop
endfacet
facet normal 0.0 1.0 0.0
  outer loop
    vertex 24.193799110789666 -12.562071035587753 3.231707292126805
    vertex 0.44747463699073703 -12.562071035587753 2.651276023378589
    vertex 0.8062008892103601 -12.562071035587753 3.2317072921268077
  endloop
endfacet
facet normal 0.0 1.0 0.0
  outer loop
    vertex 24.193799110789666 -12.562071035587753 3.231707292126805
    vertex 0.8062008892103601 -12.562071035587753 3.2317072921268077
    vertex 23.750000000000025 -12.562071035587753 3.7499999999999996
  endloop
endfacet
facet normal 0.0 1.0 0.0
  outer loop
    vertex 23.750000000000025 -12.562071035587753 3.7499999999999996
    vertex 0.8062008892103601 -12.562071035587753 3.2317072921268077
    vertex 1.2500000000000016 -12.562071035587753 3.750000000000001
  endloop
endfacet
facet normal 0.0 1.0 0.0
  outer loop
    vertex 23.750000000000025 -12.562071035587753 3.7499999999999996
    vertex 1.2500000000000016 -12.562071035587753 3.750000000000001
    vertex 23.23170729212683 -12.562071035587753 4.193799110789641
  endloop
endfacet
facet normal 0.0 1.0 0.0
  outer loop
    vertex 23.23170729212683 -12.562071035587753 4.193799110789641
    vertex 1.2500000000000016 -12.562071035587753 3.750000000000001
    vertex 1.7682927078731958 -12.562071035587753 4.193799110789643
  endloop
endfacet
facet normal 0.0 1.0 0.0
  outer loop
    vertex 23.23170729212683 -12.562071035587753 4.193799110789641
    vertex 1.7682927078731958 -12.562071035587753 4.193799110789643
    vertex 22.651276023378614 -12.562071035587753 4.5525253630092655
  endloop
endfacet
facet normal 0.0 1.0 0.0
  outer loop
    vertex 22.651276023378614 -12.562071035587753 4.5525253630092655
    vertex 1.7682927078731958 -12.562071035587753 4.193799110789643
    vertex 2.348723976621415 -12.562071035587753 4.5525253630092655
  endloop
endfacet
facet normal 0.0 1.0 0.0
  outer loop
    vertex 22.651276023378614 -12.562071035587753 4.5525253630092655
    vertex 2.348723976621415 -12.562071035587753 4.5525253630092655
    vertex 2.977457514062635 -12.562071035587753 4.817627457812107
  endloop
endfacet
facet normal 0.0 1.0 0.0
  outer loop
    vertex 22.651276023378614 -12.562071035587753 4.5525253630092655
    vertex 2.977457514062635 -12.562071035587753 4.817627457812107
    vertex 22.022542485937393 -12.562071035587753 4.817627457812105
  endloop
endfacet
facet normal 0.0 1.0 0.0
  outer loop
    vertex 22.022542485937393 -12.562071035587753 4.817627457812105
    vertex 2.977457514062635 -12.562071035587753 4.817627457812107
    vertex 21.360494399102713 -12.562071035587753 4.9827859044345635
  endloop
endfacet
facet normal 0.0 1.0 0.0
  outer loop
    vertex 21.360494399102713 -12.562071035587753 4.9827859044345635
    vertex 2.977457514062635 -12.562071035587753 4.817627457812107
    vertex 3.6395056008973152 -12.562071035587753 4.982785904434565
  endloop
endfacet
facet normal 0.0 1.0 0.0
  outer loop
    vertex 0.017214095565435506 -6.625098260247746 1.3604943991026877
    vertex 25.00000000000002 -6.625098260247746 0.0
    vertex 0.0 -6.625098260247746 0.0
  endloop
endfacet
facet normal 0.0 1.0 0.0
  outer loop
    vertex 25.00000000000002 -6.625098260247746 0.0
    vertex 0.017214095565435506 -6.625098260247746 1.3604943991026877
    vertex 24.98278590443459 -6.625098260247746 1.3604943991026888
  endloop
endfacet
facet normal 0.0 1.0 0.0
  outer loop
    vertex 24.98278590443459 -6.625098260247746 1.3604943991026888
    vertex 0.017214095565435506 -6.625098260247746 1.3604943991026877
    vertex 0.1823725421878942 -6.625098260247746 2.0225424859373686
  endloop
endfacet
facet normal 0.0 1.0 0.0
  outer loop
    vertex 24.98278590443459 -6.625098260247746 1.3604943991026888
    vertex 0.1823725421878942 -6.625098260247746 2.0225424859373686
    vertex 24.81762745781213 -6.625098260247746 2.0225424859373686
  endloop
endfacet
facet normal 0.0 1.0 0.0
  outer loop
    vertex 24.81762745781213 -6.625098260247746 2.0225424859373686
    vertex 0.1823725421878942 -6.625098260247746 2.0225424859373686
    vertex 24.552525363009288 -6.625098260247746 2.6512760233785873
  endloop
endfacet
facet normal 0.0 1.0 0.0
  outer loop
    vertex 24.552525363009288 -6.625098260247746 2.6512760233785873
    vertex 0.1823725421878942 -6.625098260247746 2.0225424859373686
    vertex 0.44747463699073703 -6.625098260247746 2.651276023378589
  endloop
endfacet
facet normal 0.0 1.0 0.0
  outer loop
    vertex 24.552525363009288 -6.625098260247746 2.6512760233785873
    vertex 0.44747463699073703 -6.625098260247746 2.651276023378589
    vertex 24.193799110789666 -6.625098260247746 3.231707292126805
  endloop
endfacet
facet normal 0.0 1.0 0.0
  outer loop
    vertex 24.193799110789666 -6.625098260247746 3.231707292126805
    vertex 0.44747463699073703 -6.625098260247746 2.651276023378589
    vertex 0.8062008892103601 -6.625098260247746 3.2317072921268077
  endloop
endfacet
facet normal 0.0 1.0 0.0
  outer loop
    vertex 24.193799110789666 -6.625098260247746 3.231707292126805
    vertex 0.8062008892103601 -6.625098260247746 3.2317072921268077
    vertex 23.750000000000025 -6.625098260247746 3.7499999999999996
  endloop
endfacet
facet normal 0.0 1.0 0.0
  outer loop
    vertex 23.750000000000025 -6.625098260247746 3.7499999999999996
    vertex 0.8062008892103601 -6.625098260247746 3.2317072921268077
    vertex 1.2500000000000016 -6.625098260247746 3.750000000000001
  endloop
endfacet
facet normal 0.0 1.0 0.0
  outer loop
    vertex 23.750000000000025 -6.625098260247746 3.7499999999999996
    vertex 1.2500000000000016 -6.625098260247746 3.750000000000001
    vertex 23.23170729212683 -6.625098260247746 4.193799110789641
  endloop
endfacet
facet normal 0.0 1.0 0.0
  outer loop
    vertex 23.23170729212683 -6.625098260247746 4.193799110789641
    vertex 1.2500000000000016 -6.625098260247746 3.750000000000001
    vertex 1.7682927078731958 -6.625098260247746 4.193799110789643
  endloop
endfacet
facet normal 0.0 1.0 0.0
  outer loop
    vertex 23.23170729212683 -6.625098260247746 4.193799110789641
    vertex 1.7682927078731958 -6.625098260247746 4.193799110789643
    vertex 22.651276023378614 -6.625098260247746 4.5525253630092655
  endloop
endfacet
facet normal 0.0 1.0 0.0
  outer loop
    vertex 22.651276023378614 -6.625098260247746 4.5525253630092655
    vertex 1.7682927078731958 -6.625098260247746 4.193799110789643
    vertex 2.348723976621415 -6.625098260247746 4.5525253630092655
  endloop
endfacet
facet normal 0.0 1.0 0.0
  outer loop
    vertex 22.651276023378614 -6.625098260247746 4.5525253630092655
    vertex 2.348723976621415 -6.625098260247746 4.5525253630092655
    vertex 2.977457514062635 -6.625098260247746 4.817627457812107
  endloop
endfacet
facet normal 0.0 1.0 0.0
  outer loop
    vertex 22.651276023378614 -6.625098260247746 4.5525253630092655
    vertex 2.977457514062635 -6.625098260247746 4.817627457812107
    vertex 22.022542485937393 -6.625098260247746 4.817627457812105
  endloop
endfacet
facet normal 0.0 1.0 0.0
  outer loop
    vertex 22.022542485937393 -6.625098260247746 4.817627457812105
    vertex 2.977457514062635 -6.625098260247746 4.817627457812107
    vertex 21.360494399102713 -6.625098260247746 4.9827859044345635
  endloop
endfacet
facet normal 0.0 1.0 0.0
  outer loop
    vertex 21.360494399102713 -6.625098260247746 4.9827859044345635
    vertex 2.977457514062635 -6.625098260247746 4.817627457812107
    vertex 3.6395056008973152 -6.625098260247746 4.982785904434565
  endloop
endfacet
facet normal 0.7595836658940394 0.0 0.6504096051773623
  outer loop
    vertex 24.193799110789666 -6.625098260247746 3.231707292126805
    vertex 23.750000000000025 -11.625098260247746 3.7499999999999996
    vertex 24.193799110789666 -11.625098260247746 3.231707292126805
  endloop
endfacet
facet normal 0.7595836658940394 0.0 0.6504096051773623
  outer loop
    vertex 23.750000000000025 -11.625098260247746 3.7499999999999996
    vertex 24.193799110789666 -6.625098260247746 3.231707292126805
    vertex 23.750000000000025 -6.625098260247746 3.7499999999999996
  endloop
endfacet
facet normal 0.38852026653594707 0.0 0.9214401784656652
  outer loop
    vertex 22.651276023378614 -11.625098260247746 4.5525253630092655
    vertex 22.022542485937393 -6.625098260247746 4.817627457812105
    vertex 22.022542485937393 -11.625098260247746 4.817627457812105
  endloop
endfacet
facet normal 0.38852026653594707 0.0 0.9214401784656652
  outer loop
    vertex 22.022542485937393 -6.625098260247746 4.817627457812105
    vertex 22.651276023378614 -11.625098260247746 4.5525253630092655
    vertex 22.651276023378614 -6.625098260247746 4.5525253630092655
  endloop
endfacet
facet normal -0.9486832980505137 0.0 0.31622776601683866
  outer loop
    vertex 0.1823725421878942 -6.625098260247746 2.0225424859373686
    vertex 0.017214095565435506 -11.625098260247746 1.3604943991026877
    vertex 0.1823725421878942 -11.625098260247746 2.0225424859373686
  endloop
endfacet
facet normal -0.9702643026941005 0.0 0.24204789385064074
  outer loop
    vertex 0.017214095565435506 -11.625098260247746 1.3604943991026877
    vertex 0.1823725421878942 -6.625098260247746 2.0225424859373686
    vertex 0.017214095565435506 -6.625098260247746 1.3604943991026877
  endloop
endfacet
facet normal 0.6504096051773629 0.0 0.7595836658940389
  outer loop
    vertex 23.750000000000025 -11.625098260247746 3.7499999999999996
    vertex 23.23170729212683 -6.625098260247746 4.193799110789641
    vertex 23.23170729212683 -11.625098260247746 4.193799110789641
  endloop
endfacet
facet normal 0.6504096051773629 0.0 0.7595836658940389
  outer loop
    vertex 23.23170729212683 -6.625098260247746 4.193799110789641
    vertex 23.750000000000025 -11.625098260247746 3.7499999999999996
    vertex 23.750000000000025 -6.625098260247746 3.7499999999999996
  endloop
endfacet
facet normal -0.5898305289060114 0.0 0.807527056618201
  outer loop
    vertex 1.7682927078731958 -11.625098260247746 4.193799110789643
    vertex 1.2500000000000016 -6.625098260247746 3.750000000000001
    vertex 1.2500000000000016 -11.625098260247746 3.750000000000001
  endloop
endfacet
facet normal -0.7071067811865475 0.0 0.7071067811865477
  outer loop
    vertex 1.2500000000000016 -6.625098260247746 3.750000000000001
    vertex 1.7682927078731958 -11.625098260247746 4.193799110789643
    vertex 1.7682927078731958 -6.625098260247746 4.193799110789643
  endloop
endfacet
facet normal -0.31622776601683794 0.0 0.9486832980505139
  outer loop
    vertex 2.977457514062635 -11.625098260247746 4.817627457812107
    vertex 2.348723976621415 -6.625098260247746 4.5525253630092655
    vertex 2.348723976621415 -11.625098260247746 4.5525253630092655
  endloop
endfacet
facet normal -0.45849392533974714 0.0 0.8886975415891228
  outer loop
    vertex 2.348723976621415 -6.625098260247746 4.5525253630092655
    vertex 2.977457514062635 -11.625098260247746 4.817627457812107
    vertex 2.977457514062635 -6.625098260247746 4.817627457812107
  endloop
endfacet
facet normal 0.9702643026941 0.0 0.24204789385064227
  outer loop
    vertex 24.98278590443459 -6.625098260247746 1.3604943991026888
    vertex 24.81762745781213 -11.625098260247746 2.0225424859373686
    vertex 24.98278590443459 -11.625098260247746 1.3604943991026888
  endloop
endfacet
facet normal 0.9702643026941 0.0 0.24204789385064227
  outer loop
    vertex 24.81762745781213 -11.625098260247746 2.0225424859373686
    vertex 24.98278590443459 -6.625098260247746 1.3604943991026888
    vertex 24.81762745781213 -6.625098260247746 2.0225424859373686
  endloop
endfacet
facet normal 0.9999199626381676 0.0 0.012651810846109559
  outer loop
    vertex 25.00000000000002 -6.625098260247746 0.0
    vertex 24.98278590443459 -11.625098260247746 1.3604943991026888
    vertex 25.00000000000002 -11.625098260247746 0.0
  endloop
endfacet
facet normal 0.9999199626381676 0.0 0.012651810846109559
  outer loop
    vertex 24.98278590443459 -11.625098260247746 1.3604943991026888
    vertex 25.00000000000002 -6.625098260247746 0.0
    vertex 24.98278590443459 -6.625098260247746 1.3604943991026888
  endloop
endfacet
facet normal 0.0 -1.0 0.0
  outer loop
    vertex 24.98278590443459 -11.625098260247746 1.3604943991026888
    vertex 0.0 -11.625098260247746 0.0
    vertex 25.00000000000002 -11.625098260247746 0.0
  endloop
endfacet
facet normal 0.0 -1.0 0.0
  outer loop
    vertex 0.0 -11.625098260247746 0.0
    vertex 24.98278590443459 -11.625098260247746 1.3604943991026888
    vertex 0.0 -11.625098260247746 1.1695871538540639
  endloop
endfacet
facet normal 0.0 -1.0 0.0
  outer loop
    vertex 0.0 -11.625098260247746 1.1695871538540639
    vertex 24.98278590443459 -11.625098260247746 1.3604943991026888
    vertex 0.017214095565435506 -11.625098260247746 1.3604943991026877
  endloop
endfacet
facet normal 0.0 -1.0 0.0
  outer loop
    vertex 0.017214095565435506 -11.625098260247746 1.3604943991026877
    vertex 24.98278590443459 -11.625098260247746 1.3604943991026888
    vertex 0.1823725421878942 -11.625098260247746 2.0225424859373686
  endloop
endfacet
facet normal 0.0 -1.0 0.0
  outer loop
    vertex 0.1823725421878942 -11.625098260247746 2.0225424859373686
    vertex 24.98278590443459 -11.625098260247746 1.3604943991026888
    vertex 24.81762745781213 -11.625098260247746 2.0225424859373686
  endloop
endfacet
facet normal 0.0 -1.0 0.0
  outer loop
    vertex 0.1823725421878942 -11.625098260247746 2.0225424859373686
    vertex 24.81762745781213 -11.625098260247746 2.0225424859373686
    vertex 24.552525363009288 -11.625098260247746 2.6512760233785873
  endloop
endfacet
facet normal 0.0 -1.0 0.0
  outer loop
    vertex 0.1823725421878942 -11.625098260247746 2.0225424859373686
    vertex 24.552525363009288 -11.625098260247746 2.6512760233785873
    vertex 0.44747463699073703 -11.625098260247746 2.651276023378589
  endloop
endfacet
facet normal 0.0 -1.0 0.0
  outer loop
    vertex 0.44747463699073703 -11.625098260247746 2.651276023378589
    vertex 24.552525363009288 -11.625098260247746 2.6512760233785873
    vertex 24.193799110789666 -11.625098260247746 3.231707292126805
  endloop
endfacet
facet normal 0.0 -1.0 0.0
  outer loop
    vertex 0.44747463699073703 -11.625098260247746 2.651276023378589
    vertex 24.193799110789666 -11.625098260247746 3.231707292126805
    vertex 0.8062008892103601 -11.625098260247746 3.2317072921268077
  endloop
endfacet
facet normal 0.0 -1.0 0.0
  outer loop
    vertex 0.8062008892103601 -11.625098260247746 3.2317072921268077
    vertex 24.193799110789666 -11.625098260247746 3.231707292126805
    vertex 23.750000000000025 -11.625098260247746 3.7499999999999996
  endloop
endfacet
facet normal 0.0 -1.0 0.0
  outer loop
    vertex 0.8062008892103601 -11.625098260247746 3.2317072921268077
    vertex 23.750000000000025 -11.625098260247746 3.7499999999999996
    vertex 1.2500000000000016 -11.625098260247746 3.750000000000001
  endloop
endfacet
facet normal 0.0 -1.0 0.0
  outer loop
    vertex 1.2500000000000016 -11.625098260247746 3.750000000000001
    vertex 23.750000000000025 -11.625098260247746 3.7499999999999996
    vertex 23.23170729212683 -11.625098260247746 4.193799110789641
  endloop
endfacet
facet normal 0.0 -1.0 0.0
  outer loop
    vertex 1.2500000000000016 -11.625098260247746 3.750000000000001
    vertex 23.23170729212683 -11.625098260247746 4.193799110789641
    vertex 1.7682927078731958 -11.625098260247746 4.193799110789643
  endloop
endfacet
facet normal 0.0 -1.0 0.0
  outer loop
    vertex 1.7682927078731958 -11.625098260247746 4.193799110789643
    vertex 23.23170729212683 -11.625098260247746 4.193799110789641
    vertex 22.651276023378614 -11.625098260247746 4.5525253630092655
  endloop
endfacet
facet normal 0.0 -1.0 0.0
  outer loop
    vertex 1.7682927078731958 -11.625098260247746 4.193799110789643
    vertex 22.651276023378614 -11.625098260247746 4.5525253630092655
    vertex 2.348723976621415 -11.625098260247746 4.5525253630092655
  endloop
endfacet
facet normal 0.0 -1.0 0.0
  outer loop
    vertex 2.348723976621415 -11.625098260247746 4.5525253630092655
    vertex 22.651276023378614 -11.625098260247746 4.5525253630092655
    vertex 22.022542485937393 -11.625098260247746 4.817627457812105
  endloop
endfacet
facet normal 0.0 -1.0 0.0
  outer loop
    vertex 2.348723976621415 -11.625098260247746 4.5525253630092655
    vertex 22.022542485937393 -11.625098260247746 4.817627457812105
    vertex 2.977457514062635 -11.625098260247746 4.817627457812107
  endloop
endfacet
facet normal 0.0 -1.0 0.0
  outer loop
    vertex 2.977457514062635 -11.625098260247746 4.817627457812107
    vertex 22.022542485937393 -11.625098260247746 4.817627457812105
    vertex 21.360494399102713 -11.625098260247746 4.9827859044345635
  endloop
endfacet
facet normal 0.0 -1.0 0.0
  outer loop
    vertex 2.977457514062635 -11.625098260247746 4.817627457812107
    vertex 21.360494399102713 -11.625098260247746 4.9827859044345635
    vertex 3.6395056008973152 -11.625098260247746 4.982785904434565
  endloop
endfacet
facet normal 0.0 -1.0 0.0
  outer loop
    vertex 3.6395056008973152 -11.625098260247746 4.982785904434565
    vertex 21.360494399102713 -11.625098260247746 4.9827859044345635
    vertex 3.8304128461459337 -11.625098260247746 5.0
  endloop
endfacet
facet normal 0.00012266298870190114 0.0020231497258865264 0.9999979459073793
  outer loop
    vertex 3.8304128461459337 -11.625098260247746 5.0
    vertex 3.6395056008973152 -6.625098260247746 4.982785904434565
    vertex 3.6395056008973152 -11.625098260247746 4.982785904434565
  endloop
endfacet
facet normal 0.00012266298870190114 0.0020231497258865264 0.9999979459073793
  outer loop
    vertex 3.6395056008973152 -6.625098260247746 4.982785904434565
    vertex 3.8304128461459337 -11.625098260247746 5.0
    vertex 21.360494399102713 -6.625098260247746 4.9827859044345635
  endloop
endfacet
facet normal 0.00012266298870190114 0.0020231497258865264 0.9999979459073793
  outer loop
    vertex 21.360494399102713 -6.625098260247746 4.9827859044345635
    vertex 3.8304128461459337 -11.625098260247746 5.0
    vertex 21.360494399102713 -11.625098260247746 4.9827859044345635
  endloop
endfacet
facet normal 0.2420478938506402 0.0 0.9702643026941007
  outer loop
    vertex 22.022542485937393 -11.625098260247746 4.817627457812105
    vertex 21.360494399102713 -6.625098260247746 4.9827859044345635
    vertex 21.360494399102713 -11.625098260247746 4.9827859044345635
  endloop
endfacet
facet normal 0.2420478938506402 0.0 0.9702643026941007
  outer loop
    vertex 21.360494399102713 -6.625098260247746 4.9827859044345635
    vertex 22.022542485937393 -11.625098260247746 4.817627457812105
    vertex 22.022542485937393 -6.625098260247746 4.817627457812105
  endloop
endfacet
facet normal 0.0 0.0 -1.0
  outer loop
    vertex 25.00000000000002 -6.625098260247746 0.0
    vertex 0.0 -11.625098260247746 0.0
    vertex 0.0 -6.625098260247746 0.0
  endloop
endfacet
facet normal 0.0 0.0 -1.0
  outer loop
    vertex 0.0 -11.625098260247746 0.0
    vertex 25.00000000000002 -6.625098260247746 0.0
    vertex 25.00000000000002 -11.625098260247746 0.0
  endloop
endfacet
endsolid Untitled-55ab1a25
